%TF.GenerationSoftware,KiCad,Pcbnew,8.0.3*%
%TF.CreationDate,2025-07-22T23:59:46+01:00*%
%TF.ProjectId,Athena,41746865-6e61-42e6-9b69-6361645f7063,rev?*%
%TF.SameCoordinates,Original*%
%TF.FileFunction,Drillmap*%
%TF.FilePolarity,Positive*%
%FSLAX45Y45*%
G04 Gerber Fmt 4.5, Leading zero omitted, Abs format (unit mm)*
G04 Created by KiCad (PCBNEW 8.0.3) date 2025-07-22 23:59:46*
%MOMM*%
%LPD*%
G01*
G04 APERTURE LIST*
%ADD10C,0.050000*%
%ADD11C,0.200000*%
%ADD12C,0.100000*%
%ADD13C,0.152000*%
%ADD14C,0.320000*%
G04 APERTURE END LIST*
D10*
X15100300Y-16459200D02*
X10002520Y-16454120D01*
X10002520Y-16454120D02*
G75*
G02*
X9545883Y-15996991I-2520J454120D01*
G01*
X9545001Y-4897299D02*
G75*
G02*
X9997440Y-4445000I454999J-2701D01*
G01*
X15559195Y-16002065D02*
G75*
G02*
X15100300Y-16459200I-459195J2065D01*
G01*
X15554995Y-4902188D02*
X15559195Y-16002065D01*
X9997440Y-4445000D02*
X15100300Y-4445000D01*
X15100300Y-4445000D02*
G75*
G02*
X15554995Y-4902188I-300J-455000D01*
G01*
X9545883Y-15996991D02*
X9545001Y-4897299D01*
D11*
D12*
X9885000Y-15285000D02*
X9915000Y-15315000D01*
X9915000Y-15285000D02*
X9885000Y-15315000D01*
X10055000Y-11390000D02*
X10085000Y-11420000D01*
X10085000Y-11390000D02*
X10055000Y-11420000D01*
X10185000Y-15285000D02*
X10215000Y-15315000D01*
X10215000Y-15285000D02*
X10185000Y-15315000D01*
X10455000Y-11995000D02*
X10485000Y-12025000D01*
X10485000Y-11995000D02*
X10455000Y-12025000D01*
X10480000Y-15122500D02*
X10510000Y-15152500D01*
X10510000Y-15122500D02*
X10480000Y-15152500D01*
X10485000Y-7955000D02*
X10515000Y-7985000D01*
X10515000Y-7955000D02*
X10485000Y-7985000D01*
X10485000Y-12340000D02*
X10515000Y-12370000D01*
X10515000Y-12340000D02*
X10485000Y-12370000D01*
X10485000Y-12935000D02*
X10515000Y-12965000D01*
X10515000Y-12935000D02*
X10485000Y-12965000D01*
X10490000Y-12140000D02*
X10520000Y-12170000D01*
X10520000Y-12140000D02*
X10490000Y-12170000D01*
X10497500Y-11255000D02*
X10527500Y-11285000D01*
X10527500Y-11255000D02*
X10497500Y-11285000D01*
X10505000Y-13785000D02*
X10535000Y-13815000D01*
X10535000Y-13785000D02*
X10505000Y-13815000D01*
X10526250Y-10566250D02*
X10556250Y-10596250D01*
X10556250Y-10566250D02*
X10526250Y-10596250D01*
X10530000Y-10215000D02*
X10560000Y-10245000D01*
X10560000Y-10215000D02*
X10530000Y-10245000D01*
X10557681Y-13724794D02*
X10587681Y-13754794D01*
X10587681Y-13724794D02*
X10557681Y-13754794D01*
X10581694Y-11956694D02*
X10611694Y-11986694D01*
X10611694Y-11956694D02*
X10581694Y-11986694D01*
X10651250Y-14818750D02*
X10681250Y-14848750D01*
X10681250Y-14818750D02*
X10651250Y-14848750D01*
X10677500Y-13522500D02*
X10707500Y-13552500D01*
X10707500Y-13522500D02*
X10677500Y-13552500D01*
X10735000Y-10935000D02*
X10765000Y-10965000D01*
X10765000Y-10935000D02*
X10735000Y-10965000D01*
X10735000Y-11385000D02*
X10765000Y-11415000D01*
X10765000Y-11385000D02*
X10735000Y-11415000D01*
X10735000Y-12685000D02*
X10765000Y-12715000D01*
X10765000Y-12685000D02*
X10735000Y-12715000D01*
X10835000Y-8785000D02*
X10865000Y-8815000D01*
X10865000Y-8785000D02*
X10835000Y-8815000D01*
X10835000Y-9085000D02*
X10865000Y-9115000D01*
X10865000Y-9085000D02*
X10835000Y-9115000D01*
X10835000Y-9485000D02*
X10865000Y-9515000D01*
X10865000Y-9485000D02*
X10835000Y-9515000D01*
X10835000Y-11585000D02*
X10865000Y-11615000D01*
X10865000Y-11585000D02*
X10835000Y-11615000D01*
X10880000Y-10795000D02*
X10910000Y-10825000D01*
X10910000Y-10795000D02*
X10880000Y-10825000D01*
X10885000Y-8585000D02*
X10915000Y-8615000D01*
X10915000Y-8585000D02*
X10885000Y-8615000D01*
X10885000Y-13785000D02*
X10915000Y-13815000D01*
X10915000Y-13785000D02*
X10885000Y-13815000D01*
X10895000Y-10985000D02*
X10925000Y-11015000D01*
X10925000Y-10985000D02*
X10895000Y-11015000D01*
X10897500Y-9385000D02*
X10927500Y-9415000D01*
X10927500Y-9385000D02*
X10897500Y-9415000D01*
X10913550Y-13085000D02*
X10943550Y-13115000D01*
X10943550Y-13085000D02*
X10913550Y-13115000D01*
X10914792Y-10422868D02*
X10944792Y-10452868D01*
X10944792Y-10422868D02*
X10914792Y-10452868D01*
X10975000Y-11210000D02*
X11005000Y-11240000D01*
X11005000Y-11210000D02*
X10975000Y-11240000D01*
X10982500Y-10687500D02*
X11012500Y-10717500D01*
X11012500Y-10687500D02*
X10982500Y-10717500D01*
X11035000Y-8085000D02*
X11065000Y-8115000D01*
X11065000Y-8085000D02*
X11035000Y-8115000D01*
X11035000Y-13635000D02*
X11065000Y-13665000D01*
X11065000Y-13635000D02*
X11035000Y-13665000D01*
X11085000Y-10835000D02*
X11115000Y-10865000D01*
X11115000Y-10835000D02*
X11085000Y-10865000D01*
X11085000Y-14885000D02*
X11115000Y-14915000D01*
X11115000Y-14885000D02*
X11085000Y-14915000D01*
X11090000Y-11935000D02*
X11120000Y-11965000D01*
X11120000Y-11935000D02*
X11090000Y-11965000D01*
X11100000Y-12650000D02*
X11130000Y-12680000D01*
X11130000Y-12650000D02*
X11100000Y-12680000D01*
X11102132Y-12105000D02*
X11132132Y-12135000D01*
X11132132Y-12105000D02*
X11102132Y-12135000D01*
X11105000Y-10320000D02*
X11135000Y-10350000D01*
X11135000Y-10320000D02*
X11105000Y-10350000D01*
X11155000Y-11000000D02*
X11185000Y-11030000D01*
X11185000Y-11000000D02*
X11155000Y-11030000D01*
X11172500Y-13285000D02*
X11202500Y-13315000D01*
X11202500Y-13285000D02*
X11172500Y-13315000D01*
X11175000Y-12215000D02*
X11205000Y-12245000D01*
X11205000Y-12215000D02*
X11175000Y-12245000D01*
X11180000Y-15530000D02*
X11210000Y-15560000D01*
X11210000Y-15530000D02*
X11180000Y-15560000D01*
X11185000Y-5985000D02*
X11215000Y-6015000D01*
X11215000Y-5985000D02*
X11185000Y-6015000D01*
X11185000Y-10535000D02*
X11215000Y-10565000D01*
X11215000Y-10535000D02*
X11185000Y-10565000D01*
X11235000Y-12985000D02*
X11265000Y-13015000D01*
X11265000Y-12985000D02*
X11235000Y-13015000D01*
X11240000Y-8940000D02*
X11270000Y-8970000D01*
X11270000Y-8940000D02*
X11240000Y-8970000D01*
X11240000Y-9285000D02*
X11270000Y-9315000D01*
X11270000Y-9285000D02*
X11240000Y-9315000D01*
X11260000Y-9415000D02*
X11290000Y-9445000D01*
X11290000Y-9415000D02*
X11260000Y-9445000D01*
X11262500Y-10757500D02*
X11292500Y-10787500D01*
X11292500Y-10757500D02*
X11262500Y-10787500D01*
X11285000Y-9535000D02*
X11315000Y-9565000D01*
X11315000Y-9535000D02*
X11285000Y-9565000D01*
X11285000Y-9685000D02*
X11315000Y-9715000D01*
X11315000Y-9685000D02*
X11285000Y-9715000D01*
X11285000Y-11547500D02*
X11315000Y-11577500D01*
X11315000Y-11547500D02*
X11285000Y-11577500D01*
X11316000Y-11709000D02*
X11346000Y-11739000D01*
X11346000Y-11709000D02*
X11316000Y-11739000D01*
X11324569Y-14874569D02*
X11354569Y-14904569D01*
X11354569Y-14874569D02*
X11324569Y-14904569D01*
X11335000Y-11385000D02*
X11365000Y-11415000D01*
X11365000Y-11385000D02*
X11335000Y-11415000D01*
X11335000Y-14985000D02*
X11365000Y-15015000D01*
X11365000Y-14985000D02*
X11335000Y-15015000D01*
X11335000Y-15135000D02*
X11365000Y-15165000D01*
X11365000Y-15135000D02*
X11335000Y-15165000D01*
X11340888Y-8747500D02*
X11370888Y-8777500D01*
X11370888Y-8747500D02*
X11340888Y-8777500D01*
X11373128Y-12696872D02*
X11403128Y-12726872D01*
X11403128Y-12696872D02*
X11373128Y-12726872D01*
X11385000Y-8315000D02*
X11415000Y-8345000D01*
X11415000Y-8315000D02*
X11385000Y-8345000D01*
X11385000Y-12835000D02*
X11415000Y-12865000D01*
X11415000Y-12835000D02*
X11385000Y-12865000D01*
X11385000Y-13685000D02*
X11415000Y-13715000D01*
X11415000Y-13685000D02*
X11385000Y-13715000D01*
X11397500Y-9117118D02*
X11427500Y-9147118D01*
X11427500Y-9117118D02*
X11397500Y-9147118D01*
X11415000Y-7054000D02*
X11445000Y-7084000D01*
X11445000Y-7054000D02*
X11415000Y-7084000D01*
X11435000Y-9835000D02*
X11465000Y-9865000D01*
X11465000Y-9835000D02*
X11435000Y-9865000D01*
X11435000Y-9985000D02*
X11465000Y-10015000D01*
X11465000Y-9985000D02*
X11435000Y-10015000D01*
X11485000Y-10187369D02*
X11515000Y-10217369D01*
X11515000Y-10187369D02*
X11485000Y-10217369D01*
X11488257Y-10272500D02*
X11518257Y-10302500D01*
X11518257Y-10272500D02*
X11488257Y-10302500D01*
X11489000Y-11935000D02*
X11519000Y-11965000D01*
X11519000Y-11935000D02*
X11489000Y-11965000D01*
X11490806Y-11729194D02*
X11520806Y-11759194D01*
X11520806Y-11729194D02*
X11490806Y-11759194D01*
X11492500Y-10902500D02*
X11522500Y-10932500D01*
X11522500Y-10902500D02*
X11492500Y-10932500D01*
X11496872Y-12573128D02*
X11526872Y-12603128D01*
X11526872Y-12573128D02*
X11496872Y-12603128D01*
X11535000Y-6485000D02*
X11565000Y-6515000D01*
X11565000Y-6485000D02*
X11535000Y-6515000D01*
X11584112Y-11405000D02*
X11614112Y-11435000D01*
X11614112Y-11405000D02*
X11584112Y-11435000D01*
X11584112Y-11547500D02*
X11614112Y-11577500D01*
X11614112Y-11547500D02*
X11584112Y-11577500D01*
X11585000Y-10235000D02*
X11615000Y-10265000D01*
X11615000Y-10235000D02*
X11585000Y-10265000D01*
X11598000Y-8822500D02*
X11628000Y-8852500D01*
X11628000Y-8822500D02*
X11598000Y-8852500D01*
X11604194Y-10454194D02*
X11634194Y-10484194D01*
X11634194Y-10454194D02*
X11604194Y-10484194D01*
X11616844Y-8616844D02*
X11646844Y-8646844D01*
X11646844Y-8616844D02*
X11616844Y-8646844D01*
X11622500Y-9082500D02*
X11652500Y-9112500D01*
X11652500Y-9082500D02*
X11622500Y-9112500D01*
X11622500Y-9305000D02*
X11652500Y-9335000D01*
X11652500Y-9305000D02*
X11622500Y-9335000D01*
X11635000Y-10735000D02*
X11665000Y-10765000D01*
X11665000Y-10735000D02*
X11635000Y-10765000D01*
X11662369Y-10062369D02*
X11692369Y-10092369D01*
X11692369Y-10062369D02*
X11662369Y-10092369D01*
X11685000Y-7285000D02*
X11715000Y-7315000D01*
X11715000Y-7285000D02*
X11685000Y-7315000D01*
X11735000Y-10235000D02*
X11765000Y-10265000D01*
X11765000Y-10235000D02*
X11735000Y-10265000D01*
X11735000Y-12485000D02*
X11765000Y-12515000D01*
X11765000Y-12485000D02*
X11735000Y-12515000D01*
X11735000Y-13935000D02*
X11765000Y-13965000D01*
X11765000Y-13935000D02*
X11735000Y-13965000D01*
X11735000Y-14535000D02*
X11765000Y-14565000D01*
X11765000Y-14535000D02*
X11735000Y-14565000D01*
X11755000Y-9015000D02*
X11785000Y-9045000D01*
X11785000Y-9015000D02*
X11755000Y-9045000D01*
X11755000Y-14152500D02*
X11785000Y-14182500D01*
X11785000Y-14152500D02*
X11755000Y-14182500D01*
X11765806Y-11365806D02*
X11795806Y-11395806D01*
X11795806Y-11365806D02*
X11765806Y-11395806D01*
X11769054Y-10422116D02*
X11799054Y-10452116D01*
X11799054Y-10422116D02*
X11769054Y-10452116D01*
X11774720Y-11935000D02*
X11804720Y-11965000D01*
X11804720Y-11935000D02*
X11774720Y-11965000D01*
X11774720Y-12585000D02*
X11804720Y-12615000D01*
X11804720Y-12585000D02*
X11774720Y-12615000D01*
X11782500Y-9422500D02*
X11812500Y-9452500D01*
X11812500Y-9422500D02*
X11782500Y-9452500D01*
X11785000Y-7385000D02*
X11815000Y-7415000D01*
X11815000Y-7385000D02*
X11785000Y-7415000D01*
X11785000Y-8785000D02*
X11815000Y-8815000D01*
X11815000Y-8785000D02*
X11785000Y-8815000D01*
X11785000Y-9585000D02*
X11815000Y-9615000D01*
X11815000Y-9585000D02*
X11785000Y-9615000D01*
X11785000Y-15485000D02*
X11815000Y-15515000D01*
X11815000Y-15485000D02*
X11785000Y-15515000D01*
X11787426Y-9187427D02*
X11817426Y-9217427D01*
X11817426Y-9187427D02*
X11787426Y-9217427D01*
X11794612Y-11683000D02*
X11824612Y-11713000D01*
X11824612Y-11683000D02*
X11794612Y-11713000D01*
X11798306Y-10933306D02*
X11828306Y-10963306D01*
X11828306Y-10933306D02*
X11798306Y-10963306D01*
X11825000Y-14790000D02*
X11855000Y-14820000D01*
X11855000Y-14790000D02*
X11825000Y-14820000D01*
X11828431Y-8947500D02*
X11858431Y-8977500D01*
X11858431Y-8947500D02*
X11828431Y-8977500D01*
X11855000Y-10485000D02*
X11885000Y-10515000D01*
X11885000Y-10485000D02*
X11855000Y-10515000D01*
X11872503Y-9849773D02*
X11902503Y-9879773D01*
X11902503Y-9849773D02*
X11872503Y-9879773D01*
X11885000Y-7485000D02*
X11915000Y-7515000D01*
X11915000Y-7485000D02*
X11885000Y-7515000D01*
X11885000Y-8885000D02*
X11915000Y-8915000D01*
X11915000Y-8885000D02*
X11885000Y-8915000D01*
X11885000Y-16185000D02*
X11915000Y-16215000D01*
X11915000Y-16185000D02*
X11885000Y-16215000D01*
X11885000Y-16285000D02*
X11915000Y-16315000D01*
X11915000Y-16285000D02*
X11885000Y-16315000D01*
X11910000Y-8695000D02*
X11940000Y-8725000D01*
X11940000Y-8695000D02*
X11910000Y-8725000D01*
X11922500Y-9185000D02*
X11952500Y-9215000D01*
X11952500Y-9185000D02*
X11922500Y-9215000D01*
X11922500Y-11935000D02*
X11952500Y-11965000D01*
X11952500Y-11935000D02*
X11922500Y-11965000D01*
X11935000Y-9335000D02*
X11965000Y-9365000D01*
X11965000Y-9335000D02*
X11935000Y-9365000D01*
X11935000Y-10735000D02*
X11965000Y-10765000D01*
X11965000Y-10735000D02*
X11935000Y-10765000D01*
X11945000Y-14700000D02*
X11975000Y-14730000D01*
X11975000Y-14700000D02*
X11945000Y-14730000D01*
X11956000Y-11610000D02*
X11986000Y-11640000D01*
X11986000Y-11610000D02*
X11956000Y-11640000D01*
X11985000Y-11422500D02*
X12015000Y-11452500D01*
X12015000Y-11422500D02*
X11985000Y-11452500D01*
X11985000Y-7585000D02*
X12015000Y-7615000D01*
X12015000Y-7585000D02*
X11985000Y-7615000D01*
X11985000Y-11685000D02*
X12015000Y-11715000D01*
X12015000Y-11685000D02*
X11985000Y-11715000D01*
X12022500Y-12545000D02*
X12052500Y-12575000D01*
X12052500Y-12545000D02*
X12022500Y-12575000D01*
X12026803Y-9668197D02*
X12056803Y-9698197D01*
X12056803Y-9668197D02*
X12026803Y-9698197D01*
X12033476Y-9575504D02*
X12063476Y-9605504D01*
X12063476Y-9575504D02*
X12033476Y-9605504D01*
X12034986Y-11747481D02*
X12064986Y-11777481D01*
X12064986Y-11747481D02*
X12034986Y-11777481D01*
X12035000Y-9023388D02*
X12065000Y-9053388D01*
X12065000Y-9023388D02*
X12035000Y-9053388D01*
X12035000Y-9285000D02*
X12065000Y-9315000D01*
X12065000Y-9285000D02*
X12035000Y-9315000D01*
X12045000Y-5335000D02*
X12075000Y-5365000D01*
X12075000Y-5335000D02*
X12045000Y-5365000D01*
X12065000Y-10062369D02*
X12095000Y-10092369D01*
X12095000Y-10062369D02*
X12065000Y-10092369D01*
X12070174Y-9358015D02*
X12100174Y-9388015D01*
X12100174Y-9358015D02*
X12070174Y-9388015D01*
X12085000Y-5435000D02*
X12115000Y-5465000D01*
X12115000Y-5435000D02*
X12085000Y-5465000D01*
X12095000Y-10982500D02*
X12125000Y-11012500D01*
X12125000Y-10982500D02*
X12095000Y-11012500D01*
X12124156Y-11925044D02*
X12154156Y-11955044D01*
X12154156Y-11925044D02*
X12124156Y-11955044D01*
X12126200Y-11821400D02*
X12156200Y-11851400D01*
X12156200Y-11821400D02*
X12126200Y-11851400D01*
X12127806Y-8927806D02*
X12157806Y-8957806D01*
X12157806Y-8927806D02*
X12127806Y-8957806D01*
X12135000Y-9182425D02*
X12165000Y-9212425D01*
X12165000Y-9182425D02*
X12135000Y-9212425D01*
X12135000Y-10235000D02*
X12165000Y-10265000D01*
X12165000Y-10235000D02*
X12135000Y-10265000D01*
X12166591Y-9328203D02*
X12196591Y-9358203D01*
X12196591Y-9328203D02*
X12166591Y-9358203D01*
X12172500Y-11641569D02*
X12202500Y-11671569D01*
X12202500Y-11641569D02*
X12172500Y-11671569D01*
X12185000Y-12385000D02*
X12215000Y-12415000D01*
X12215000Y-12385000D02*
X12185000Y-12415000D01*
X12204127Y-11377500D02*
X12234127Y-11407500D01*
X12234127Y-11377500D02*
X12204127Y-11407500D01*
X12231940Y-10335000D02*
X12261940Y-10365000D01*
X12261940Y-10335000D02*
X12231940Y-10365000D01*
X12235000Y-10247500D02*
X12265000Y-10277500D01*
X12265000Y-10247500D02*
X12235000Y-10277500D01*
X12267132Y-15105000D02*
X12297132Y-15135000D01*
X12297132Y-15105000D02*
X12267132Y-15135000D01*
X12267500Y-9314925D02*
X12297500Y-9344925D01*
X12297500Y-9314925D02*
X12267500Y-9344925D01*
X12267500Y-9954869D02*
X12297500Y-9984869D01*
X12297500Y-9954869D02*
X12267500Y-9984869D01*
X12272500Y-12150000D02*
X12302500Y-12180000D01*
X12302500Y-12150000D02*
X12272500Y-12180000D01*
X12284000Y-11636000D02*
X12314000Y-11666000D01*
X12314000Y-11636000D02*
X12284000Y-11666000D01*
X12285000Y-9185000D02*
X12315000Y-9215000D01*
X12315000Y-9185000D02*
X12285000Y-9215000D01*
X12285000Y-10935000D02*
X12315000Y-10965000D01*
X12315000Y-10935000D02*
X12285000Y-10965000D01*
X12285000Y-12025000D02*
X12315000Y-12055000D01*
X12315000Y-12025000D02*
X12285000Y-12055000D01*
X12297500Y-11422500D02*
X12327500Y-11452500D01*
X12327500Y-11422500D02*
X12297500Y-11452500D01*
X12297500Y-12732500D02*
X12327500Y-12762500D01*
X12327500Y-12732500D02*
X12297500Y-12762500D01*
X12309888Y-8922500D02*
X12339888Y-8952500D01*
X12339888Y-8922500D02*
X12309888Y-8952500D01*
X12330000Y-5960000D02*
X12360000Y-5990000D01*
X12360000Y-5960000D02*
X12330000Y-5990000D01*
X12331824Y-9771961D02*
X12361824Y-9801961D01*
X12361824Y-9771961D02*
X12331824Y-9801961D01*
X12350000Y-14520000D02*
X12380000Y-14550000D01*
X12380000Y-14520000D02*
X12350000Y-14550000D01*
X12365000Y-5055000D02*
X12395000Y-5085000D01*
X12395000Y-5055000D02*
X12365000Y-5085000D01*
X12365000Y-9185000D02*
X12395000Y-9215000D01*
X12395000Y-9185000D02*
X12365000Y-9215000D01*
X12365000Y-10397500D02*
X12395000Y-10427500D01*
X12395000Y-10397500D02*
X12365000Y-10427500D01*
X12367166Y-10503610D02*
X12397166Y-10533610D01*
X12397166Y-10503610D02*
X12367166Y-10533610D01*
X12385000Y-5335000D02*
X12415000Y-5365000D01*
X12415000Y-5335000D02*
X12385000Y-5365000D01*
X12402500Y-5435000D02*
X12432500Y-5465000D01*
X12432500Y-5435000D02*
X12402500Y-5465000D01*
X12424523Y-9937369D02*
X12454523Y-9967369D01*
X12454523Y-9937369D02*
X12424523Y-9967369D01*
X12460000Y-10272500D02*
X12490000Y-10302500D01*
X12490000Y-10272500D02*
X12460000Y-10302500D01*
X12465957Y-10595958D02*
X12495957Y-10625958D01*
X12495957Y-10595958D02*
X12465957Y-10625958D01*
X12475000Y-9780000D02*
X12505000Y-9810000D01*
X12505000Y-9780000D02*
X12475000Y-9810000D01*
X12485000Y-9435000D02*
X12515000Y-9465000D01*
X12515000Y-9435000D02*
X12485000Y-9465000D01*
X12491569Y-9347500D02*
X12521569Y-9377500D01*
X12521569Y-9347500D02*
X12491569Y-9377500D01*
X12498684Y-9198684D02*
X12528684Y-9228684D01*
X12528684Y-9198684D02*
X12498684Y-9228684D01*
X12546990Y-8973602D02*
X12576990Y-9003602D01*
X12576990Y-8973602D02*
X12546990Y-9003602D01*
X12567500Y-7652500D02*
X12597500Y-7682500D01*
X12597500Y-7652500D02*
X12567500Y-7682500D01*
X12585462Y-9595082D02*
X12615462Y-9625082D01*
X12615462Y-9595082D02*
X12585462Y-9625082D01*
X12597500Y-6587500D02*
X12627500Y-6617500D01*
X12627500Y-6587500D02*
X12597500Y-6617500D01*
X12625000Y-12585000D02*
X12655000Y-12615000D01*
X12655000Y-12585000D02*
X12625000Y-12615000D01*
X12654194Y-9804194D02*
X12684194Y-9834194D01*
X12684194Y-9804194D02*
X12654194Y-9834194D01*
X12655000Y-10448422D02*
X12685000Y-10478422D01*
X12685000Y-10448422D02*
X12655000Y-10478422D01*
X12662500Y-10665000D02*
X12692500Y-10695000D01*
X12692500Y-10665000D02*
X12662500Y-10695000D01*
X12665000Y-5055000D02*
X12695000Y-5085000D01*
X12695000Y-5055000D02*
X12665000Y-5085000D01*
X12705000Y-10062369D02*
X12735000Y-10092369D01*
X12735000Y-10062369D02*
X12705000Y-10092369D01*
X12710000Y-9365000D02*
X12740000Y-9395000D01*
X12740000Y-9365000D02*
X12710000Y-9395000D01*
X12725897Y-11485897D02*
X12755897Y-11515897D01*
X12755897Y-11485897D02*
X12725897Y-11515897D01*
X12747500Y-9895000D02*
X12777500Y-9925000D01*
X12777500Y-9895000D02*
X12747500Y-9925000D01*
X12785000Y-5915000D02*
X12815000Y-5945000D01*
X12815000Y-5915000D02*
X12785000Y-5945000D01*
X12802500Y-8925000D02*
X12832500Y-8955000D01*
X12832500Y-8925000D02*
X12802500Y-8955000D01*
X12805943Y-10322589D02*
X12835943Y-10352589D01*
X12835943Y-10322589D02*
X12805943Y-10352589D01*
X12810000Y-10060000D02*
X12840000Y-10090000D01*
X12840000Y-10060000D02*
X12810000Y-10090000D01*
X12825000Y-9097500D02*
X12855000Y-9127500D01*
X12855000Y-9097500D02*
X12825000Y-9127500D01*
X12835000Y-10985000D02*
X12865000Y-11015000D01*
X12865000Y-10985000D02*
X12835000Y-11015000D01*
X12835000Y-11065000D02*
X12865000Y-11095000D01*
X12865000Y-11065000D02*
X12835000Y-11095000D01*
X12847500Y-10187369D02*
X12877500Y-10217369D01*
X12877500Y-10187369D02*
X12847500Y-10217369D01*
X12855000Y-5435000D02*
X12885000Y-5465000D01*
X12885000Y-5435000D02*
X12855000Y-5465000D01*
X12872500Y-9852816D02*
X12902500Y-9882816D01*
X12902500Y-9852816D02*
X12872500Y-9882816D01*
X12885000Y-12165000D02*
X12915000Y-12195000D01*
X12915000Y-12165000D02*
X12885000Y-12195000D01*
X12885000Y-14227500D02*
X12915000Y-14257500D01*
X12915000Y-14227500D02*
X12885000Y-14257500D01*
X12885000Y-14435000D02*
X12915000Y-14465000D01*
X12915000Y-14435000D02*
X12885000Y-14465000D01*
X12885000Y-15385000D02*
X12915000Y-15415000D01*
X12915000Y-15385000D02*
X12885000Y-15415000D01*
X12888200Y-11770600D02*
X12918200Y-11800600D01*
X12918200Y-11770600D02*
X12888200Y-11800600D01*
X12925000Y-12005000D02*
X12955000Y-12035000D01*
X12955000Y-12005000D02*
X12925000Y-12035000D01*
X12935000Y-10410000D02*
X12965000Y-10440000D01*
X12965000Y-10410000D02*
X12935000Y-10440000D01*
X12980000Y-7530000D02*
X13010000Y-7560000D01*
X13010000Y-7530000D02*
X12980000Y-7560000D01*
X12987861Y-10705362D02*
X13017861Y-10735362D01*
X13017861Y-10705362D02*
X12987861Y-10735362D01*
X12995817Y-9403659D02*
X13025817Y-9433659D01*
X13025817Y-9403659D02*
X12995817Y-9433659D01*
X13035000Y-10835000D02*
X13065000Y-10865000D01*
X13065000Y-10835000D02*
X13035000Y-10865000D01*
X13070000Y-11197500D02*
X13100000Y-11227500D01*
X13100000Y-11197500D02*
X13070000Y-11227500D01*
X13072500Y-10710000D02*
X13102500Y-10740000D01*
X13102500Y-10710000D02*
X13072500Y-10740000D01*
X13072500Y-10935000D02*
X13102500Y-10965000D01*
X13102500Y-10935000D02*
X13072500Y-10965000D01*
X13075000Y-9035000D02*
X13105000Y-9065000D01*
X13105000Y-9035000D02*
X13075000Y-9065000D01*
X13092500Y-11885000D02*
X13122500Y-11915000D01*
X13122500Y-11885000D02*
X13092500Y-11915000D01*
X13134106Y-9343000D02*
X13164106Y-9373000D01*
X13164106Y-9343000D02*
X13134106Y-9373000D01*
X13135000Y-10835000D02*
X13165000Y-10865000D01*
X13165000Y-10835000D02*
X13135000Y-10865000D01*
X13150214Y-9664214D02*
X13180214Y-9694214D01*
X13180214Y-9664214D02*
X13150214Y-9694214D01*
X13185000Y-16185000D02*
X13215000Y-16215000D01*
X13215000Y-16185000D02*
X13185000Y-16215000D01*
X13185000Y-16285000D02*
X13215000Y-16315000D01*
X13215000Y-16285000D02*
X13185000Y-16315000D01*
X13197500Y-10935000D02*
X13227500Y-10965000D01*
X13227500Y-10935000D02*
X13197500Y-10965000D01*
X13209000Y-5949000D02*
X13239000Y-5979000D01*
X13239000Y-5949000D02*
X13209000Y-5979000D01*
X13220000Y-10560194D02*
X13250000Y-10590194D01*
X13250000Y-10560194D02*
X13220000Y-10590194D01*
X13235000Y-5235000D02*
X13265000Y-5265000D01*
X13265000Y-5235000D02*
X13235000Y-5265000D01*
X13235000Y-6485000D02*
X13265000Y-6515000D01*
X13265000Y-6485000D02*
X13235000Y-6515000D01*
X13297500Y-9693316D02*
X13327500Y-9723316D01*
X13327500Y-9693316D02*
X13297500Y-9723316D01*
X13304000Y-10254194D02*
X13334000Y-10284194D01*
X13334000Y-10254194D02*
X13304000Y-10284194D01*
X13320000Y-8335000D02*
X13350000Y-8365000D01*
X13350000Y-8335000D02*
X13320000Y-8365000D01*
X13361000Y-5923000D02*
X13391000Y-5953000D01*
X13391000Y-5923000D02*
X13361000Y-5953000D01*
X13369056Y-11565056D02*
X13399056Y-11595056D01*
X13399056Y-11565056D02*
X13369056Y-11595056D01*
X13369306Y-5826306D02*
X13399306Y-5856306D01*
X13399306Y-5826306D02*
X13369306Y-5856306D01*
X13390000Y-9795000D02*
X13420000Y-9825000D01*
X13420000Y-9795000D02*
X13390000Y-9825000D01*
X13390000Y-12510000D02*
X13420000Y-12540000D01*
X13420000Y-12510000D02*
X13390000Y-12540000D01*
X13396612Y-7985000D02*
X13426612Y-8015000D01*
X13426612Y-7985000D02*
X13396612Y-8015000D01*
X13410000Y-10930000D02*
X13440000Y-10960000D01*
X13440000Y-10930000D02*
X13410000Y-10960000D01*
X13469000Y-10192000D02*
X13499000Y-10222000D01*
X13499000Y-10192000D02*
X13469000Y-10222000D01*
X13476500Y-14930000D02*
X13506500Y-14960000D01*
X13506500Y-14930000D02*
X13476500Y-14960000D01*
X13476500Y-15105000D02*
X13506500Y-15135000D01*
X13506500Y-15105000D02*
X13476500Y-15135000D01*
X13482500Y-9022500D02*
X13512500Y-9052500D01*
X13512500Y-9022500D02*
X13482500Y-9052500D01*
X13496250Y-13550000D02*
X13526250Y-13580000D01*
X13526250Y-13550000D02*
X13496250Y-13580000D01*
X13499556Y-7994556D02*
X13529556Y-8024556D01*
X13529556Y-7994556D02*
X13499556Y-8024556D01*
X13520000Y-9207500D02*
X13550000Y-9237500D01*
X13550000Y-9207500D02*
X13520000Y-9237500D01*
X13585000Y-13835000D02*
X13615000Y-13865000D01*
X13615000Y-13835000D02*
X13585000Y-13865000D01*
X13610833Y-10697411D02*
X13640833Y-10727411D01*
X13640833Y-10697411D02*
X13610833Y-10727411D01*
X13615000Y-10507500D02*
X13645000Y-10537500D01*
X13645000Y-10507500D02*
X13615000Y-10537500D01*
X13635000Y-9585000D02*
X13665000Y-9615000D01*
X13665000Y-9585000D02*
X13635000Y-9615000D01*
X13635000Y-11035000D02*
X13665000Y-11065000D01*
X13665000Y-11035000D02*
X13635000Y-11065000D01*
X13688000Y-5644000D02*
X13718000Y-5674000D01*
X13718000Y-5644000D02*
X13688000Y-5674000D01*
X13735000Y-6035000D02*
X13765000Y-6065000D01*
X13765000Y-6035000D02*
X13735000Y-6065000D01*
X13737500Y-7865000D02*
X13767500Y-7895000D01*
X13767500Y-7865000D02*
X13737500Y-7895000D01*
X13752500Y-8275000D02*
X13782500Y-8305000D01*
X13782500Y-8275000D02*
X13752500Y-8305000D01*
X13785000Y-10297500D02*
X13815000Y-10327500D01*
X13815000Y-10297500D02*
X13785000Y-10327500D01*
X13802500Y-13750000D02*
X13832500Y-13780000D01*
X13832500Y-13750000D02*
X13802500Y-13780000D01*
X13885000Y-10325000D02*
X13915000Y-10355000D01*
X13915000Y-10325000D02*
X13885000Y-10355000D01*
X13885000Y-14185000D02*
X13915000Y-14215000D01*
X13915000Y-14185000D02*
X13885000Y-14215000D01*
X13949112Y-11630888D02*
X13979112Y-11660888D01*
X13979112Y-11630888D02*
X13949112Y-11660888D01*
X13995362Y-6065000D02*
X14025362Y-6095000D01*
X14025362Y-6065000D02*
X13995362Y-6095000D01*
X14005000Y-9565000D02*
X14035000Y-9595000D01*
X14035000Y-9565000D02*
X14005000Y-9595000D01*
X14035000Y-11540000D02*
X14065000Y-11570000D01*
X14065000Y-11540000D02*
X14035000Y-11570000D01*
X14085000Y-14385000D02*
X14115000Y-14415000D01*
X14115000Y-14385000D02*
X14085000Y-14415000D01*
X14085000Y-14635000D02*
X14115000Y-14665000D01*
X14115000Y-14635000D02*
X14085000Y-14665000D01*
X14087500Y-6575000D02*
X14117500Y-6605000D01*
X14117500Y-6575000D02*
X14087500Y-6605000D01*
X14099945Y-11075334D02*
X14129945Y-11105334D01*
X14129945Y-11075334D02*
X14099945Y-11105334D01*
X14102500Y-11607500D02*
X14132500Y-11637500D01*
X14132500Y-11607500D02*
X14102500Y-11637500D01*
X14105000Y-8472500D02*
X14135000Y-8502500D01*
X14135000Y-8472500D02*
X14105000Y-8502500D01*
X14168779Y-11408721D02*
X14198779Y-11438721D01*
X14198779Y-11408721D02*
X14168779Y-11438721D01*
X14252500Y-11397500D02*
X14282500Y-11427500D01*
X14282500Y-11397500D02*
X14252500Y-11427500D01*
X14272500Y-13557500D02*
X14302500Y-13587500D01*
X14302500Y-13557500D02*
X14272500Y-13587500D01*
X14305000Y-10185000D02*
X14335000Y-10215000D01*
X14335000Y-10185000D02*
X14305000Y-10215000D01*
X14319406Y-13862206D02*
X14349406Y-13892206D01*
X14349406Y-13862206D02*
X14319406Y-13892206D01*
X14322500Y-6775000D02*
X14352500Y-6805000D01*
X14352500Y-6775000D02*
X14322500Y-6805000D01*
X14352500Y-6065000D02*
X14382500Y-6095000D01*
X14382500Y-6065000D02*
X14352500Y-6095000D01*
X14352500Y-12035000D02*
X14382500Y-12065000D01*
X14382500Y-12035000D02*
X14352500Y-12065000D01*
X14352500Y-12289000D02*
X14382500Y-12319000D01*
X14382500Y-12289000D02*
X14352500Y-12319000D01*
X14355000Y-7680000D02*
X14385000Y-7710000D01*
X14385000Y-7680000D02*
X14355000Y-7710000D01*
X14360000Y-11680000D02*
X14390000Y-11710000D01*
X14390000Y-11680000D02*
X14360000Y-11710000D01*
X14401900Y-13843100D02*
X14431900Y-13873100D01*
X14431900Y-13843100D02*
X14401900Y-13873100D01*
X14505000Y-10995000D02*
X14535000Y-11025000D01*
X14535000Y-10995000D02*
X14505000Y-11025000D01*
X14580000Y-10135000D02*
X14610000Y-10165000D01*
X14610000Y-10135000D02*
X14580000Y-10165000D01*
X14685000Y-9585000D02*
X14715000Y-9615000D01*
X14715000Y-9585000D02*
X14685000Y-9615000D01*
X14785000Y-15285000D02*
X14815000Y-15315000D01*
X14815000Y-15285000D02*
X14785000Y-15315000D01*
X14917500Y-10322500D02*
X14947500Y-10352500D01*
X14947500Y-10322500D02*
X14917500Y-10352500D01*
X14987500Y-5670000D02*
X15017500Y-5700000D01*
X15017500Y-5670000D02*
X14987500Y-5700000D01*
X15025000Y-9085000D02*
X15055000Y-9115000D01*
X15055000Y-9085000D02*
X15025000Y-9115000D01*
X15070000Y-9875000D02*
X15100000Y-9905000D01*
X15100000Y-9875000D02*
X15070000Y-9905000D01*
X15085000Y-15285000D02*
X15115000Y-15315000D01*
X15115000Y-15285000D02*
X15085000Y-15315000D01*
X15102500Y-10902500D02*
X15132500Y-10932500D01*
X15132500Y-10902500D02*
X15102500Y-10932500D01*
X15345000Y-9605000D02*
X15375000Y-9635000D01*
X15375000Y-9605000D02*
X15345000Y-9635000D01*
X12153000Y-4707500D02*
G75*
G02*
X12093000Y-4707500I-30000J0D01*
G01*
X12093000Y-4707500D02*
G75*
G02*
X12153000Y-4707500I30000J0D01*
G01*
X12153000Y-4747500D02*
X12153000Y-4667500D01*
X12093000Y-4667500D02*
G75*
G02*
X12153000Y-4667500I30000J0D01*
G01*
X12093000Y-4667500D02*
X12093000Y-4747500D01*
X12093000Y-4747500D02*
G75*
G03*
X12153000Y-4747500I30000J0D01*
G01*
X12153000Y-5125500D02*
G75*
G02*
X12093000Y-5125500I-30000J0D01*
G01*
X12093000Y-5125500D02*
G75*
G02*
X12153000Y-5125500I30000J0D01*
G01*
X12153000Y-5180500D02*
X12153000Y-5070500D01*
X12093000Y-5070500D02*
G75*
G02*
X12153000Y-5070500I30000J0D01*
G01*
X12093000Y-5070500D02*
X12093000Y-5180500D01*
X12093000Y-5180500D02*
G75*
G03*
X12153000Y-5180500I30000J0D01*
G01*
X13017000Y-4707500D02*
G75*
G02*
X12957000Y-4707500I-30000J0D01*
G01*
X12957000Y-4707500D02*
G75*
G02*
X13017000Y-4707500I30000J0D01*
G01*
X13017000Y-4747500D02*
X13017000Y-4667500D01*
X12957000Y-4667500D02*
G75*
G02*
X13017000Y-4667500I30000J0D01*
G01*
X12957000Y-4667500D02*
X12957000Y-4747500D01*
X12957000Y-4747500D02*
G75*
G03*
X13017000Y-4747500I30000J0D01*
G01*
X13017000Y-5125500D02*
G75*
G02*
X12957000Y-5125500I-30000J0D01*
G01*
X12957000Y-5125500D02*
G75*
G02*
X13017000Y-5125500I30000J0D01*
G01*
X13017000Y-5180500D02*
X13017000Y-5070500D01*
X12957000Y-5070500D02*
G75*
G02*
X13017000Y-5070500I30000J0D01*
G01*
X12957000Y-5070500D02*
X12957000Y-5180500D01*
X12957000Y-5180500D02*
G75*
G03*
X13017000Y-5180500I30000J0D01*
G01*
X15289600Y-10158400D02*
X15289600Y-10228400D01*
X15254600Y-10193400D02*
X15324600Y-10193400D01*
X15249600Y-10228400D02*
X15329600Y-10228400D01*
X15329600Y-10158400D02*
G75*
G02*
X15329600Y-10228400I0J-35000D01*
G01*
X15329600Y-10158400D02*
X15249600Y-10158400D01*
X15249600Y-10158400D02*
G75*
G03*
X15249600Y-10228400I0J-35000D01*
G01*
X15289600Y-10998400D02*
X15289600Y-11068400D01*
X15254600Y-11033400D02*
X15324600Y-11033400D01*
X15249600Y-11068400D02*
X15329600Y-11068400D01*
X15329600Y-10998400D02*
G75*
G02*
X15329600Y-11068400I0J-35000D01*
G01*
X15329600Y-10998400D02*
X15249600Y-10998400D01*
X15249600Y-10998400D02*
G75*
G03*
X15249600Y-11068400I0J-35000D01*
G01*
X15317884Y-10441685D02*
X15317884Y-10385116D01*
X15261315Y-10385116D01*
X15261315Y-10441685D01*
X15317884Y-10441685D01*
X15317884Y-10641685D02*
X15317884Y-10585116D01*
X15261315Y-10585116D01*
X15261315Y-10641685D01*
X15317884Y-10641685D01*
X15317884Y-10841685D02*
X15317884Y-10785116D01*
X15261315Y-10785116D01*
X15261315Y-10841685D01*
X15317884Y-10841685D01*
X9900000Y-5700000D02*
X9950000Y-5650000D01*
X9900000Y-5600000D01*
X9850000Y-5650000D01*
X9900000Y-5700000D01*
X10570000Y-15697500D02*
X10670000Y-15797500D01*
X10670000Y-15697500D02*
X10570000Y-15797500D01*
X10670000Y-15747500D02*
G75*
G02*
X10570000Y-15747500I-50000J0D01*
G01*
X10570000Y-15747500D02*
G75*
G02*
X10670000Y-15747500I50000J0D01*
G01*
X10570000Y-15951500D02*
X10670000Y-16051500D01*
X10670000Y-15951500D02*
X10570000Y-16051500D01*
X10670000Y-16001500D02*
G75*
G02*
X10570000Y-16001500I-50000J0D01*
G01*
X10570000Y-16001500D02*
G75*
G02*
X10670000Y-16001500I50000J0D01*
G01*
X10570000Y-16205500D02*
X10670000Y-16305500D01*
X10670000Y-16205500D02*
X10570000Y-16305500D01*
X10670000Y-16255500D02*
G75*
G02*
X10570000Y-16255500I-50000J0D01*
G01*
X10570000Y-16255500D02*
G75*
G02*
X10670000Y-16255500I50000J0D01*
G01*
X10930000Y-15697500D02*
X11030000Y-15797500D01*
X11030000Y-15697500D02*
X10930000Y-15797500D01*
X11030000Y-15747500D02*
G75*
G02*
X10930000Y-15747500I-50000J0D01*
G01*
X10930000Y-15747500D02*
G75*
G02*
X11030000Y-15747500I50000J0D01*
G01*
X10930000Y-15951500D02*
X11030000Y-16051500D01*
X11030000Y-15951500D02*
X10930000Y-16051500D01*
X11030000Y-16001500D02*
G75*
G02*
X10930000Y-16001500I-50000J0D01*
G01*
X10930000Y-16001500D02*
G75*
G02*
X11030000Y-16001500I50000J0D01*
G01*
X10930000Y-16205500D02*
X11030000Y-16305500D01*
X11030000Y-16205500D02*
X10930000Y-16305500D01*
X11030000Y-16255500D02*
G75*
G02*
X10930000Y-16255500I-50000J0D01*
G01*
X10930000Y-16255500D02*
G75*
G02*
X11030000Y-16255500I50000J0D01*
G01*
X11200000Y-6892000D02*
X11300000Y-6992000D01*
X11300000Y-6892000D02*
X11200000Y-6992000D01*
X11300000Y-6942000D02*
G75*
G02*
X11200000Y-6942000I-50000J0D01*
G01*
X11200000Y-6942000D02*
G75*
G02*
X11300000Y-6942000I50000J0D01*
G01*
X11200000Y-7146000D02*
X11300000Y-7246000D01*
X11300000Y-7146000D02*
X11200000Y-7246000D01*
X11300000Y-7196000D02*
G75*
G02*
X11200000Y-7196000I-50000J0D01*
G01*
X11200000Y-7196000D02*
G75*
G02*
X11300000Y-7196000I50000J0D01*
G01*
X11200000Y-7400000D02*
X11300000Y-7500000D01*
X11300000Y-7400000D02*
X11200000Y-7500000D01*
X11300000Y-7450000D02*
G75*
G02*
X11200000Y-7450000I-50000J0D01*
G01*
X11200000Y-7450000D02*
G75*
G02*
X11300000Y-7450000I50000J0D01*
G01*
X11200000Y-7654000D02*
X11300000Y-7754000D01*
X11300000Y-7654000D02*
X11200000Y-7754000D01*
X11300000Y-7704000D02*
G75*
G02*
X11200000Y-7704000I-50000J0D01*
G01*
X11200000Y-7704000D02*
G75*
G02*
X11300000Y-7704000I50000J0D01*
G01*
X11290000Y-15697500D02*
X11390000Y-15797500D01*
X11390000Y-15697500D02*
X11290000Y-15797500D01*
X11390000Y-15747500D02*
G75*
G02*
X11290000Y-15747500I-50000J0D01*
G01*
X11290000Y-15747500D02*
G75*
G02*
X11390000Y-15747500I50000J0D01*
G01*
X11290000Y-15951500D02*
X11390000Y-16051500D01*
X11390000Y-15951500D02*
X11290000Y-16051500D01*
X11390000Y-16001500D02*
G75*
G02*
X11290000Y-16001500I-50000J0D01*
G01*
X11290000Y-16001500D02*
G75*
G02*
X11390000Y-16001500I50000J0D01*
G01*
X11290000Y-16205500D02*
X11390000Y-16305500D01*
X11390000Y-16205500D02*
X11290000Y-16305500D01*
X11390000Y-16255500D02*
G75*
G02*
X11290000Y-16255500I-50000J0D01*
G01*
X11290000Y-16255500D02*
G75*
G02*
X11390000Y-16255500I50000J0D01*
G01*
X11650000Y-15697500D02*
X11750000Y-15797500D01*
X11750000Y-15697500D02*
X11650000Y-15797500D01*
X11750000Y-15747500D02*
G75*
G02*
X11650000Y-15747500I-50000J0D01*
G01*
X11650000Y-15747500D02*
G75*
G02*
X11750000Y-15747500I50000J0D01*
G01*
X11650000Y-15951500D02*
X11750000Y-16051500D01*
X11750000Y-15951500D02*
X11650000Y-16051500D01*
X11750000Y-16001500D02*
G75*
G02*
X11650000Y-16001500I-50000J0D01*
G01*
X11650000Y-16001500D02*
G75*
G02*
X11750000Y-16001500I50000J0D01*
G01*
X11650000Y-16205500D02*
X11750000Y-16305500D01*
X11750000Y-16205500D02*
X11650000Y-16305500D01*
X11750000Y-16255500D02*
G75*
G02*
X11650000Y-16255500I-50000J0D01*
G01*
X11650000Y-16255500D02*
G75*
G02*
X11750000Y-16255500I50000J0D01*
G01*
X12170000Y-8285000D02*
X12270000Y-8385000D01*
X12270000Y-8285000D02*
X12170000Y-8385000D01*
X12270000Y-8335000D02*
G75*
G02*
X12170000Y-8335000I-50000J0D01*
G01*
X12170000Y-8335000D02*
G75*
G02*
X12270000Y-8335000I50000J0D01*
G01*
X12170000Y-8650000D02*
X12270000Y-8750000D01*
X12270000Y-8650000D02*
X12170000Y-8750000D01*
X12270000Y-8700000D02*
G75*
G02*
X12170000Y-8700000I-50000J0D01*
G01*
X12170000Y-8700000D02*
G75*
G02*
X12270000Y-8700000I50000J0D01*
G01*
X12424000Y-8285000D02*
X12524000Y-8385000D01*
X12524000Y-8285000D02*
X12424000Y-8385000D01*
X12524000Y-8335000D02*
G75*
G02*
X12424000Y-8335000I-50000J0D01*
G01*
X12424000Y-8335000D02*
G75*
G02*
X12524000Y-8335000I50000J0D01*
G01*
X12424000Y-8650000D02*
X12524000Y-8750000D01*
X12524000Y-8650000D02*
X12424000Y-8750000D01*
X12524000Y-8700000D02*
G75*
G02*
X12424000Y-8700000I-50000J0D01*
G01*
X12424000Y-8700000D02*
G75*
G02*
X12524000Y-8700000I50000J0D01*
G01*
X12678000Y-8285000D02*
X12778000Y-8385000D01*
X12778000Y-8285000D02*
X12678000Y-8385000D01*
X12778000Y-8335000D02*
G75*
G02*
X12678000Y-8335000I-50000J0D01*
G01*
X12678000Y-8335000D02*
G75*
G02*
X12778000Y-8335000I50000J0D01*
G01*
X12678000Y-8650000D02*
X12778000Y-8750000D01*
X12778000Y-8650000D02*
X12678000Y-8750000D01*
X12778000Y-8700000D02*
G75*
G02*
X12678000Y-8700000I-50000J0D01*
G01*
X12678000Y-8700000D02*
G75*
G02*
X12778000Y-8700000I50000J0D01*
G01*
X12932000Y-8285000D02*
X13032000Y-8385000D01*
X13032000Y-8285000D02*
X12932000Y-8385000D01*
X13032000Y-8335000D02*
G75*
G02*
X12932000Y-8335000I-50000J0D01*
G01*
X12932000Y-8335000D02*
G75*
G02*
X13032000Y-8335000I50000J0D01*
G01*
X12932000Y-8650000D02*
X13032000Y-8750000D01*
X13032000Y-8650000D02*
X12932000Y-8750000D01*
X13032000Y-8700000D02*
G75*
G02*
X12932000Y-8700000I-50000J0D01*
G01*
X12932000Y-8700000D02*
G75*
G02*
X13032000Y-8700000I50000J0D01*
G01*
X13247500Y-11250000D02*
X13347500Y-11350000D01*
X13347500Y-11250000D02*
X13247500Y-11350000D01*
X13347500Y-11300000D02*
G75*
G02*
X13247500Y-11300000I-50000J0D01*
G01*
X13247500Y-11300000D02*
G75*
G02*
X13347500Y-11300000I50000J0D01*
G01*
X13350000Y-15696000D02*
X13450000Y-15796000D01*
X13450000Y-15696000D02*
X13350000Y-15796000D01*
X13450000Y-15746000D02*
G75*
G02*
X13350000Y-15746000I-50000J0D01*
G01*
X13350000Y-15746000D02*
G75*
G02*
X13450000Y-15746000I50000J0D01*
G01*
X13350000Y-15950000D02*
X13450000Y-16050000D01*
X13450000Y-15950000D02*
X13350000Y-16050000D01*
X13450000Y-16000000D02*
G75*
G02*
X13350000Y-16000000I-50000J0D01*
G01*
X13350000Y-16000000D02*
G75*
G02*
X13450000Y-16000000I50000J0D01*
G01*
X13350000Y-16204000D02*
X13450000Y-16304000D01*
X13450000Y-16204000D02*
X13350000Y-16304000D01*
X13450000Y-16254000D02*
G75*
G02*
X13350000Y-16254000I-50000J0D01*
G01*
X13350000Y-16254000D02*
G75*
G02*
X13450000Y-16254000I50000J0D01*
G01*
X13405000Y-7122500D02*
X13505000Y-7222500D01*
X13505000Y-7122500D02*
X13405000Y-7222500D01*
X13505000Y-7172500D02*
G75*
G02*
X13405000Y-7172500I-50000J0D01*
G01*
X13405000Y-7172500D02*
G75*
G02*
X13505000Y-7172500I50000J0D01*
G01*
X13501500Y-11250000D02*
X13601500Y-11350000D01*
X13601500Y-11250000D02*
X13501500Y-11350000D01*
X13601500Y-11300000D02*
G75*
G02*
X13501500Y-11300000I-50000J0D01*
G01*
X13501500Y-11300000D02*
G75*
G02*
X13601500Y-11300000I50000J0D01*
G01*
X13710000Y-15697500D02*
X13810000Y-15797500D01*
X13810000Y-15697500D02*
X13710000Y-15797500D01*
X13810000Y-15747500D02*
G75*
G02*
X13710000Y-15747500I-50000J0D01*
G01*
X13710000Y-15747500D02*
G75*
G02*
X13810000Y-15747500I50000J0D01*
G01*
X13710000Y-15951500D02*
X13810000Y-16051500D01*
X13810000Y-15951500D02*
X13710000Y-16051500D01*
X13810000Y-16001500D02*
G75*
G02*
X13710000Y-16001500I-50000J0D01*
G01*
X13710000Y-16001500D02*
G75*
G02*
X13810000Y-16001500I50000J0D01*
G01*
X13710000Y-16205500D02*
X13810000Y-16305500D01*
X13810000Y-16205500D02*
X13710000Y-16305500D01*
X13810000Y-16255500D02*
G75*
G02*
X13710000Y-16255500I-50000J0D01*
G01*
X13710000Y-16255500D02*
G75*
G02*
X13810000Y-16255500I50000J0D01*
G01*
X13747500Y-9850000D02*
X13847500Y-9950000D01*
X13847500Y-9850000D02*
X13747500Y-9950000D01*
X13847500Y-9900000D02*
G75*
G02*
X13747500Y-9900000I-50000J0D01*
G01*
X13747500Y-9900000D02*
G75*
G02*
X13847500Y-9900000I50000J0D01*
G01*
X13755500Y-11250000D02*
X13855500Y-11350000D01*
X13855500Y-11250000D02*
X13755500Y-11350000D01*
X13855500Y-11300000D02*
G75*
G02*
X13755500Y-11300000I-50000J0D01*
G01*
X13755500Y-11300000D02*
G75*
G02*
X13855500Y-11300000I50000J0D01*
G01*
X13905000Y-7122500D02*
X14005000Y-7222500D01*
X14005000Y-7122500D02*
X13905000Y-7222500D01*
X14005000Y-7172500D02*
G75*
G02*
X13905000Y-7172500I-50000J0D01*
G01*
X13905000Y-7172500D02*
G75*
G02*
X14005000Y-7172500I50000J0D01*
G01*
X14001500Y-9850000D02*
X14101500Y-9950000D01*
X14101500Y-9850000D02*
X14001500Y-9950000D01*
X14101500Y-9900000D02*
G75*
G02*
X14001500Y-9900000I-50000J0D01*
G01*
X14001500Y-9900000D02*
G75*
G02*
X14101500Y-9900000I50000J0D01*
G01*
X14070000Y-15696000D02*
X14170000Y-15796000D01*
X14170000Y-15696000D02*
X14070000Y-15796000D01*
X14170000Y-15746000D02*
G75*
G02*
X14070000Y-15746000I-50000J0D01*
G01*
X14070000Y-15746000D02*
G75*
G02*
X14170000Y-15746000I50000J0D01*
G01*
X14070000Y-15950000D02*
X14170000Y-16050000D01*
X14170000Y-15950000D02*
X14070000Y-16050000D01*
X14170000Y-16000000D02*
G75*
G02*
X14070000Y-16000000I-50000J0D01*
G01*
X14070000Y-16000000D02*
G75*
G02*
X14170000Y-16000000I50000J0D01*
G01*
X14070000Y-16204000D02*
X14170000Y-16304000D01*
X14170000Y-16204000D02*
X14070000Y-16304000D01*
X14170000Y-16254000D02*
G75*
G02*
X14070000Y-16254000I-50000J0D01*
G01*
X14070000Y-16254000D02*
G75*
G02*
X14170000Y-16254000I50000J0D01*
G01*
X14255500Y-9850000D02*
X14355500Y-9950000D01*
X14355500Y-9850000D02*
X14255500Y-9950000D01*
X14355500Y-9900000D02*
G75*
G02*
X14255500Y-9900000I-50000J0D01*
G01*
X14255500Y-9900000D02*
G75*
G02*
X14355500Y-9900000I50000J0D01*
G01*
X14430000Y-15697500D02*
X14530000Y-15797500D01*
X14530000Y-15697500D02*
X14430000Y-15797500D01*
X14530000Y-15747500D02*
G75*
G02*
X14430000Y-15747500I-50000J0D01*
G01*
X14430000Y-15747500D02*
G75*
G02*
X14530000Y-15747500I50000J0D01*
G01*
X14430000Y-15951500D02*
X14530000Y-16051500D01*
X14530000Y-15951500D02*
X14430000Y-16051500D01*
X14530000Y-16001500D02*
G75*
G02*
X14430000Y-16001500I-50000J0D01*
G01*
X14430000Y-16001500D02*
G75*
G02*
X14530000Y-16001500I50000J0D01*
G01*
X14430000Y-16205500D02*
X14530000Y-16305500D01*
X14530000Y-16205500D02*
X14430000Y-16305500D01*
X14530000Y-16255500D02*
G75*
G02*
X14430000Y-16255500I-50000J0D01*
G01*
X14430000Y-16255500D02*
G75*
G02*
X14530000Y-16255500I50000J0D01*
G01*
D13*
X9924000Y-6176000D02*
X10076000Y-6328000D01*
X10076000Y-6176000D02*
X9924000Y-6328000D01*
X10000000Y-6176000D02*
X10000000Y-6328000D01*
X9924000Y-6252000D02*
X10076000Y-6252000D01*
X9924000Y-6684000D02*
X10076000Y-6836000D01*
X10076000Y-6684000D02*
X9924000Y-6836000D01*
X10000000Y-6684000D02*
X10000000Y-6836000D01*
X9924000Y-6760000D02*
X10076000Y-6760000D01*
X9924000Y-7224000D02*
X10076000Y-7376000D01*
X10076000Y-7224000D02*
X9924000Y-7376000D01*
X10000000Y-7224000D02*
X10000000Y-7376000D01*
X9924000Y-7300000D02*
X10076000Y-7300000D01*
X9924000Y-7732000D02*
X10076000Y-7884000D01*
X10076000Y-7732000D02*
X9924000Y-7884000D01*
X10000000Y-7732000D02*
X10000000Y-7884000D01*
X9924000Y-7808000D02*
X10076000Y-7808000D01*
X9924000Y-13336000D02*
X10076000Y-13488000D01*
X10076000Y-13336000D02*
X9924000Y-13488000D01*
X10000000Y-13336000D02*
X10000000Y-13488000D01*
X9924000Y-13412000D02*
X10076000Y-13412000D01*
X9924000Y-13844000D02*
X10076000Y-13996000D01*
X10076000Y-13844000D02*
X9924000Y-13996000D01*
X10000000Y-13844000D02*
X10000000Y-13996000D01*
X9924000Y-13920000D02*
X10076000Y-13920000D01*
X9924000Y-14386000D02*
X10076000Y-14538000D01*
X10076000Y-14386000D02*
X9924000Y-14538000D01*
X10000000Y-14386000D02*
X10000000Y-14538000D01*
X9924000Y-14462000D02*
X10076000Y-14462000D01*
X9924000Y-14894000D02*
X10076000Y-15046000D01*
X10076000Y-14894000D02*
X9924000Y-15046000D01*
X10000000Y-14894000D02*
X10000000Y-15046000D01*
X9924000Y-14970000D02*
X10076000Y-14970000D01*
X10929000Y-4819000D02*
X11081000Y-4971000D01*
X11081000Y-4819000D02*
X10929000Y-4971000D01*
X11005000Y-4819000D02*
X11005000Y-4971000D01*
X10929000Y-4895000D02*
X11081000Y-4895000D01*
X11437000Y-4819000D02*
X11589000Y-4971000D01*
X11589000Y-4819000D02*
X11437000Y-4971000D01*
X11513000Y-4819000D02*
X11513000Y-4971000D01*
X11437000Y-4895000D02*
X11589000Y-4895000D01*
X12221000Y-15934000D02*
X12373000Y-16086000D01*
X12373000Y-15934000D02*
X12221000Y-16086000D01*
X12297000Y-15934000D02*
X12297000Y-16086000D01*
X12221000Y-16010000D02*
X12373000Y-16010000D01*
X12729000Y-15934000D02*
X12881000Y-16086000D01*
X12881000Y-15934000D02*
X12729000Y-16086000D01*
X12805000Y-15934000D02*
X12805000Y-16086000D01*
X12729000Y-16010000D02*
X12881000Y-16010000D01*
X13520000Y-4824000D02*
X13672000Y-4976000D01*
X13672000Y-4824000D02*
X13520000Y-4976000D01*
X13596000Y-4824000D02*
X13596000Y-4976000D01*
X13520000Y-4900000D02*
X13672000Y-4900000D01*
X14028000Y-4824000D02*
X14180000Y-4976000D01*
X14180000Y-4824000D02*
X14028000Y-4976000D01*
X14104000Y-4824000D02*
X14104000Y-4976000D01*
X14028000Y-4900000D02*
X14180000Y-4900000D01*
X15024000Y-6176000D02*
X15176000Y-6328000D01*
X15176000Y-6176000D02*
X15024000Y-6328000D01*
X15100000Y-6176000D02*
X15100000Y-6328000D01*
X15024000Y-6252000D02*
X15176000Y-6252000D01*
X15024000Y-6684000D02*
X15176000Y-6836000D01*
X15176000Y-6684000D02*
X15024000Y-6836000D01*
X15100000Y-6684000D02*
X15100000Y-6836000D01*
X15024000Y-6760000D02*
X15176000Y-6760000D01*
X15024000Y-7230000D02*
X15176000Y-7382000D01*
X15176000Y-7230000D02*
X15024000Y-7382000D01*
X15100000Y-7230000D02*
X15100000Y-7382000D01*
X15024000Y-7306000D02*
X15176000Y-7306000D01*
X15024000Y-7738000D02*
X15176000Y-7890000D01*
X15176000Y-7738000D02*
X15024000Y-7890000D01*
X15100000Y-7738000D02*
X15100000Y-7890000D01*
X15024000Y-7814000D02*
X15176000Y-7814000D01*
X15024000Y-13330000D02*
X15176000Y-13482000D01*
X15176000Y-13330000D02*
X15024000Y-13482000D01*
X15100000Y-13330000D02*
X15100000Y-13482000D01*
X15024000Y-13406000D02*
X15176000Y-13406000D01*
X15024000Y-13838000D02*
X15176000Y-13990000D01*
X15176000Y-13838000D02*
X15024000Y-13990000D01*
X15100000Y-13838000D02*
X15100000Y-13990000D01*
X15024000Y-13914000D02*
X15176000Y-13914000D01*
X15024000Y-14382000D02*
X15176000Y-14534000D01*
X15176000Y-14382000D02*
X15024000Y-14534000D01*
X15100000Y-14382000D02*
X15100000Y-14534000D01*
X15024000Y-14458000D02*
X15176000Y-14458000D01*
X15024000Y-14890000D02*
X15176000Y-15042000D01*
X15176000Y-14890000D02*
X15024000Y-15042000D01*
X15100000Y-14890000D02*
X15100000Y-15042000D01*
X15024000Y-14966000D02*
X15176000Y-14966000D01*
D14*
X9840000Y-4740000D02*
X10160000Y-5060000D01*
X10160000Y-4740000D02*
X9840000Y-5060000D01*
X10113138Y-5013138D02*
X10113138Y-4786862D01*
X9886862Y-4786862D01*
X9886862Y-5013138D01*
X10113138Y-5013138D01*
X9840000Y-15840000D02*
X10160000Y-16160000D01*
X10160000Y-15840000D02*
X9840000Y-16160000D01*
X10113138Y-16113138D02*
X10113138Y-15886862D01*
X9886862Y-15886862D01*
X9886862Y-16113138D01*
X10113138Y-16113138D01*
X14940000Y-4740000D02*
X15260000Y-5060000D01*
X15260000Y-4740000D02*
X14940000Y-5060000D01*
X15213138Y-5013138D02*
X15213138Y-4786862D01*
X14986862Y-4786862D01*
X14986862Y-5013138D01*
X15213138Y-5013138D01*
X14940000Y-15840000D02*
X15260000Y-16160000D01*
X15260000Y-15840000D02*
X14940000Y-16160000D01*
X15213138Y-16113138D02*
X15213138Y-15886862D01*
X14986862Y-15886862D01*
X14986862Y-16113138D01*
X15213138Y-16113138D01*
D11*
X9803278Y-16773184D02*
X9803278Y-16573184D01*
X9803278Y-16573184D02*
X9850897Y-16573184D01*
X9850897Y-16573184D02*
X9879468Y-16582707D01*
X9879468Y-16582707D02*
X9898516Y-16601755D01*
X9898516Y-16601755D02*
X9908040Y-16620803D01*
X9908040Y-16620803D02*
X9917563Y-16658898D01*
X9917563Y-16658898D02*
X9917563Y-16687469D01*
X9917563Y-16687469D02*
X9908040Y-16725565D01*
X9908040Y-16725565D02*
X9898516Y-16744612D01*
X9898516Y-16744612D02*
X9879468Y-16763660D01*
X9879468Y-16763660D02*
X9850897Y-16773184D01*
X9850897Y-16773184D02*
X9803278Y-16773184D01*
X10003278Y-16773184D02*
X10003278Y-16639850D01*
X10003278Y-16677946D02*
X10012801Y-16658898D01*
X10012801Y-16658898D02*
X10022325Y-16649374D01*
X10022325Y-16649374D02*
X10041373Y-16639850D01*
X10041373Y-16639850D02*
X10060421Y-16639850D01*
X10127087Y-16773184D02*
X10127087Y-16639850D01*
X10127087Y-16573184D02*
X10117563Y-16582707D01*
X10117563Y-16582707D02*
X10127087Y-16592231D01*
X10127087Y-16592231D02*
X10136611Y-16582707D01*
X10136611Y-16582707D02*
X10127087Y-16573184D01*
X10127087Y-16573184D02*
X10127087Y-16592231D01*
X10250897Y-16773184D02*
X10231849Y-16763660D01*
X10231849Y-16763660D02*
X10222325Y-16744612D01*
X10222325Y-16744612D02*
X10222325Y-16573184D01*
X10355659Y-16773184D02*
X10336611Y-16763660D01*
X10336611Y-16763660D02*
X10327087Y-16744612D01*
X10327087Y-16744612D02*
X10327087Y-16573184D01*
X10584230Y-16773184D02*
X10584230Y-16573184D01*
X10584230Y-16573184D02*
X10650897Y-16716041D01*
X10650897Y-16716041D02*
X10717563Y-16573184D01*
X10717563Y-16573184D02*
X10717563Y-16773184D01*
X10898516Y-16773184D02*
X10898516Y-16668422D01*
X10898516Y-16668422D02*
X10888992Y-16649374D01*
X10888992Y-16649374D02*
X10869944Y-16639850D01*
X10869944Y-16639850D02*
X10831849Y-16639850D01*
X10831849Y-16639850D02*
X10812801Y-16649374D01*
X10898516Y-16763660D02*
X10879468Y-16773184D01*
X10879468Y-16773184D02*
X10831849Y-16773184D01*
X10831849Y-16773184D02*
X10812801Y-16763660D01*
X10812801Y-16763660D02*
X10803278Y-16744612D01*
X10803278Y-16744612D02*
X10803278Y-16725565D01*
X10803278Y-16725565D02*
X10812801Y-16706517D01*
X10812801Y-16706517D02*
X10831849Y-16696993D01*
X10831849Y-16696993D02*
X10879468Y-16696993D01*
X10879468Y-16696993D02*
X10898516Y-16687469D01*
X10993754Y-16639850D02*
X10993754Y-16839850D01*
X10993754Y-16649374D02*
X11012801Y-16639850D01*
X11012801Y-16639850D02*
X11050897Y-16639850D01*
X11050897Y-16639850D02*
X11069944Y-16649374D01*
X11069944Y-16649374D02*
X11079468Y-16658898D01*
X11079468Y-16658898D02*
X11088992Y-16677946D01*
X11088992Y-16677946D02*
X11088992Y-16735088D01*
X11088992Y-16735088D02*
X11079468Y-16754136D01*
X11079468Y-16754136D02*
X11069944Y-16763660D01*
X11069944Y-16763660D02*
X11050897Y-16773184D01*
X11050897Y-16773184D02*
X11012801Y-16773184D01*
X11012801Y-16773184D02*
X10993754Y-16763660D01*
X11174706Y-16754136D02*
X11184230Y-16763660D01*
X11184230Y-16763660D02*
X11174706Y-16773184D01*
X11174706Y-16773184D02*
X11165182Y-16763660D01*
X11165182Y-16763660D02*
X11174706Y-16754136D01*
X11174706Y-16754136D02*
X11174706Y-16773184D01*
X11174706Y-16649374D02*
X11184230Y-16658898D01*
X11184230Y-16658898D02*
X11174706Y-16668422D01*
X11174706Y-16668422D02*
X11165182Y-16658898D01*
X11165182Y-16658898D02*
X11174706Y-16649374D01*
X11174706Y-16649374D02*
X11174706Y-16668422D01*
D12*
X9512501Y-17086700D02*
X9542501Y-17116700D01*
X9542501Y-17086700D02*
X9512501Y-17116700D01*
D11*
X9841373Y-16993184D02*
X9860421Y-16993184D01*
X9860421Y-16993184D02*
X9879468Y-17002708D01*
X9879468Y-17002708D02*
X9888992Y-17012231D01*
X9888992Y-17012231D02*
X9898516Y-17031279D01*
X9898516Y-17031279D02*
X9908040Y-17069374D01*
X9908040Y-17069374D02*
X9908040Y-17116993D01*
X9908040Y-17116993D02*
X9898516Y-17155088D01*
X9898516Y-17155088D02*
X9888992Y-17174136D01*
X9888992Y-17174136D02*
X9879468Y-17183660D01*
X9879468Y-17183660D02*
X9860421Y-17193184D01*
X9860421Y-17193184D02*
X9841373Y-17193184D01*
X9841373Y-17193184D02*
X9822325Y-17183660D01*
X9822325Y-17183660D02*
X9812801Y-17174136D01*
X9812801Y-17174136D02*
X9803278Y-17155088D01*
X9803278Y-17155088D02*
X9793754Y-17116993D01*
X9793754Y-17116993D02*
X9793754Y-17069374D01*
X9793754Y-17069374D02*
X9803278Y-17031279D01*
X9803278Y-17031279D02*
X9812801Y-17012231D01*
X9812801Y-17012231D02*
X9822325Y-17002708D01*
X9822325Y-17002708D02*
X9841373Y-16993184D01*
X9993754Y-17174136D02*
X10003278Y-17183660D01*
X10003278Y-17183660D02*
X9993754Y-17193184D01*
X9993754Y-17193184D02*
X9984230Y-17183660D01*
X9984230Y-17183660D02*
X9993754Y-17174136D01*
X9993754Y-17174136D02*
X9993754Y-17193184D01*
X10069944Y-16993184D02*
X10193754Y-16993184D01*
X10193754Y-16993184D02*
X10127087Y-17069374D01*
X10127087Y-17069374D02*
X10155659Y-17069374D01*
X10155659Y-17069374D02*
X10174706Y-17078898D01*
X10174706Y-17078898D02*
X10184230Y-17088422D01*
X10184230Y-17088422D02*
X10193754Y-17107469D01*
X10193754Y-17107469D02*
X10193754Y-17155088D01*
X10193754Y-17155088D02*
X10184230Y-17174136D01*
X10184230Y-17174136D02*
X10174706Y-17183660D01*
X10174706Y-17183660D02*
X10155659Y-17193184D01*
X10155659Y-17193184D02*
X10098516Y-17193184D01*
X10098516Y-17193184D02*
X10079468Y-17183660D01*
X10079468Y-17183660D02*
X10069944Y-17174136D01*
X10317563Y-16993184D02*
X10336611Y-16993184D01*
X10336611Y-16993184D02*
X10355659Y-17002708D01*
X10355659Y-17002708D02*
X10365182Y-17012231D01*
X10365182Y-17012231D02*
X10374706Y-17031279D01*
X10374706Y-17031279D02*
X10384230Y-17069374D01*
X10384230Y-17069374D02*
X10384230Y-17116993D01*
X10384230Y-17116993D02*
X10374706Y-17155088D01*
X10374706Y-17155088D02*
X10365182Y-17174136D01*
X10365182Y-17174136D02*
X10355659Y-17183660D01*
X10355659Y-17183660D02*
X10336611Y-17193184D01*
X10336611Y-17193184D02*
X10317563Y-17193184D01*
X10317563Y-17193184D02*
X10298516Y-17183660D01*
X10298516Y-17183660D02*
X10288992Y-17174136D01*
X10288992Y-17174136D02*
X10279468Y-17155088D01*
X10279468Y-17155088D02*
X10269944Y-17116993D01*
X10269944Y-17116993D02*
X10269944Y-17069374D01*
X10269944Y-17069374D02*
X10279468Y-17031279D01*
X10279468Y-17031279D02*
X10288992Y-17012231D01*
X10288992Y-17012231D02*
X10298516Y-17002708D01*
X10298516Y-17002708D02*
X10317563Y-16993184D01*
X10508040Y-16993184D02*
X10527087Y-16993184D01*
X10527087Y-16993184D02*
X10546135Y-17002708D01*
X10546135Y-17002708D02*
X10555659Y-17012231D01*
X10555659Y-17012231D02*
X10565182Y-17031279D01*
X10565182Y-17031279D02*
X10574706Y-17069374D01*
X10574706Y-17069374D02*
X10574706Y-17116993D01*
X10574706Y-17116993D02*
X10565182Y-17155088D01*
X10565182Y-17155088D02*
X10555659Y-17174136D01*
X10555659Y-17174136D02*
X10546135Y-17183660D01*
X10546135Y-17183660D02*
X10527087Y-17193184D01*
X10527087Y-17193184D02*
X10508040Y-17193184D01*
X10508040Y-17193184D02*
X10488992Y-17183660D01*
X10488992Y-17183660D02*
X10479468Y-17174136D01*
X10479468Y-17174136D02*
X10469944Y-17155088D01*
X10469944Y-17155088D02*
X10460421Y-17116993D01*
X10460421Y-17116993D02*
X10460421Y-17069374D01*
X10460421Y-17069374D02*
X10469944Y-17031279D01*
X10469944Y-17031279D02*
X10479468Y-17012231D01*
X10479468Y-17012231D02*
X10488992Y-17002708D01*
X10488992Y-17002708D02*
X10508040Y-16993184D01*
X10660421Y-17193184D02*
X10660421Y-17059850D01*
X10660421Y-17078898D02*
X10669944Y-17069374D01*
X10669944Y-17069374D02*
X10688992Y-17059850D01*
X10688992Y-17059850D02*
X10717563Y-17059850D01*
X10717563Y-17059850D02*
X10736611Y-17069374D01*
X10736611Y-17069374D02*
X10746135Y-17088422D01*
X10746135Y-17088422D02*
X10746135Y-17193184D01*
X10746135Y-17088422D02*
X10755659Y-17069374D01*
X10755659Y-17069374D02*
X10774706Y-17059850D01*
X10774706Y-17059850D02*
X10803278Y-17059850D01*
X10803278Y-17059850D02*
X10822325Y-17069374D01*
X10822325Y-17069374D02*
X10831849Y-17088422D01*
X10831849Y-17088422D02*
X10831849Y-17193184D01*
X10927087Y-17193184D02*
X10927087Y-17059850D01*
X10927087Y-17078898D02*
X10936611Y-17069374D01*
X10936611Y-17069374D02*
X10955659Y-17059850D01*
X10955659Y-17059850D02*
X10984230Y-17059850D01*
X10984230Y-17059850D02*
X11003278Y-17069374D01*
X11003278Y-17069374D02*
X11012802Y-17088422D01*
X11012802Y-17088422D02*
X11012802Y-17193184D01*
X11012802Y-17088422D02*
X11022325Y-17069374D01*
X11022325Y-17069374D02*
X11041373Y-17059850D01*
X11041373Y-17059850D02*
X11069944Y-17059850D01*
X11069944Y-17059850D02*
X11088992Y-17069374D01*
X11088992Y-17069374D02*
X11098516Y-17088422D01*
X11098516Y-17088422D02*
X11098516Y-17193184D01*
X11488992Y-16983660D02*
X11317563Y-17240803D01*
X11746135Y-16993184D02*
X11765183Y-16993184D01*
X11765183Y-16993184D02*
X11784230Y-17002708D01*
X11784230Y-17002708D02*
X11793754Y-17012231D01*
X11793754Y-17012231D02*
X11803278Y-17031279D01*
X11803278Y-17031279D02*
X11812802Y-17069374D01*
X11812802Y-17069374D02*
X11812802Y-17116993D01*
X11812802Y-17116993D02*
X11803278Y-17155088D01*
X11803278Y-17155088D02*
X11793754Y-17174136D01*
X11793754Y-17174136D02*
X11784230Y-17183660D01*
X11784230Y-17183660D02*
X11765183Y-17193184D01*
X11765183Y-17193184D02*
X11746135Y-17193184D01*
X11746135Y-17193184D02*
X11727087Y-17183660D01*
X11727087Y-17183660D02*
X11717563Y-17174136D01*
X11717563Y-17174136D02*
X11708040Y-17155088D01*
X11708040Y-17155088D02*
X11698516Y-17116993D01*
X11698516Y-17116993D02*
X11698516Y-17069374D01*
X11698516Y-17069374D02*
X11708040Y-17031279D01*
X11708040Y-17031279D02*
X11717563Y-17012231D01*
X11717563Y-17012231D02*
X11727087Y-17002708D01*
X11727087Y-17002708D02*
X11746135Y-16993184D01*
X11898516Y-17174136D02*
X11908040Y-17183660D01*
X11908040Y-17183660D02*
X11898516Y-17193184D01*
X11898516Y-17193184D02*
X11888992Y-17183660D01*
X11888992Y-17183660D02*
X11898516Y-17174136D01*
X11898516Y-17174136D02*
X11898516Y-17193184D01*
X12031849Y-16993184D02*
X12050897Y-16993184D01*
X12050897Y-16993184D02*
X12069944Y-17002708D01*
X12069944Y-17002708D02*
X12079468Y-17012231D01*
X12079468Y-17012231D02*
X12088992Y-17031279D01*
X12088992Y-17031279D02*
X12098516Y-17069374D01*
X12098516Y-17069374D02*
X12098516Y-17116993D01*
X12098516Y-17116993D02*
X12088992Y-17155088D01*
X12088992Y-17155088D02*
X12079468Y-17174136D01*
X12079468Y-17174136D02*
X12069944Y-17183660D01*
X12069944Y-17183660D02*
X12050897Y-17193184D01*
X12050897Y-17193184D02*
X12031849Y-17193184D01*
X12031849Y-17193184D02*
X12012802Y-17183660D01*
X12012802Y-17183660D02*
X12003278Y-17174136D01*
X12003278Y-17174136D02*
X11993754Y-17155088D01*
X11993754Y-17155088D02*
X11984230Y-17116993D01*
X11984230Y-17116993D02*
X11984230Y-17069374D01*
X11984230Y-17069374D02*
X11993754Y-17031279D01*
X11993754Y-17031279D02*
X12003278Y-17012231D01*
X12003278Y-17012231D02*
X12012802Y-17002708D01*
X12012802Y-17002708D02*
X12031849Y-16993184D01*
X12288992Y-17193184D02*
X12174706Y-17193184D01*
X12231849Y-17193184D02*
X12231849Y-16993184D01*
X12231849Y-16993184D02*
X12212802Y-17021755D01*
X12212802Y-17021755D02*
X12193754Y-17040803D01*
X12193754Y-17040803D02*
X12174706Y-17050327D01*
X12479468Y-17193184D02*
X12365183Y-17193184D01*
X12422325Y-17193184D02*
X12422325Y-16993184D01*
X12422325Y-16993184D02*
X12403278Y-17021755D01*
X12403278Y-17021755D02*
X12384230Y-17040803D01*
X12384230Y-17040803D02*
X12365183Y-17050327D01*
X12593754Y-17078898D02*
X12574706Y-17069374D01*
X12574706Y-17069374D02*
X12565183Y-17059850D01*
X12565183Y-17059850D02*
X12555659Y-17040803D01*
X12555659Y-17040803D02*
X12555659Y-17031279D01*
X12555659Y-17031279D02*
X12565183Y-17012231D01*
X12565183Y-17012231D02*
X12574706Y-17002708D01*
X12574706Y-17002708D02*
X12593754Y-16993184D01*
X12593754Y-16993184D02*
X12631849Y-16993184D01*
X12631849Y-16993184D02*
X12650897Y-17002708D01*
X12650897Y-17002708D02*
X12660421Y-17012231D01*
X12660421Y-17012231D02*
X12669944Y-17031279D01*
X12669944Y-17031279D02*
X12669944Y-17040803D01*
X12669944Y-17040803D02*
X12660421Y-17059850D01*
X12660421Y-17059850D02*
X12650897Y-17069374D01*
X12650897Y-17069374D02*
X12631849Y-17078898D01*
X12631849Y-17078898D02*
X12593754Y-17078898D01*
X12593754Y-17078898D02*
X12574706Y-17088422D01*
X12574706Y-17088422D02*
X12565183Y-17097946D01*
X12565183Y-17097946D02*
X12555659Y-17116993D01*
X12555659Y-17116993D02*
X12555659Y-17155088D01*
X12555659Y-17155088D02*
X12565183Y-17174136D01*
X12565183Y-17174136D02*
X12574706Y-17183660D01*
X12574706Y-17183660D02*
X12593754Y-17193184D01*
X12593754Y-17193184D02*
X12631849Y-17193184D01*
X12631849Y-17193184D02*
X12650897Y-17183660D01*
X12650897Y-17183660D02*
X12660421Y-17174136D01*
X12660421Y-17174136D02*
X12669944Y-17155088D01*
X12669944Y-17155088D02*
X12669944Y-17116993D01*
X12669944Y-17116993D02*
X12660421Y-17097946D01*
X12660421Y-17097946D02*
X12650897Y-17088422D01*
X12650897Y-17088422D02*
X12631849Y-17078898D01*
X12746135Y-16993184D02*
X12746135Y-17031279D01*
X12822325Y-16993184D02*
X12822325Y-17031279D01*
X13117564Y-17269374D02*
X13108040Y-17259850D01*
X13108040Y-17259850D02*
X13088992Y-17231279D01*
X13088992Y-17231279D02*
X13079468Y-17212231D01*
X13079468Y-17212231D02*
X13069945Y-17183660D01*
X13069945Y-17183660D02*
X13060421Y-17136041D01*
X13060421Y-17136041D02*
X13060421Y-17097946D01*
X13060421Y-17097946D02*
X13069945Y-17050327D01*
X13069945Y-17050327D02*
X13079468Y-17021755D01*
X13079468Y-17021755D02*
X13088992Y-17002708D01*
X13088992Y-17002708D02*
X13108040Y-16974136D01*
X13108040Y-16974136D02*
X13117564Y-16964612D01*
X13184230Y-17012231D02*
X13193754Y-17002708D01*
X13193754Y-17002708D02*
X13212802Y-16993184D01*
X13212802Y-16993184D02*
X13260421Y-16993184D01*
X13260421Y-16993184D02*
X13279468Y-17002708D01*
X13279468Y-17002708D02*
X13288992Y-17012231D01*
X13288992Y-17012231D02*
X13298516Y-17031279D01*
X13298516Y-17031279D02*
X13298516Y-17050327D01*
X13298516Y-17050327D02*
X13288992Y-17078898D01*
X13288992Y-17078898D02*
X13174706Y-17193184D01*
X13174706Y-17193184D02*
X13298516Y-17193184D01*
X13412802Y-17078898D02*
X13393754Y-17069374D01*
X13393754Y-17069374D02*
X13384230Y-17059850D01*
X13384230Y-17059850D02*
X13374706Y-17040803D01*
X13374706Y-17040803D02*
X13374706Y-17031279D01*
X13374706Y-17031279D02*
X13384230Y-17012231D01*
X13384230Y-17012231D02*
X13393754Y-17002708D01*
X13393754Y-17002708D02*
X13412802Y-16993184D01*
X13412802Y-16993184D02*
X13450897Y-16993184D01*
X13450897Y-16993184D02*
X13469945Y-17002708D01*
X13469945Y-17002708D02*
X13479468Y-17012231D01*
X13479468Y-17012231D02*
X13488992Y-17031279D01*
X13488992Y-17031279D02*
X13488992Y-17040803D01*
X13488992Y-17040803D02*
X13479468Y-17059850D01*
X13479468Y-17059850D02*
X13469945Y-17069374D01*
X13469945Y-17069374D02*
X13450897Y-17078898D01*
X13450897Y-17078898D02*
X13412802Y-17078898D01*
X13412802Y-17078898D02*
X13393754Y-17088422D01*
X13393754Y-17088422D02*
X13384230Y-17097946D01*
X13384230Y-17097946D02*
X13374706Y-17116993D01*
X13374706Y-17116993D02*
X13374706Y-17155088D01*
X13374706Y-17155088D02*
X13384230Y-17174136D01*
X13384230Y-17174136D02*
X13393754Y-17183660D01*
X13393754Y-17183660D02*
X13412802Y-17193184D01*
X13412802Y-17193184D02*
X13450897Y-17193184D01*
X13450897Y-17193184D02*
X13469945Y-17183660D01*
X13469945Y-17183660D02*
X13479468Y-17174136D01*
X13479468Y-17174136D02*
X13488992Y-17155088D01*
X13488992Y-17155088D02*
X13488992Y-17116993D01*
X13488992Y-17116993D02*
X13479468Y-17097946D01*
X13479468Y-17097946D02*
X13469945Y-17088422D01*
X13469945Y-17088422D02*
X13450897Y-17078898D01*
X13660421Y-17059850D02*
X13660421Y-17193184D01*
X13612802Y-16983660D02*
X13565183Y-17126517D01*
X13565183Y-17126517D02*
X13688992Y-17126517D01*
X13917564Y-17193184D02*
X13917564Y-16993184D01*
X14003278Y-17193184D02*
X14003278Y-17088422D01*
X14003278Y-17088422D02*
X13993754Y-17069374D01*
X13993754Y-17069374D02*
X13974707Y-17059850D01*
X13974707Y-17059850D02*
X13946135Y-17059850D01*
X13946135Y-17059850D02*
X13927087Y-17069374D01*
X13927087Y-17069374D02*
X13917564Y-17078898D01*
X14127087Y-17193184D02*
X14108040Y-17183660D01*
X14108040Y-17183660D02*
X14098516Y-17174136D01*
X14098516Y-17174136D02*
X14088992Y-17155088D01*
X14088992Y-17155088D02*
X14088992Y-17097946D01*
X14088992Y-17097946D02*
X14098516Y-17078898D01*
X14098516Y-17078898D02*
X14108040Y-17069374D01*
X14108040Y-17069374D02*
X14127087Y-17059850D01*
X14127087Y-17059850D02*
X14155659Y-17059850D01*
X14155659Y-17059850D02*
X14174707Y-17069374D01*
X14174707Y-17069374D02*
X14184230Y-17078898D01*
X14184230Y-17078898D02*
X14193754Y-17097946D01*
X14193754Y-17097946D02*
X14193754Y-17155088D01*
X14193754Y-17155088D02*
X14184230Y-17174136D01*
X14184230Y-17174136D02*
X14174707Y-17183660D01*
X14174707Y-17183660D02*
X14155659Y-17193184D01*
X14155659Y-17193184D02*
X14127087Y-17193184D01*
X14308040Y-17193184D02*
X14288992Y-17183660D01*
X14288992Y-17183660D02*
X14279468Y-17164612D01*
X14279468Y-17164612D02*
X14279468Y-16993184D01*
X14460421Y-17183660D02*
X14441373Y-17193184D01*
X14441373Y-17193184D02*
X14403278Y-17193184D01*
X14403278Y-17193184D02*
X14384230Y-17183660D01*
X14384230Y-17183660D02*
X14374707Y-17164612D01*
X14374707Y-17164612D02*
X14374707Y-17088422D01*
X14374707Y-17088422D02*
X14384230Y-17069374D01*
X14384230Y-17069374D02*
X14403278Y-17059850D01*
X14403278Y-17059850D02*
X14441373Y-17059850D01*
X14441373Y-17059850D02*
X14460421Y-17069374D01*
X14460421Y-17069374D02*
X14469945Y-17088422D01*
X14469945Y-17088422D02*
X14469945Y-17107469D01*
X14469945Y-17107469D02*
X14374707Y-17126517D01*
X14546135Y-17183660D02*
X14565183Y-17193184D01*
X14565183Y-17193184D02*
X14603278Y-17193184D01*
X14603278Y-17193184D02*
X14622326Y-17183660D01*
X14622326Y-17183660D02*
X14631849Y-17164612D01*
X14631849Y-17164612D02*
X14631849Y-17155088D01*
X14631849Y-17155088D02*
X14622326Y-17136041D01*
X14622326Y-17136041D02*
X14603278Y-17126517D01*
X14603278Y-17126517D02*
X14574707Y-17126517D01*
X14574707Y-17126517D02*
X14555659Y-17116993D01*
X14555659Y-17116993D02*
X14546135Y-17097946D01*
X14546135Y-17097946D02*
X14546135Y-17088422D01*
X14546135Y-17088422D02*
X14555659Y-17069374D01*
X14555659Y-17069374D02*
X14574707Y-17059850D01*
X14574707Y-17059850D02*
X14603278Y-17059850D01*
X14603278Y-17059850D02*
X14622326Y-17069374D01*
X14698516Y-17269374D02*
X14708040Y-17259850D01*
X14708040Y-17259850D02*
X14727088Y-17231279D01*
X14727088Y-17231279D02*
X14736611Y-17212231D01*
X14736611Y-17212231D02*
X14746135Y-17183660D01*
X14746135Y-17183660D02*
X14755659Y-17136041D01*
X14755659Y-17136041D02*
X14755659Y-17097946D01*
X14755659Y-17097946D02*
X14746135Y-17050327D01*
X14746135Y-17050327D02*
X14736611Y-17021755D01*
X14736611Y-17021755D02*
X14727088Y-17002708D01*
X14727088Y-17002708D02*
X14708040Y-16974136D01*
X14708040Y-16974136D02*
X14698516Y-16964612D01*
D12*
X9542501Y-17365700D02*
G75*
G02*
X9482501Y-17365700I-30000J0D01*
G01*
X9482501Y-17365700D02*
G75*
G02*
X9542501Y-17365700I30000J0D01*
G01*
D11*
X9841373Y-17257184D02*
X9860421Y-17257184D01*
X9860421Y-17257184D02*
X9879468Y-17266708D01*
X9879468Y-17266708D02*
X9888992Y-17276231D01*
X9888992Y-17276231D02*
X9898516Y-17295279D01*
X9898516Y-17295279D02*
X9908040Y-17333374D01*
X9908040Y-17333374D02*
X9908040Y-17380993D01*
X9908040Y-17380993D02*
X9898516Y-17419088D01*
X9898516Y-17419088D02*
X9888992Y-17438136D01*
X9888992Y-17438136D02*
X9879468Y-17447660D01*
X9879468Y-17447660D02*
X9860421Y-17457184D01*
X9860421Y-17457184D02*
X9841373Y-17457184D01*
X9841373Y-17457184D02*
X9822325Y-17447660D01*
X9822325Y-17447660D02*
X9812801Y-17438136D01*
X9812801Y-17438136D02*
X9803278Y-17419088D01*
X9803278Y-17419088D02*
X9793754Y-17380993D01*
X9793754Y-17380993D02*
X9793754Y-17333374D01*
X9793754Y-17333374D02*
X9803278Y-17295279D01*
X9803278Y-17295279D02*
X9812801Y-17276231D01*
X9812801Y-17276231D02*
X9822325Y-17266708D01*
X9822325Y-17266708D02*
X9841373Y-17257184D01*
X9993754Y-17438136D02*
X10003278Y-17447660D01*
X10003278Y-17447660D02*
X9993754Y-17457184D01*
X9993754Y-17457184D02*
X9984230Y-17447660D01*
X9984230Y-17447660D02*
X9993754Y-17438136D01*
X9993754Y-17438136D02*
X9993754Y-17457184D01*
X10174706Y-17257184D02*
X10136611Y-17257184D01*
X10136611Y-17257184D02*
X10117563Y-17266708D01*
X10117563Y-17266708D02*
X10108040Y-17276231D01*
X10108040Y-17276231D02*
X10088992Y-17304803D01*
X10088992Y-17304803D02*
X10079468Y-17342898D01*
X10079468Y-17342898D02*
X10079468Y-17419088D01*
X10079468Y-17419088D02*
X10088992Y-17438136D01*
X10088992Y-17438136D02*
X10098516Y-17447660D01*
X10098516Y-17447660D02*
X10117563Y-17457184D01*
X10117563Y-17457184D02*
X10155659Y-17457184D01*
X10155659Y-17457184D02*
X10174706Y-17447660D01*
X10174706Y-17447660D02*
X10184230Y-17438136D01*
X10184230Y-17438136D02*
X10193754Y-17419088D01*
X10193754Y-17419088D02*
X10193754Y-17371469D01*
X10193754Y-17371469D02*
X10184230Y-17352422D01*
X10184230Y-17352422D02*
X10174706Y-17342898D01*
X10174706Y-17342898D02*
X10155659Y-17333374D01*
X10155659Y-17333374D02*
X10117563Y-17333374D01*
X10117563Y-17333374D02*
X10098516Y-17342898D01*
X10098516Y-17342898D02*
X10088992Y-17352422D01*
X10088992Y-17352422D02*
X10079468Y-17371469D01*
X10317563Y-17257184D02*
X10336611Y-17257184D01*
X10336611Y-17257184D02*
X10355659Y-17266708D01*
X10355659Y-17266708D02*
X10365182Y-17276231D01*
X10365182Y-17276231D02*
X10374706Y-17295279D01*
X10374706Y-17295279D02*
X10384230Y-17333374D01*
X10384230Y-17333374D02*
X10384230Y-17380993D01*
X10384230Y-17380993D02*
X10374706Y-17419088D01*
X10374706Y-17419088D02*
X10365182Y-17438136D01*
X10365182Y-17438136D02*
X10355659Y-17447660D01*
X10355659Y-17447660D02*
X10336611Y-17457184D01*
X10336611Y-17457184D02*
X10317563Y-17457184D01*
X10317563Y-17457184D02*
X10298516Y-17447660D01*
X10298516Y-17447660D02*
X10288992Y-17438136D01*
X10288992Y-17438136D02*
X10279468Y-17419088D01*
X10279468Y-17419088D02*
X10269944Y-17380993D01*
X10269944Y-17380993D02*
X10269944Y-17333374D01*
X10269944Y-17333374D02*
X10279468Y-17295279D01*
X10279468Y-17295279D02*
X10288992Y-17276231D01*
X10288992Y-17276231D02*
X10298516Y-17266708D01*
X10298516Y-17266708D02*
X10317563Y-17257184D01*
X10508040Y-17257184D02*
X10527087Y-17257184D01*
X10527087Y-17257184D02*
X10546135Y-17266708D01*
X10546135Y-17266708D02*
X10555659Y-17276231D01*
X10555659Y-17276231D02*
X10565182Y-17295279D01*
X10565182Y-17295279D02*
X10574706Y-17333374D01*
X10574706Y-17333374D02*
X10574706Y-17380993D01*
X10574706Y-17380993D02*
X10565182Y-17419088D01*
X10565182Y-17419088D02*
X10555659Y-17438136D01*
X10555659Y-17438136D02*
X10546135Y-17447660D01*
X10546135Y-17447660D02*
X10527087Y-17457184D01*
X10527087Y-17457184D02*
X10508040Y-17457184D01*
X10508040Y-17457184D02*
X10488992Y-17447660D01*
X10488992Y-17447660D02*
X10479468Y-17438136D01*
X10479468Y-17438136D02*
X10469944Y-17419088D01*
X10469944Y-17419088D02*
X10460421Y-17380993D01*
X10460421Y-17380993D02*
X10460421Y-17333374D01*
X10460421Y-17333374D02*
X10469944Y-17295279D01*
X10469944Y-17295279D02*
X10479468Y-17276231D01*
X10479468Y-17276231D02*
X10488992Y-17266708D01*
X10488992Y-17266708D02*
X10508040Y-17257184D01*
X10660421Y-17457184D02*
X10660421Y-17323850D01*
X10660421Y-17342898D02*
X10669944Y-17333374D01*
X10669944Y-17333374D02*
X10688992Y-17323850D01*
X10688992Y-17323850D02*
X10717563Y-17323850D01*
X10717563Y-17323850D02*
X10736611Y-17333374D01*
X10736611Y-17333374D02*
X10746135Y-17352422D01*
X10746135Y-17352422D02*
X10746135Y-17457184D01*
X10746135Y-17352422D02*
X10755659Y-17333374D01*
X10755659Y-17333374D02*
X10774706Y-17323850D01*
X10774706Y-17323850D02*
X10803278Y-17323850D01*
X10803278Y-17323850D02*
X10822325Y-17333374D01*
X10822325Y-17333374D02*
X10831849Y-17352422D01*
X10831849Y-17352422D02*
X10831849Y-17457184D01*
X10927087Y-17457184D02*
X10927087Y-17323850D01*
X10927087Y-17342898D02*
X10936611Y-17333374D01*
X10936611Y-17333374D02*
X10955659Y-17323850D01*
X10955659Y-17323850D02*
X10984230Y-17323850D01*
X10984230Y-17323850D02*
X11003278Y-17333374D01*
X11003278Y-17333374D02*
X11012802Y-17352422D01*
X11012802Y-17352422D02*
X11012802Y-17457184D01*
X11012802Y-17352422D02*
X11022325Y-17333374D01*
X11022325Y-17333374D02*
X11041373Y-17323850D01*
X11041373Y-17323850D02*
X11069944Y-17323850D01*
X11069944Y-17323850D02*
X11088992Y-17333374D01*
X11088992Y-17333374D02*
X11098516Y-17352422D01*
X11098516Y-17352422D02*
X11098516Y-17457184D01*
X11488992Y-17247660D02*
X11317563Y-17504803D01*
X11746135Y-17257184D02*
X11765183Y-17257184D01*
X11765183Y-17257184D02*
X11784230Y-17266708D01*
X11784230Y-17266708D02*
X11793754Y-17276231D01*
X11793754Y-17276231D02*
X11803278Y-17295279D01*
X11803278Y-17295279D02*
X11812802Y-17333374D01*
X11812802Y-17333374D02*
X11812802Y-17380993D01*
X11812802Y-17380993D02*
X11803278Y-17419088D01*
X11803278Y-17419088D02*
X11793754Y-17438136D01*
X11793754Y-17438136D02*
X11784230Y-17447660D01*
X11784230Y-17447660D02*
X11765183Y-17457184D01*
X11765183Y-17457184D02*
X11746135Y-17457184D01*
X11746135Y-17457184D02*
X11727087Y-17447660D01*
X11727087Y-17447660D02*
X11717563Y-17438136D01*
X11717563Y-17438136D02*
X11708040Y-17419088D01*
X11708040Y-17419088D02*
X11698516Y-17380993D01*
X11698516Y-17380993D02*
X11698516Y-17333374D01*
X11698516Y-17333374D02*
X11708040Y-17295279D01*
X11708040Y-17295279D02*
X11717563Y-17276231D01*
X11717563Y-17276231D02*
X11727087Y-17266708D01*
X11727087Y-17266708D02*
X11746135Y-17257184D01*
X11898516Y-17438136D02*
X11908040Y-17447660D01*
X11908040Y-17447660D02*
X11898516Y-17457184D01*
X11898516Y-17457184D02*
X11888992Y-17447660D01*
X11888992Y-17447660D02*
X11898516Y-17438136D01*
X11898516Y-17438136D02*
X11898516Y-17457184D01*
X12031849Y-17257184D02*
X12050897Y-17257184D01*
X12050897Y-17257184D02*
X12069944Y-17266708D01*
X12069944Y-17266708D02*
X12079468Y-17276231D01*
X12079468Y-17276231D02*
X12088992Y-17295279D01*
X12088992Y-17295279D02*
X12098516Y-17333374D01*
X12098516Y-17333374D02*
X12098516Y-17380993D01*
X12098516Y-17380993D02*
X12088992Y-17419088D01*
X12088992Y-17419088D02*
X12079468Y-17438136D01*
X12079468Y-17438136D02*
X12069944Y-17447660D01*
X12069944Y-17447660D02*
X12050897Y-17457184D01*
X12050897Y-17457184D02*
X12031849Y-17457184D01*
X12031849Y-17457184D02*
X12012802Y-17447660D01*
X12012802Y-17447660D02*
X12003278Y-17438136D01*
X12003278Y-17438136D02*
X11993754Y-17419088D01*
X11993754Y-17419088D02*
X11984230Y-17380993D01*
X11984230Y-17380993D02*
X11984230Y-17333374D01*
X11984230Y-17333374D02*
X11993754Y-17295279D01*
X11993754Y-17295279D02*
X12003278Y-17276231D01*
X12003278Y-17276231D02*
X12012802Y-17266708D01*
X12012802Y-17266708D02*
X12031849Y-17257184D01*
X12174706Y-17276231D02*
X12184230Y-17266708D01*
X12184230Y-17266708D02*
X12203278Y-17257184D01*
X12203278Y-17257184D02*
X12250897Y-17257184D01*
X12250897Y-17257184D02*
X12269944Y-17266708D01*
X12269944Y-17266708D02*
X12279468Y-17276231D01*
X12279468Y-17276231D02*
X12288992Y-17295279D01*
X12288992Y-17295279D02*
X12288992Y-17314327D01*
X12288992Y-17314327D02*
X12279468Y-17342898D01*
X12279468Y-17342898D02*
X12165183Y-17457184D01*
X12165183Y-17457184D02*
X12288992Y-17457184D01*
X12355659Y-17257184D02*
X12479468Y-17257184D01*
X12479468Y-17257184D02*
X12412802Y-17333374D01*
X12412802Y-17333374D02*
X12441373Y-17333374D01*
X12441373Y-17333374D02*
X12460421Y-17342898D01*
X12460421Y-17342898D02*
X12469944Y-17352422D01*
X12469944Y-17352422D02*
X12479468Y-17371469D01*
X12479468Y-17371469D02*
X12479468Y-17419088D01*
X12479468Y-17419088D02*
X12469944Y-17438136D01*
X12469944Y-17438136D02*
X12460421Y-17447660D01*
X12460421Y-17447660D02*
X12441373Y-17457184D01*
X12441373Y-17457184D02*
X12384230Y-17457184D01*
X12384230Y-17457184D02*
X12365183Y-17447660D01*
X12365183Y-17447660D02*
X12355659Y-17438136D01*
X12650897Y-17257184D02*
X12612802Y-17257184D01*
X12612802Y-17257184D02*
X12593754Y-17266708D01*
X12593754Y-17266708D02*
X12584230Y-17276231D01*
X12584230Y-17276231D02*
X12565183Y-17304803D01*
X12565183Y-17304803D02*
X12555659Y-17342898D01*
X12555659Y-17342898D02*
X12555659Y-17419088D01*
X12555659Y-17419088D02*
X12565183Y-17438136D01*
X12565183Y-17438136D02*
X12574706Y-17447660D01*
X12574706Y-17447660D02*
X12593754Y-17457184D01*
X12593754Y-17457184D02*
X12631849Y-17457184D01*
X12631849Y-17457184D02*
X12650897Y-17447660D01*
X12650897Y-17447660D02*
X12660421Y-17438136D01*
X12660421Y-17438136D02*
X12669944Y-17419088D01*
X12669944Y-17419088D02*
X12669944Y-17371469D01*
X12669944Y-17371469D02*
X12660421Y-17352422D01*
X12660421Y-17352422D02*
X12650897Y-17342898D01*
X12650897Y-17342898D02*
X12631849Y-17333374D01*
X12631849Y-17333374D02*
X12593754Y-17333374D01*
X12593754Y-17333374D02*
X12574706Y-17342898D01*
X12574706Y-17342898D02*
X12565183Y-17352422D01*
X12565183Y-17352422D02*
X12555659Y-17371469D01*
X12746135Y-17257184D02*
X12746135Y-17295279D01*
X12822325Y-17257184D02*
X12822325Y-17295279D01*
X13117564Y-17533374D02*
X13108040Y-17523850D01*
X13108040Y-17523850D02*
X13088992Y-17495279D01*
X13088992Y-17495279D02*
X13079468Y-17476231D01*
X13079468Y-17476231D02*
X13069945Y-17447660D01*
X13069945Y-17447660D02*
X13060421Y-17400041D01*
X13060421Y-17400041D02*
X13060421Y-17361946D01*
X13060421Y-17361946D02*
X13069945Y-17314327D01*
X13069945Y-17314327D02*
X13079468Y-17285755D01*
X13079468Y-17285755D02*
X13088992Y-17266708D01*
X13088992Y-17266708D02*
X13108040Y-17238136D01*
X13108040Y-17238136D02*
X13117564Y-17228612D01*
X13231849Y-17257184D02*
X13250897Y-17257184D01*
X13250897Y-17257184D02*
X13269945Y-17266708D01*
X13269945Y-17266708D02*
X13279468Y-17276231D01*
X13279468Y-17276231D02*
X13288992Y-17295279D01*
X13288992Y-17295279D02*
X13298516Y-17333374D01*
X13298516Y-17333374D02*
X13298516Y-17380993D01*
X13298516Y-17380993D02*
X13288992Y-17419088D01*
X13288992Y-17419088D02*
X13279468Y-17438136D01*
X13279468Y-17438136D02*
X13269945Y-17447660D01*
X13269945Y-17447660D02*
X13250897Y-17457184D01*
X13250897Y-17457184D02*
X13231849Y-17457184D01*
X13231849Y-17457184D02*
X13212802Y-17447660D01*
X13212802Y-17447660D02*
X13203278Y-17438136D01*
X13203278Y-17438136D02*
X13193754Y-17419088D01*
X13193754Y-17419088D02*
X13184230Y-17380993D01*
X13184230Y-17380993D02*
X13184230Y-17333374D01*
X13184230Y-17333374D02*
X13193754Y-17295279D01*
X13193754Y-17295279D02*
X13203278Y-17276231D01*
X13203278Y-17276231D02*
X13212802Y-17266708D01*
X13212802Y-17266708D02*
X13231849Y-17257184D01*
X13536611Y-17457184D02*
X13536611Y-17257184D01*
X13622326Y-17457184D02*
X13622326Y-17352422D01*
X13622326Y-17352422D02*
X13612802Y-17333374D01*
X13612802Y-17333374D02*
X13593754Y-17323850D01*
X13593754Y-17323850D02*
X13565183Y-17323850D01*
X13565183Y-17323850D02*
X13546135Y-17333374D01*
X13546135Y-17333374D02*
X13536611Y-17342898D01*
X13746135Y-17457184D02*
X13727087Y-17447660D01*
X13727087Y-17447660D02*
X13717564Y-17438136D01*
X13717564Y-17438136D02*
X13708040Y-17419088D01*
X13708040Y-17419088D02*
X13708040Y-17361946D01*
X13708040Y-17361946D02*
X13717564Y-17342898D01*
X13717564Y-17342898D02*
X13727087Y-17333374D01*
X13727087Y-17333374D02*
X13746135Y-17323850D01*
X13746135Y-17323850D02*
X13774707Y-17323850D01*
X13774707Y-17323850D02*
X13793754Y-17333374D01*
X13793754Y-17333374D02*
X13803278Y-17342898D01*
X13803278Y-17342898D02*
X13812802Y-17361946D01*
X13812802Y-17361946D02*
X13812802Y-17419088D01*
X13812802Y-17419088D02*
X13803278Y-17438136D01*
X13803278Y-17438136D02*
X13793754Y-17447660D01*
X13793754Y-17447660D02*
X13774707Y-17457184D01*
X13774707Y-17457184D02*
X13746135Y-17457184D01*
X13927087Y-17457184D02*
X13908040Y-17447660D01*
X13908040Y-17447660D02*
X13898516Y-17428612D01*
X13898516Y-17428612D02*
X13898516Y-17257184D01*
X14079468Y-17447660D02*
X14060421Y-17457184D01*
X14060421Y-17457184D02*
X14022326Y-17457184D01*
X14022326Y-17457184D02*
X14003278Y-17447660D01*
X14003278Y-17447660D02*
X13993754Y-17428612D01*
X13993754Y-17428612D02*
X13993754Y-17352422D01*
X13993754Y-17352422D02*
X14003278Y-17333374D01*
X14003278Y-17333374D02*
X14022326Y-17323850D01*
X14022326Y-17323850D02*
X14060421Y-17323850D01*
X14060421Y-17323850D02*
X14079468Y-17333374D01*
X14079468Y-17333374D02*
X14088992Y-17352422D01*
X14088992Y-17352422D02*
X14088992Y-17371469D01*
X14088992Y-17371469D02*
X13993754Y-17390517D01*
X14165183Y-17447660D02*
X14184230Y-17457184D01*
X14184230Y-17457184D02*
X14222326Y-17457184D01*
X14222326Y-17457184D02*
X14241373Y-17447660D01*
X14241373Y-17447660D02*
X14250897Y-17428612D01*
X14250897Y-17428612D02*
X14250897Y-17419088D01*
X14250897Y-17419088D02*
X14241373Y-17400041D01*
X14241373Y-17400041D02*
X14222326Y-17390517D01*
X14222326Y-17390517D02*
X14193754Y-17390517D01*
X14193754Y-17390517D02*
X14174707Y-17380993D01*
X14174707Y-17380993D02*
X14165183Y-17361946D01*
X14165183Y-17361946D02*
X14165183Y-17352422D01*
X14165183Y-17352422D02*
X14174707Y-17333374D01*
X14174707Y-17333374D02*
X14193754Y-17323850D01*
X14193754Y-17323850D02*
X14222326Y-17323850D01*
X14222326Y-17323850D02*
X14241373Y-17333374D01*
X14488992Y-17380993D02*
X14641373Y-17380993D01*
X14565183Y-17457184D02*
X14565183Y-17304803D01*
X14974707Y-17323850D02*
X14974707Y-17457184D01*
X14927088Y-17247660D02*
X14879469Y-17390517D01*
X14879469Y-17390517D02*
X15003278Y-17390517D01*
X15222326Y-17447660D02*
X15241373Y-17457184D01*
X15241373Y-17457184D02*
X15279469Y-17457184D01*
X15279469Y-17457184D02*
X15298516Y-17447660D01*
X15298516Y-17447660D02*
X15308040Y-17428612D01*
X15308040Y-17428612D02*
X15308040Y-17419088D01*
X15308040Y-17419088D02*
X15298516Y-17400041D01*
X15298516Y-17400041D02*
X15279469Y-17390517D01*
X15279469Y-17390517D02*
X15250897Y-17390517D01*
X15250897Y-17390517D02*
X15231850Y-17380993D01*
X15231850Y-17380993D02*
X15222326Y-17361946D01*
X15222326Y-17361946D02*
X15222326Y-17352422D01*
X15222326Y-17352422D02*
X15231850Y-17333374D01*
X15231850Y-17333374D02*
X15250897Y-17323850D01*
X15250897Y-17323850D02*
X15279469Y-17323850D01*
X15279469Y-17323850D02*
X15298516Y-17333374D01*
X15422326Y-17457184D02*
X15403278Y-17447660D01*
X15403278Y-17447660D02*
X15393754Y-17428612D01*
X15393754Y-17428612D02*
X15393754Y-17257184D01*
X15527088Y-17457184D02*
X15508040Y-17447660D01*
X15508040Y-17447660D02*
X15498516Y-17438136D01*
X15498516Y-17438136D02*
X15488992Y-17419088D01*
X15488992Y-17419088D02*
X15488992Y-17361946D01*
X15488992Y-17361946D02*
X15498516Y-17342898D01*
X15498516Y-17342898D02*
X15508040Y-17333374D01*
X15508040Y-17333374D02*
X15527088Y-17323850D01*
X15527088Y-17323850D02*
X15555659Y-17323850D01*
X15555659Y-17323850D02*
X15574707Y-17333374D01*
X15574707Y-17333374D02*
X15584231Y-17342898D01*
X15584231Y-17342898D02*
X15593754Y-17361946D01*
X15593754Y-17361946D02*
X15593754Y-17419088D01*
X15593754Y-17419088D02*
X15584231Y-17438136D01*
X15584231Y-17438136D02*
X15574707Y-17447660D01*
X15574707Y-17447660D02*
X15555659Y-17457184D01*
X15555659Y-17457184D02*
X15527088Y-17457184D01*
X15650897Y-17323850D02*
X15727088Y-17323850D01*
X15679469Y-17257184D02*
X15679469Y-17428612D01*
X15679469Y-17428612D02*
X15688992Y-17447660D01*
X15688992Y-17447660D02*
X15708040Y-17457184D01*
X15708040Y-17457184D02*
X15727088Y-17457184D01*
X15784231Y-17447660D02*
X15803278Y-17457184D01*
X15803278Y-17457184D02*
X15841373Y-17457184D01*
X15841373Y-17457184D02*
X15860421Y-17447660D01*
X15860421Y-17447660D02*
X15869945Y-17428612D01*
X15869945Y-17428612D02*
X15869945Y-17419088D01*
X15869945Y-17419088D02*
X15860421Y-17400041D01*
X15860421Y-17400041D02*
X15841373Y-17390517D01*
X15841373Y-17390517D02*
X15812802Y-17390517D01*
X15812802Y-17390517D02*
X15793754Y-17380993D01*
X15793754Y-17380993D02*
X15784231Y-17361946D01*
X15784231Y-17361946D02*
X15784231Y-17352422D01*
X15784231Y-17352422D02*
X15793754Y-17333374D01*
X15793754Y-17333374D02*
X15812802Y-17323850D01*
X15812802Y-17323850D02*
X15841373Y-17323850D01*
X15841373Y-17323850D02*
X15860421Y-17333374D01*
X15936612Y-17533374D02*
X15946135Y-17523850D01*
X15946135Y-17523850D02*
X15965183Y-17495279D01*
X15965183Y-17495279D02*
X15974707Y-17476231D01*
X15974707Y-17476231D02*
X15984231Y-17447660D01*
X15984231Y-17447660D02*
X15993754Y-17400041D01*
X15993754Y-17400041D02*
X15993754Y-17361946D01*
X15993754Y-17361946D02*
X15984231Y-17314327D01*
X15984231Y-17314327D02*
X15974707Y-17285755D01*
X15974707Y-17285755D02*
X15965183Y-17266708D01*
X15965183Y-17266708D02*
X15946135Y-17238136D01*
X15946135Y-17238136D02*
X15936612Y-17228612D01*
D12*
X9507501Y-17594700D02*
X9507501Y-17664700D01*
X9472501Y-17629700D02*
X9542501Y-17629700D01*
D11*
X9841373Y-17521184D02*
X9860421Y-17521184D01*
X9860421Y-17521184D02*
X9879468Y-17530708D01*
X9879468Y-17530708D02*
X9888992Y-17540231D01*
X9888992Y-17540231D02*
X9898516Y-17559279D01*
X9898516Y-17559279D02*
X9908040Y-17597374D01*
X9908040Y-17597374D02*
X9908040Y-17644993D01*
X9908040Y-17644993D02*
X9898516Y-17683088D01*
X9898516Y-17683088D02*
X9888992Y-17702136D01*
X9888992Y-17702136D02*
X9879468Y-17711660D01*
X9879468Y-17711660D02*
X9860421Y-17721184D01*
X9860421Y-17721184D02*
X9841373Y-17721184D01*
X9841373Y-17721184D02*
X9822325Y-17711660D01*
X9822325Y-17711660D02*
X9812801Y-17702136D01*
X9812801Y-17702136D02*
X9803278Y-17683088D01*
X9803278Y-17683088D02*
X9793754Y-17644993D01*
X9793754Y-17644993D02*
X9793754Y-17597374D01*
X9793754Y-17597374D02*
X9803278Y-17559279D01*
X9803278Y-17559279D02*
X9812801Y-17540231D01*
X9812801Y-17540231D02*
X9822325Y-17530708D01*
X9822325Y-17530708D02*
X9841373Y-17521184D01*
X9993754Y-17702136D02*
X10003278Y-17711660D01*
X10003278Y-17711660D02*
X9993754Y-17721184D01*
X9993754Y-17721184D02*
X9984230Y-17711660D01*
X9984230Y-17711660D02*
X9993754Y-17702136D01*
X9993754Y-17702136D02*
X9993754Y-17721184D01*
X10069944Y-17521184D02*
X10203278Y-17521184D01*
X10203278Y-17521184D02*
X10117563Y-17721184D01*
X10317563Y-17521184D02*
X10336611Y-17521184D01*
X10336611Y-17521184D02*
X10355659Y-17530708D01*
X10355659Y-17530708D02*
X10365182Y-17540231D01*
X10365182Y-17540231D02*
X10374706Y-17559279D01*
X10374706Y-17559279D02*
X10384230Y-17597374D01*
X10384230Y-17597374D02*
X10384230Y-17644993D01*
X10384230Y-17644993D02*
X10374706Y-17683088D01*
X10374706Y-17683088D02*
X10365182Y-17702136D01*
X10365182Y-17702136D02*
X10355659Y-17711660D01*
X10355659Y-17711660D02*
X10336611Y-17721184D01*
X10336611Y-17721184D02*
X10317563Y-17721184D01*
X10317563Y-17721184D02*
X10298516Y-17711660D01*
X10298516Y-17711660D02*
X10288992Y-17702136D01*
X10288992Y-17702136D02*
X10279468Y-17683088D01*
X10279468Y-17683088D02*
X10269944Y-17644993D01*
X10269944Y-17644993D02*
X10269944Y-17597374D01*
X10269944Y-17597374D02*
X10279468Y-17559279D01*
X10279468Y-17559279D02*
X10288992Y-17540231D01*
X10288992Y-17540231D02*
X10298516Y-17530708D01*
X10298516Y-17530708D02*
X10317563Y-17521184D01*
X10508040Y-17521184D02*
X10527087Y-17521184D01*
X10527087Y-17521184D02*
X10546135Y-17530708D01*
X10546135Y-17530708D02*
X10555659Y-17540231D01*
X10555659Y-17540231D02*
X10565182Y-17559279D01*
X10565182Y-17559279D02*
X10574706Y-17597374D01*
X10574706Y-17597374D02*
X10574706Y-17644993D01*
X10574706Y-17644993D02*
X10565182Y-17683088D01*
X10565182Y-17683088D02*
X10555659Y-17702136D01*
X10555659Y-17702136D02*
X10546135Y-17711660D01*
X10546135Y-17711660D02*
X10527087Y-17721184D01*
X10527087Y-17721184D02*
X10508040Y-17721184D01*
X10508040Y-17721184D02*
X10488992Y-17711660D01*
X10488992Y-17711660D02*
X10479468Y-17702136D01*
X10479468Y-17702136D02*
X10469944Y-17683088D01*
X10469944Y-17683088D02*
X10460421Y-17644993D01*
X10460421Y-17644993D02*
X10460421Y-17597374D01*
X10460421Y-17597374D02*
X10469944Y-17559279D01*
X10469944Y-17559279D02*
X10479468Y-17540231D01*
X10479468Y-17540231D02*
X10488992Y-17530708D01*
X10488992Y-17530708D02*
X10508040Y-17521184D01*
X10660421Y-17721184D02*
X10660421Y-17587850D01*
X10660421Y-17606898D02*
X10669944Y-17597374D01*
X10669944Y-17597374D02*
X10688992Y-17587850D01*
X10688992Y-17587850D02*
X10717563Y-17587850D01*
X10717563Y-17587850D02*
X10736611Y-17597374D01*
X10736611Y-17597374D02*
X10746135Y-17616422D01*
X10746135Y-17616422D02*
X10746135Y-17721184D01*
X10746135Y-17616422D02*
X10755659Y-17597374D01*
X10755659Y-17597374D02*
X10774706Y-17587850D01*
X10774706Y-17587850D02*
X10803278Y-17587850D01*
X10803278Y-17587850D02*
X10822325Y-17597374D01*
X10822325Y-17597374D02*
X10831849Y-17616422D01*
X10831849Y-17616422D02*
X10831849Y-17721184D01*
X10927087Y-17721184D02*
X10927087Y-17587850D01*
X10927087Y-17606898D02*
X10936611Y-17597374D01*
X10936611Y-17597374D02*
X10955659Y-17587850D01*
X10955659Y-17587850D02*
X10984230Y-17587850D01*
X10984230Y-17587850D02*
X11003278Y-17597374D01*
X11003278Y-17597374D02*
X11012802Y-17616422D01*
X11012802Y-17616422D02*
X11012802Y-17721184D01*
X11012802Y-17616422D02*
X11022325Y-17597374D01*
X11022325Y-17597374D02*
X11041373Y-17587850D01*
X11041373Y-17587850D02*
X11069944Y-17587850D01*
X11069944Y-17587850D02*
X11088992Y-17597374D01*
X11088992Y-17597374D02*
X11098516Y-17616422D01*
X11098516Y-17616422D02*
X11098516Y-17721184D01*
X11488992Y-17511660D02*
X11317563Y-17768803D01*
X11746135Y-17521184D02*
X11765183Y-17521184D01*
X11765183Y-17521184D02*
X11784230Y-17530708D01*
X11784230Y-17530708D02*
X11793754Y-17540231D01*
X11793754Y-17540231D02*
X11803278Y-17559279D01*
X11803278Y-17559279D02*
X11812802Y-17597374D01*
X11812802Y-17597374D02*
X11812802Y-17644993D01*
X11812802Y-17644993D02*
X11803278Y-17683088D01*
X11803278Y-17683088D02*
X11793754Y-17702136D01*
X11793754Y-17702136D02*
X11784230Y-17711660D01*
X11784230Y-17711660D02*
X11765183Y-17721184D01*
X11765183Y-17721184D02*
X11746135Y-17721184D01*
X11746135Y-17721184D02*
X11727087Y-17711660D01*
X11727087Y-17711660D02*
X11717563Y-17702136D01*
X11717563Y-17702136D02*
X11708040Y-17683088D01*
X11708040Y-17683088D02*
X11698516Y-17644993D01*
X11698516Y-17644993D02*
X11698516Y-17597374D01*
X11698516Y-17597374D02*
X11708040Y-17559279D01*
X11708040Y-17559279D02*
X11717563Y-17540231D01*
X11717563Y-17540231D02*
X11727087Y-17530708D01*
X11727087Y-17530708D02*
X11746135Y-17521184D01*
X11898516Y-17702136D02*
X11908040Y-17711660D01*
X11908040Y-17711660D02*
X11898516Y-17721184D01*
X11898516Y-17721184D02*
X11888992Y-17711660D01*
X11888992Y-17711660D02*
X11898516Y-17702136D01*
X11898516Y-17702136D02*
X11898516Y-17721184D01*
X12031849Y-17521184D02*
X12050897Y-17521184D01*
X12050897Y-17521184D02*
X12069944Y-17530708D01*
X12069944Y-17530708D02*
X12079468Y-17540231D01*
X12079468Y-17540231D02*
X12088992Y-17559279D01*
X12088992Y-17559279D02*
X12098516Y-17597374D01*
X12098516Y-17597374D02*
X12098516Y-17644993D01*
X12098516Y-17644993D02*
X12088992Y-17683088D01*
X12088992Y-17683088D02*
X12079468Y-17702136D01*
X12079468Y-17702136D02*
X12069944Y-17711660D01*
X12069944Y-17711660D02*
X12050897Y-17721184D01*
X12050897Y-17721184D02*
X12031849Y-17721184D01*
X12031849Y-17721184D02*
X12012802Y-17711660D01*
X12012802Y-17711660D02*
X12003278Y-17702136D01*
X12003278Y-17702136D02*
X11993754Y-17683088D01*
X11993754Y-17683088D02*
X11984230Y-17644993D01*
X11984230Y-17644993D02*
X11984230Y-17597374D01*
X11984230Y-17597374D02*
X11993754Y-17559279D01*
X11993754Y-17559279D02*
X12003278Y-17540231D01*
X12003278Y-17540231D02*
X12012802Y-17530708D01*
X12012802Y-17530708D02*
X12031849Y-17521184D01*
X12174706Y-17540231D02*
X12184230Y-17530708D01*
X12184230Y-17530708D02*
X12203278Y-17521184D01*
X12203278Y-17521184D02*
X12250897Y-17521184D01*
X12250897Y-17521184D02*
X12269944Y-17530708D01*
X12269944Y-17530708D02*
X12279468Y-17540231D01*
X12279468Y-17540231D02*
X12288992Y-17559279D01*
X12288992Y-17559279D02*
X12288992Y-17578327D01*
X12288992Y-17578327D02*
X12279468Y-17606898D01*
X12279468Y-17606898D02*
X12165183Y-17721184D01*
X12165183Y-17721184D02*
X12288992Y-17721184D01*
X12355659Y-17521184D02*
X12488992Y-17521184D01*
X12488992Y-17521184D02*
X12403278Y-17721184D01*
X12650897Y-17521184D02*
X12612802Y-17521184D01*
X12612802Y-17521184D02*
X12593754Y-17530708D01*
X12593754Y-17530708D02*
X12584230Y-17540231D01*
X12584230Y-17540231D02*
X12565183Y-17568803D01*
X12565183Y-17568803D02*
X12555659Y-17606898D01*
X12555659Y-17606898D02*
X12555659Y-17683088D01*
X12555659Y-17683088D02*
X12565183Y-17702136D01*
X12565183Y-17702136D02*
X12574706Y-17711660D01*
X12574706Y-17711660D02*
X12593754Y-17721184D01*
X12593754Y-17721184D02*
X12631849Y-17721184D01*
X12631849Y-17721184D02*
X12650897Y-17711660D01*
X12650897Y-17711660D02*
X12660421Y-17702136D01*
X12660421Y-17702136D02*
X12669944Y-17683088D01*
X12669944Y-17683088D02*
X12669944Y-17635469D01*
X12669944Y-17635469D02*
X12660421Y-17616422D01*
X12660421Y-17616422D02*
X12650897Y-17606898D01*
X12650897Y-17606898D02*
X12631849Y-17597374D01*
X12631849Y-17597374D02*
X12593754Y-17597374D01*
X12593754Y-17597374D02*
X12574706Y-17606898D01*
X12574706Y-17606898D02*
X12565183Y-17616422D01*
X12565183Y-17616422D02*
X12555659Y-17635469D01*
X12746135Y-17521184D02*
X12746135Y-17559279D01*
X12822325Y-17521184D02*
X12822325Y-17559279D01*
X13117564Y-17797374D02*
X13108040Y-17787850D01*
X13108040Y-17787850D02*
X13088992Y-17759279D01*
X13088992Y-17759279D02*
X13079468Y-17740231D01*
X13079468Y-17740231D02*
X13069945Y-17711660D01*
X13069945Y-17711660D02*
X13060421Y-17664041D01*
X13060421Y-17664041D02*
X13060421Y-17625946D01*
X13060421Y-17625946D02*
X13069945Y-17578327D01*
X13069945Y-17578327D02*
X13079468Y-17549755D01*
X13079468Y-17549755D02*
X13088992Y-17530708D01*
X13088992Y-17530708D02*
X13108040Y-17502136D01*
X13108040Y-17502136D02*
X13117564Y-17492612D01*
X13231849Y-17521184D02*
X13250897Y-17521184D01*
X13250897Y-17521184D02*
X13269945Y-17530708D01*
X13269945Y-17530708D02*
X13279468Y-17540231D01*
X13279468Y-17540231D02*
X13288992Y-17559279D01*
X13288992Y-17559279D02*
X13298516Y-17597374D01*
X13298516Y-17597374D02*
X13298516Y-17644993D01*
X13298516Y-17644993D02*
X13288992Y-17683088D01*
X13288992Y-17683088D02*
X13279468Y-17702136D01*
X13279468Y-17702136D02*
X13269945Y-17711660D01*
X13269945Y-17711660D02*
X13250897Y-17721184D01*
X13250897Y-17721184D02*
X13231849Y-17721184D01*
X13231849Y-17721184D02*
X13212802Y-17711660D01*
X13212802Y-17711660D02*
X13203278Y-17702136D01*
X13203278Y-17702136D02*
X13193754Y-17683088D01*
X13193754Y-17683088D02*
X13184230Y-17644993D01*
X13184230Y-17644993D02*
X13184230Y-17597374D01*
X13184230Y-17597374D02*
X13193754Y-17559279D01*
X13193754Y-17559279D02*
X13203278Y-17540231D01*
X13203278Y-17540231D02*
X13212802Y-17530708D01*
X13212802Y-17530708D02*
X13231849Y-17521184D01*
X13536611Y-17721184D02*
X13536611Y-17521184D01*
X13622326Y-17721184D02*
X13622326Y-17616422D01*
X13622326Y-17616422D02*
X13612802Y-17597374D01*
X13612802Y-17597374D02*
X13593754Y-17587850D01*
X13593754Y-17587850D02*
X13565183Y-17587850D01*
X13565183Y-17587850D02*
X13546135Y-17597374D01*
X13546135Y-17597374D02*
X13536611Y-17606898D01*
X13746135Y-17721184D02*
X13727087Y-17711660D01*
X13727087Y-17711660D02*
X13717564Y-17702136D01*
X13717564Y-17702136D02*
X13708040Y-17683088D01*
X13708040Y-17683088D02*
X13708040Y-17625946D01*
X13708040Y-17625946D02*
X13717564Y-17606898D01*
X13717564Y-17606898D02*
X13727087Y-17597374D01*
X13727087Y-17597374D02*
X13746135Y-17587850D01*
X13746135Y-17587850D02*
X13774707Y-17587850D01*
X13774707Y-17587850D02*
X13793754Y-17597374D01*
X13793754Y-17597374D02*
X13803278Y-17606898D01*
X13803278Y-17606898D02*
X13812802Y-17625946D01*
X13812802Y-17625946D02*
X13812802Y-17683088D01*
X13812802Y-17683088D02*
X13803278Y-17702136D01*
X13803278Y-17702136D02*
X13793754Y-17711660D01*
X13793754Y-17711660D02*
X13774707Y-17721184D01*
X13774707Y-17721184D02*
X13746135Y-17721184D01*
X13927087Y-17721184D02*
X13908040Y-17711660D01*
X13908040Y-17711660D02*
X13898516Y-17692612D01*
X13898516Y-17692612D02*
X13898516Y-17521184D01*
X14079468Y-17711660D02*
X14060421Y-17721184D01*
X14060421Y-17721184D02*
X14022326Y-17721184D01*
X14022326Y-17721184D02*
X14003278Y-17711660D01*
X14003278Y-17711660D02*
X13993754Y-17692612D01*
X13993754Y-17692612D02*
X13993754Y-17616422D01*
X13993754Y-17616422D02*
X14003278Y-17597374D01*
X14003278Y-17597374D02*
X14022326Y-17587850D01*
X14022326Y-17587850D02*
X14060421Y-17587850D01*
X14060421Y-17587850D02*
X14079468Y-17597374D01*
X14079468Y-17597374D02*
X14088992Y-17616422D01*
X14088992Y-17616422D02*
X14088992Y-17635469D01*
X14088992Y-17635469D02*
X13993754Y-17654517D01*
X14165183Y-17711660D02*
X14184230Y-17721184D01*
X14184230Y-17721184D02*
X14222326Y-17721184D01*
X14222326Y-17721184D02*
X14241373Y-17711660D01*
X14241373Y-17711660D02*
X14250897Y-17692612D01*
X14250897Y-17692612D02*
X14250897Y-17683088D01*
X14250897Y-17683088D02*
X14241373Y-17664041D01*
X14241373Y-17664041D02*
X14222326Y-17654517D01*
X14222326Y-17654517D02*
X14193754Y-17654517D01*
X14193754Y-17654517D02*
X14174707Y-17644993D01*
X14174707Y-17644993D02*
X14165183Y-17625946D01*
X14165183Y-17625946D02*
X14165183Y-17616422D01*
X14165183Y-17616422D02*
X14174707Y-17597374D01*
X14174707Y-17597374D02*
X14193754Y-17587850D01*
X14193754Y-17587850D02*
X14222326Y-17587850D01*
X14222326Y-17587850D02*
X14241373Y-17597374D01*
X14488992Y-17644993D02*
X14641373Y-17644993D01*
X14565183Y-17721184D02*
X14565183Y-17568803D01*
X14879469Y-17540231D02*
X14888992Y-17530708D01*
X14888992Y-17530708D02*
X14908040Y-17521184D01*
X14908040Y-17521184D02*
X14955659Y-17521184D01*
X14955659Y-17521184D02*
X14974707Y-17530708D01*
X14974707Y-17530708D02*
X14984230Y-17540231D01*
X14984230Y-17540231D02*
X14993754Y-17559279D01*
X14993754Y-17559279D02*
X14993754Y-17578327D01*
X14993754Y-17578327D02*
X14984230Y-17606898D01*
X14984230Y-17606898D02*
X14869945Y-17721184D01*
X14869945Y-17721184D02*
X14993754Y-17721184D01*
X15222326Y-17711660D02*
X15241373Y-17721184D01*
X15241373Y-17721184D02*
X15279469Y-17721184D01*
X15279469Y-17721184D02*
X15298516Y-17711660D01*
X15298516Y-17711660D02*
X15308040Y-17692612D01*
X15308040Y-17692612D02*
X15308040Y-17683088D01*
X15308040Y-17683088D02*
X15298516Y-17664041D01*
X15298516Y-17664041D02*
X15279469Y-17654517D01*
X15279469Y-17654517D02*
X15250897Y-17654517D01*
X15250897Y-17654517D02*
X15231850Y-17644993D01*
X15231850Y-17644993D02*
X15222326Y-17625946D01*
X15222326Y-17625946D02*
X15222326Y-17616422D01*
X15222326Y-17616422D02*
X15231850Y-17597374D01*
X15231850Y-17597374D02*
X15250897Y-17587850D01*
X15250897Y-17587850D02*
X15279469Y-17587850D01*
X15279469Y-17587850D02*
X15298516Y-17597374D01*
X15422326Y-17721184D02*
X15403278Y-17711660D01*
X15403278Y-17711660D02*
X15393754Y-17692612D01*
X15393754Y-17692612D02*
X15393754Y-17521184D01*
X15527088Y-17721184D02*
X15508040Y-17711660D01*
X15508040Y-17711660D02*
X15498516Y-17702136D01*
X15498516Y-17702136D02*
X15488992Y-17683088D01*
X15488992Y-17683088D02*
X15488992Y-17625946D01*
X15488992Y-17625946D02*
X15498516Y-17606898D01*
X15498516Y-17606898D02*
X15508040Y-17597374D01*
X15508040Y-17597374D02*
X15527088Y-17587850D01*
X15527088Y-17587850D02*
X15555659Y-17587850D01*
X15555659Y-17587850D02*
X15574707Y-17597374D01*
X15574707Y-17597374D02*
X15584231Y-17606898D01*
X15584231Y-17606898D02*
X15593754Y-17625946D01*
X15593754Y-17625946D02*
X15593754Y-17683088D01*
X15593754Y-17683088D02*
X15584231Y-17702136D01*
X15584231Y-17702136D02*
X15574707Y-17711660D01*
X15574707Y-17711660D02*
X15555659Y-17721184D01*
X15555659Y-17721184D02*
X15527088Y-17721184D01*
X15650897Y-17587850D02*
X15727088Y-17587850D01*
X15679469Y-17521184D02*
X15679469Y-17692612D01*
X15679469Y-17692612D02*
X15688992Y-17711660D01*
X15688992Y-17711660D02*
X15708040Y-17721184D01*
X15708040Y-17721184D02*
X15727088Y-17721184D01*
X15784231Y-17711660D02*
X15803278Y-17721184D01*
X15803278Y-17721184D02*
X15841373Y-17721184D01*
X15841373Y-17721184D02*
X15860421Y-17711660D01*
X15860421Y-17711660D02*
X15869945Y-17692612D01*
X15869945Y-17692612D02*
X15869945Y-17683088D01*
X15869945Y-17683088D02*
X15860421Y-17664041D01*
X15860421Y-17664041D02*
X15841373Y-17654517D01*
X15841373Y-17654517D02*
X15812802Y-17654517D01*
X15812802Y-17654517D02*
X15793754Y-17644993D01*
X15793754Y-17644993D02*
X15784231Y-17625946D01*
X15784231Y-17625946D02*
X15784231Y-17616422D01*
X15784231Y-17616422D02*
X15793754Y-17597374D01*
X15793754Y-17597374D02*
X15812802Y-17587850D01*
X15812802Y-17587850D02*
X15841373Y-17587850D01*
X15841373Y-17587850D02*
X15860421Y-17597374D01*
X15936612Y-17797374D02*
X15946135Y-17787850D01*
X15946135Y-17787850D02*
X15965183Y-17759279D01*
X15965183Y-17759279D02*
X15974707Y-17740231D01*
X15974707Y-17740231D02*
X15984231Y-17711660D01*
X15984231Y-17711660D02*
X15993754Y-17664041D01*
X15993754Y-17664041D02*
X15993754Y-17625946D01*
X15993754Y-17625946D02*
X15984231Y-17578327D01*
X15984231Y-17578327D02*
X15974707Y-17549755D01*
X15974707Y-17549755D02*
X15965183Y-17530708D01*
X15965183Y-17530708D02*
X15946135Y-17502136D01*
X15946135Y-17502136D02*
X15936612Y-17492612D01*
D12*
X9530785Y-17921984D02*
X9530785Y-17865415D01*
X9474216Y-17865415D01*
X9474216Y-17921984D01*
X9530785Y-17921984D01*
D11*
X9841373Y-17785184D02*
X9860421Y-17785184D01*
X9860421Y-17785184D02*
X9879468Y-17794708D01*
X9879468Y-17794708D02*
X9888992Y-17804231D01*
X9888992Y-17804231D02*
X9898516Y-17823279D01*
X9898516Y-17823279D02*
X9908040Y-17861374D01*
X9908040Y-17861374D02*
X9908040Y-17908993D01*
X9908040Y-17908993D02*
X9898516Y-17947088D01*
X9898516Y-17947088D02*
X9888992Y-17966136D01*
X9888992Y-17966136D02*
X9879468Y-17975660D01*
X9879468Y-17975660D02*
X9860421Y-17985184D01*
X9860421Y-17985184D02*
X9841373Y-17985184D01*
X9841373Y-17985184D02*
X9822325Y-17975660D01*
X9822325Y-17975660D02*
X9812801Y-17966136D01*
X9812801Y-17966136D02*
X9803278Y-17947088D01*
X9803278Y-17947088D02*
X9793754Y-17908993D01*
X9793754Y-17908993D02*
X9793754Y-17861374D01*
X9793754Y-17861374D02*
X9803278Y-17823279D01*
X9803278Y-17823279D02*
X9812801Y-17804231D01*
X9812801Y-17804231D02*
X9822325Y-17794708D01*
X9822325Y-17794708D02*
X9841373Y-17785184D01*
X9993754Y-17966136D02*
X10003278Y-17975660D01*
X10003278Y-17975660D02*
X9993754Y-17985184D01*
X9993754Y-17985184D02*
X9984230Y-17975660D01*
X9984230Y-17975660D02*
X9993754Y-17966136D01*
X9993754Y-17966136D02*
X9993754Y-17985184D01*
X10117563Y-17870898D02*
X10098516Y-17861374D01*
X10098516Y-17861374D02*
X10088992Y-17851850D01*
X10088992Y-17851850D02*
X10079468Y-17832803D01*
X10079468Y-17832803D02*
X10079468Y-17823279D01*
X10079468Y-17823279D02*
X10088992Y-17804231D01*
X10088992Y-17804231D02*
X10098516Y-17794708D01*
X10098516Y-17794708D02*
X10117563Y-17785184D01*
X10117563Y-17785184D02*
X10155659Y-17785184D01*
X10155659Y-17785184D02*
X10174706Y-17794708D01*
X10174706Y-17794708D02*
X10184230Y-17804231D01*
X10184230Y-17804231D02*
X10193754Y-17823279D01*
X10193754Y-17823279D02*
X10193754Y-17832803D01*
X10193754Y-17832803D02*
X10184230Y-17851850D01*
X10184230Y-17851850D02*
X10174706Y-17861374D01*
X10174706Y-17861374D02*
X10155659Y-17870898D01*
X10155659Y-17870898D02*
X10117563Y-17870898D01*
X10117563Y-17870898D02*
X10098516Y-17880422D01*
X10098516Y-17880422D02*
X10088992Y-17889946D01*
X10088992Y-17889946D02*
X10079468Y-17908993D01*
X10079468Y-17908993D02*
X10079468Y-17947088D01*
X10079468Y-17947088D02*
X10088992Y-17966136D01*
X10088992Y-17966136D02*
X10098516Y-17975660D01*
X10098516Y-17975660D02*
X10117563Y-17985184D01*
X10117563Y-17985184D02*
X10155659Y-17985184D01*
X10155659Y-17985184D02*
X10174706Y-17975660D01*
X10174706Y-17975660D02*
X10184230Y-17966136D01*
X10184230Y-17966136D02*
X10193754Y-17947088D01*
X10193754Y-17947088D02*
X10193754Y-17908993D01*
X10193754Y-17908993D02*
X10184230Y-17889946D01*
X10184230Y-17889946D02*
X10174706Y-17880422D01*
X10174706Y-17880422D02*
X10155659Y-17870898D01*
X10317563Y-17785184D02*
X10336611Y-17785184D01*
X10336611Y-17785184D02*
X10355659Y-17794708D01*
X10355659Y-17794708D02*
X10365182Y-17804231D01*
X10365182Y-17804231D02*
X10374706Y-17823279D01*
X10374706Y-17823279D02*
X10384230Y-17861374D01*
X10384230Y-17861374D02*
X10384230Y-17908993D01*
X10384230Y-17908993D02*
X10374706Y-17947088D01*
X10374706Y-17947088D02*
X10365182Y-17966136D01*
X10365182Y-17966136D02*
X10355659Y-17975660D01*
X10355659Y-17975660D02*
X10336611Y-17985184D01*
X10336611Y-17985184D02*
X10317563Y-17985184D01*
X10317563Y-17985184D02*
X10298516Y-17975660D01*
X10298516Y-17975660D02*
X10288992Y-17966136D01*
X10288992Y-17966136D02*
X10279468Y-17947088D01*
X10279468Y-17947088D02*
X10269944Y-17908993D01*
X10269944Y-17908993D02*
X10269944Y-17861374D01*
X10269944Y-17861374D02*
X10279468Y-17823279D01*
X10279468Y-17823279D02*
X10288992Y-17804231D01*
X10288992Y-17804231D02*
X10298516Y-17794708D01*
X10298516Y-17794708D02*
X10317563Y-17785184D01*
X10508040Y-17785184D02*
X10527087Y-17785184D01*
X10527087Y-17785184D02*
X10546135Y-17794708D01*
X10546135Y-17794708D02*
X10555659Y-17804231D01*
X10555659Y-17804231D02*
X10565182Y-17823279D01*
X10565182Y-17823279D02*
X10574706Y-17861374D01*
X10574706Y-17861374D02*
X10574706Y-17908993D01*
X10574706Y-17908993D02*
X10565182Y-17947088D01*
X10565182Y-17947088D02*
X10555659Y-17966136D01*
X10555659Y-17966136D02*
X10546135Y-17975660D01*
X10546135Y-17975660D02*
X10527087Y-17985184D01*
X10527087Y-17985184D02*
X10508040Y-17985184D01*
X10508040Y-17985184D02*
X10488992Y-17975660D01*
X10488992Y-17975660D02*
X10479468Y-17966136D01*
X10479468Y-17966136D02*
X10469944Y-17947088D01*
X10469944Y-17947088D02*
X10460421Y-17908993D01*
X10460421Y-17908993D02*
X10460421Y-17861374D01*
X10460421Y-17861374D02*
X10469944Y-17823279D01*
X10469944Y-17823279D02*
X10479468Y-17804231D01*
X10479468Y-17804231D02*
X10488992Y-17794708D01*
X10488992Y-17794708D02*
X10508040Y-17785184D01*
X10660421Y-17985184D02*
X10660421Y-17851850D01*
X10660421Y-17870898D02*
X10669944Y-17861374D01*
X10669944Y-17861374D02*
X10688992Y-17851850D01*
X10688992Y-17851850D02*
X10717563Y-17851850D01*
X10717563Y-17851850D02*
X10736611Y-17861374D01*
X10736611Y-17861374D02*
X10746135Y-17880422D01*
X10746135Y-17880422D02*
X10746135Y-17985184D01*
X10746135Y-17880422D02*
X10755659Y-17861374D01*
X10755659Y-17861374D02*
X10774706Y-17851850D01*
X10774706Y-17851850D02*
X10803278Y-17851850D01*
X10803278Y-17851850D02*
X10822325Y-17861374D01*
X10822325Y-17861374D02*
X10831849Y-17880422D01*
X10831849Y-17880422D02*
X10831849Y-17985184D01*
X10927087Y-17985184D02*
X10927087Y-17851850D01*
X10927087Y-17870898D02*
X10936611Y-17861374D01*
X10936611Y-17861374D02*
X10955659Y-17851850D01*
X10955659Y-17851850D02*
X10984230Y-17851850D01*
X10984230Y-17851850D02*
X11003278Y-17861374D01*
X11003278Y-17861374D02*
X11012802Y-17880422D01*
X11012802Y-17880422D02*
X11012802Y-17985184D01*
X11012802Y-17880422D02*
X11022325Y-17861374D01*
X11022325Y-17861374D02*
X11041373Y-17851850D01*
X11041373Y-17851850D02*
X11069944Y-17851850D01*
X11069944Y-17851850D02*
X11088992Y-17861374D01*
X11088992Y-17861374D02*
X11098516Y-17880422D01*
X11098516Y-17880422D02*
X11098516Y-17985184D01*
X11488992Y-17775660D02*
X11317563Y-18032803D01*
X11746135Y-17785184D02*
X11765183Y-17785184D01*
X11765183Y-17785184D02*
X11784230Y-17794708D01*
X11784230Y-17794708D02*
X11793754Y-17804231D01*
X11793754Y-17804231D02*
X11803278Y-17823279D01*
X11803278Y-17823279D02*
X11812802Y-17861374D01*
X11812802Y-17861374D02*
X11812802Y-17908993D01*
X11812802Y-17908993D02*
X11803278Y-17947088D01*
X11803278Y-17947088D02*
X11793754Y-17966136D01*
X11793754Y-17966136D02*
X11784230Y-17975660D01*
X11784230Y-17975660D02*
X11765183Y-17985184D01*
X11765183Y-17985184D02*
X11746135Y-17985184D01*
X11746135Y-17985184D02*
X11727087Y-17975660D01*
X11727087Y-17975660D02*
X11717563Y-17966136D01*
X11717563Y-17966136D02*
X11708040Y-17947088D01*
X11708040Y-17947088D02*
X11698516Y-17908993D01*
X11698516Y-17908993D02*
X11698516Y-17861374D01*
X11698516Y-17861374D02*
X11708040Y-17823279D01*
X11708040Y-17823279D02*
X11717563Y-17804231D01*
X11717563Y-17804231D02*
X11727087Y-17794708D01*
X11727087Y-17794708D02*
X11746135Y-17785184D01*
X11898516Y-17966136D02*
X11908040Y-17975660D01*
X11908040Y-17975660D02*
X11898516Y-17985184D01*
X11898516Y-17985184D02*
X11888992Y-17975660D01*
X11888992Y-17975660D02*
X11898516Y-17966136D01*
X11898516Y-17966136D02*
X11898516Y-17985184D01*
X12031849Y-17785184D02*
X12050897Y-17785184D01*
X12050897Y-17785184D02*
X12069944Y-17794708D01*
X12069944Y-17794708D02*
X12079468Y-17804231D01*
X12079468Y-17804231D02*
X12088992Y-17823279D01*
X12088992Y-17823279D02*
X12098516Y-17861374D01*
X12098516Y-17861374D02*
X12098516Y-17908993D01*
X12098516Y-17908993D02*
X12088992Y-17947088D01*
X12088992Y-17947088D02*
X12079468Y-17966136D01*
X12079468Y-17966136D02*
X12069944Y-17975660D01*
X12069944Y-17975660D02*
X12050897Y-17985184D01*
X12050897Y-17985184D02*
X12031849Y-17985184D01*
X12031849Y-17985184D02*
X12012802Y-17975660D01*
X12012802Y-17975660D02*
X12003278Y-17966136D01*
X12003278Y-17966136D02*
X11993754Y-17947088D01*
X11993754Y-17947088D02*
X11984230Y-17908993D01*
X11984230Y-17908993D02*
X11984230Y-17861374D01*
X11984230Y-17861374D02*
X11993754Y-17823279D01*
X11993754Y-17823279D02*
X12003278Y-17804231D01*
X12003278Y-17804231D02*
X12012802Y-17794708D01*
X12012802Y-17794708D02*
X12031849Y-17785184D01*
X12165183Y-17785184D02*
X12288992Y-17785184D01*
X12288992Y-17785184D02*
X12222325Y-17861374D01*
X12222325Y-17861374D02*
X12250897Y-17861374D01*
X12250897Y-17861374D02*
X12269944Y-17870898D01*
X12269944Y-17870898D02*
X12279468Y-17880422D01*
X12279468Y-17880422D02*
X12288992Y-17899469D01*
X12288992Y-17899469D02*
X12288992Y-17947088D01*
X12288992Y-17947088D02*
X12279468Y-17966136D01*
X12279468Y-17966136D02*
X12269944Y-17975660D01*
X12269944Y-17975660D02*
X12250897Y-17985184D01*
X12250897Y-17985184D02*
X12193754Y-17985184D01*
X12193754Y-17985184D02*
X12174706Y-17975660D01*
X12174706Y-17975660D02*
X12165183Y-17966136D01*
X12479468Y-17985184D02*
X12365183Y-17985184D01*
X12422325Y-17985184D02*
X12422325Y-17785184D01*
X12422325Y-17785184D02*
X12403278Y-17813755D01*
X12403278Y-17813755D02*
X12384230Y-17832803D01*
X12384230Y-17832803D02*
X12365183Y-17842327D01*
X12660421Y-17785184D02*
X12565183Y-17785184D01*
X12565183Y-17785184D02*
X12555659Y-17880422D01*
X12555659Y-17880422D02*
X12565183Y-17870898D01*
X12565183Y-17870898D02*
X12584230Y-17861374D01*
X12584230Y-17861374D02*
X12631849Y-17861374D01*
X12631849Y-17861374D02*
X12650897Y-17870898D01*
X12650897Y-17870898D02*
X12660421Y-17880422D01*
X12660421Y-17880422D02*
X12669944Y-17899469D01*
X12669944Y-17899469D02*
X12669944Y-17947088D01*
X12669944Y-17947088D02*
X12660421Y-17966136D01*
X12660421Y-17966136D02*
X12650897Y-17975660D01*
X12650897Y-17975660D02*
X12631849Y-17985184D01*
X12631849Y-17985184D02*
X12584230Y-17985184D01*
X12584230Y-17985184D02*
X12565183Y-17975660D01*
X12565183Y-17975660D02*
X12555659Y-17966136D01*
X12746135Y-17785184D02*
X12746135Y-17823279D01*
X12822325Y-17785184D02*
X12822325Y-17823279D01*
X13117564Y-18061374D02*
X13108040Y-18051850D01*
X13108040Y-18051850D02*
X13088992Y-18023279D01*
X13088992Y-18023279D02*
X13079468Y-18004231D01*
X13079468Y-18004231D02*
X13069945Y-17975660D01*
X13069945Y-17975660D02*
X13060421Y-17928041D01*
X13060421Y-17928041D02*
X13060421Y-17889946D01*
X13060421Y-17889946D02*
X13069945Y-17842327D01*
X13069945Y-17842327D02*
X13079468Y-17813755D01*
X13079468Y-17813755D02*
X13088992Y-17794708D01*
X13088992Y-17794708D02*
X13108040Y-17766136D01*
X13108040Y-17766136D02*
X13117564Y-17756612D01*
X13174706Y-17785184D02*
X13298516Y-17785184D01*
X13298516Y-17785184D02*
X13231849Y-17861374D01*
X13231849Y-17861374D02*
X13260421Y-17861374D01*
X13260421Y-17861374D02*
X13279468Y-17870898D01*
X13279468Y-17870898D02*
X13288992Y-17880422D01*
X13288992Y-17880422D02*
X13298516Y-17899469D01*
X13298516Y-17899469D02*
X13298516Y-17947088D01*
X13298516Y-17947088D02*
X13288992Y-17966136D01*
X13288992Y-17966136D02*
X13279468Y-17975660D01*
X13279468Y-17975660D02*
X13260421Y-17985184D01*
X13260421Y-17985184D02*
X13203278Y-17985184D01*
X13203278Y-17985184D02*
X13184230Y-17975660D01*
X13184230Y-17975660D02*
X13174706Y-17966136D01*
X13536611Y-17985184D02*
X13536611Y-17785184D01*
X13622326Y-17985184D02*
X13622326Y-17880422D01*
X13622326Y-17880422D02*
X13612802Y-17861374D01*
X13612802Y-17861374D02*
X13593754Y-17851850D01*
X13593754Y-17851850D02*
X13565183Y-17851850D01*
X13565183Y-17851850D02*
X13546135Y-17861374D01*
X13546135Y-17861374D02*
X13536611Y-17870898D01*
X13746135Y-17985184D02*
X13727087Y-17975660D01*
X13727087Y-17975660D02*
X13717564Y-17966136D01*
X13717564Y-17966136D02*
X13708040Y-17947088D01*
X13708040Y-17947088D02*
X13708040Y-17889946D01*
X13708040Y-17889946D02*
X13717564Y-17870898D01*
X13717564Y-17870898D02*
X13727087Y-17861374D01*
X13727087Y-17861374D02*
X13746135Y-17851850D01*
X13746135Y-17851850D02*
X13774707Y-17851850D01*
X13774707Y-17851850D02*
X13793754Y-17861374D01*
X13793754Y-17861374D02*
X13803278Y-17870898D01*
X13803278Y-17870898D02*
X13812802Y-17889946D01*
X13812802Y-17889946D02*
X13812802Y-17947088D01*
X13812802Y-17947088D02*
X13803278Y-17966136D01*
X13803278Y-17966136D02*
X13793754Y-17975660D01*
X13793754Y-17975660D02*
X13774707Y-17985184D01*
X13774707Y-17985184D02*
X13746135Y-17985184D01*
X13927087Y-17985184D02*
X13908040Y-17975660D01*
X13908040Y-17975660D02*
X13898516Y-17956612D01*
X13898516Y-17956612D02*
X13898516Y-17785184D01*
X14079468Y-17975660D02*
X14060421Y-17985184D01*
X14060421Y-17985184D02*
X14022326Y-17985184D01*
X14022326Y-17985184D02*
X14003278Y-17975660D01*
X14003278Y-17975660D02*
X13993754Y-17956612D01*
X13993754Y-17956612D02*
X13993754Y-17880422D01*
X13993754Y-17880422D02*
X14003278Y-17861374D01*
X14003278Y-17861374D02*
X14022326Y-17851850D01*
X14022326Y-17851850D02*
X14060421Y-17851850D01*
X14060421Y-17851850D02*
X14079468Y-17861374D01*
X14079468Y-17861374D02*
X14088992Y-17880422D01*
X14088992Y-17880422D02*
X14088992Y-17899469D01*
X14088992Y-17899469D02*
X13993754Y-17918517D01*
X14165183Y-17975660D02*
X14184230Y-17985184D01*
X14184230Y-17985184D02*
X14222326Y-17985184D01*
X14222326Y-17985184D02*
X14241373Y-17975660D01*
X14241373Y-17975660D02*
X14250897Y-17956612D01*
X14250897Y-17956612D02*
X14250897Y-17947088D01*
X14250897Y-17947088D02*
X14241373Y-17928041D01*
X14241373Y-17928041D02*
X14222326Y-17918517D01*
X14222326Y-17918517D02*
X14193754Y-17918517D01*
X14193754Y-17918517D02*
X14174707Y-17908993D01*
X14174707Y-17908993D02*
X14165183Y-17889946D01*
X14165183Y-17889946D02*
X14165183Y-17880422D01*
X14165183Y-17880422D02*
X14174707Y-17861374D01*
X14174707Y-17861374D02*
X14193754Y-17851850D01*
X14193754Y-17851850D02*
X14222326Y-17851850D01*
X14222326Y-17851850D02*
X14241373Y-17861374D01*
X14317564Y-18061374D02*
X14327088Y-18051850D01*
X14327088Y-18051850D02*
X14346135Y-18023279D01*
X14346135Y-18023279D02*
X14355659Y-18004231D01*
X14355659Y-18004231D02*
X14365183Y-17975660D01*
X14365183Y-17975660D02*
X14374707Y-17928041D01*
X14374707Y-17928041D02*
X14374707Y-17889946D01*
X14374707Y-17889946D02*
X14365183Y-17842327D01*
X14365183Y-17842327D02*
X14355659Y-17813755D01*
X14355659Y-17813755D02*
X14346135Y-17794708D01*
X14346135Y-17794708D02*
X14327088Y-17766136D01*
X14327088Y-17766136D02*
X14317564Y-17756612D01*
D12*
X9492501Y-18207700D02*
X9542501Y-18157700D01*
X9492501Y-18107700D01*
X9442501Y-18157700D01*
X9492501Y-18207700D01*
D11*
X9908040Y-18249184D02*
X9793754Y-18249184D01*
X9850897Y-18249184D02*
X9850897Y-18049184D01*
X9850897Y-18049184D02*
X9831849Y-18077755D01*
X9831849Y-18077755D02*
X9812801Y-18096803D01*
X9812801Y-18096803D02*
X9793754Y-18106327D01*
X9993754Y-18230136D02*
X10003278Y-18239660D01*
X10003278Y-18239660D02*
X9993754Y-18249184D01*
X9993754Y-18249184D02*
X9984230Y-18239660D01*
X9984230Y-18239660D02*
X9993754Y-18230136D01*
X9993754Y-18230136D02*
X9993754Y-18249184D01*
X10127087Y-18049184D02*
X10146135Y-18049184D01*
X10146135Y-18049184D02*
X10165182Y-18058708D01*
X10165182Y-18058708D02*
X10174706Y-18068231D01*
X10174706Y-18068231D02*
X10184230Y-18087279D01*
X10184230Y-18087279D02*
X10193754Y-18125374D01*
X10193754Y-18125374D02*
X10193754Y-18172993D01*
X10193754Y-18172993D02*
X10184230Y-18211088D01*
X10184230Y-18211088D02*
X10174706Y-18230136D01*
X10174706Y-18230136D02*
X10165182Y-18239660D01*
X10165182Y-18239660D02*
X10146135Y-18249184D01*
X10146135Y-18249184D02*
X10127087Y-18249184D01*
X10127087Y-18249184D02*
X10108040Y-18239660D01*
X10108040Y-18239660D02*
X10098516Y-18230136D01*
X10098516Y-18230136D02*
X10088992Y-18211088D01*
X10088992Y-18211088D02*
X10079468Y-18172993D01*
X10079468Y-18172993D02*
X10079468Y-18125374D01*
X10079468Y-18125374D02*
X10088992Y-18087279D01*
X10088992Y-18087279D02*
X10098516Y-18068231D01*
X10098516Y-18068231D02*
X10108040Y-18058708D01*
X10108040Y-18058708D02*
X10127087Y-18049184D01*
X10317563Y-18049184D02*
X10336611Y-18049184D01*
X10336611Y-18049184D02*
X10355659Y-18058708D01*
X10355659Y-18058708D02*
X10365182Y-18068231D01*
X10365182Y-18068231D02*
X10374706Y-18087279D01*
X10374706Y-18087279D02*
X10384230Y-18125374D01*
X10384230Y-18125374D02*
X10384230Y-18172993D01*
X10384230Y-18172993D02*
X10374706Y-18211088D01*
X10374706Y-18211088D02*
X10365182Y-18230136D01*
X10365182Y-18230136D02*
X10355659Y-18239660D01*
X10355659Y-18239660D02*
X10336611Y-18249184D01*
X10336611Y-18249184D02*
X10317563Y-18249184D01*
X10317563Y-18249184D02*
X10298516Y-18239660D01*
X10298516Y-18239660D02*
X10288992Y-18230136D01*
X10288992Y-18230136D02*
X10279468Y-18211088D01*
X10279468Y-18211088D02*
X10269944Y-18172993D01*
X10269944Y-18172993D02*
X10269944Y-18125374D01*
X10269944Y-18125374D02*
X10279468Y-18087279D01*
X10279468Y-18087279D02*
X10288992Y-18068231D01*
X10288992Y-18068231D02*
X10298516Y-18058708D01*
X10298516Y-18058708D02*
X10317563Y-18049184D01*
X10508040Y-18049184D02*
X10527087Y-18049184D01*
X10527087Y-18049184D02*
X10546135Y-18058708D01*
X10546135Y-18058708D02*
X10555659Y-18068231D01*
X10555659Y-18068231D02*
X10565182Y-18087279D01*
X10565182Y-18087279D02*
X10574706Y-18125374D01*
X10574706Y-18125374D02*
X10574706Y-18172993D01*
X10574706Y-18172993D02*
X10565182Y-18211088D01*
X10565182Y-18211088D02*
X10555659Y-18230136D01*
X10555659Y-18230136D02*
X10546135Y-18239660D01*
X10546135Y-18239660D02*
X10527087Y-18249184D01*
X10527087Y-18249184D02*
X10508040Y-18249184D01*
X10508040Y-18249184D02*
X10488992Y-18239660D01*
X10488992Y-18239660D02*
X10479468Y-18230136D01*
X10479468Y-18230136D02*
X10469944Y-18211088D01*
X10469944Y-18211088D02*
X10460421Y-18172993D01*
X10460421Y-18172993D02*
X10460421Y-18125374D01*
X10460421Y-18125374D02*
X10469944Y-18087279D01*
X10469944Y-18087279D02*
X10479468Y-18068231D01*
X10479468Y-18068231D02*
X10488992Y-18058708D01*
X10488992Y-18058708D02*
X10508040Y-18049184D01*
X10660421Y-18249184D02*
X10660421Y-18115850D01*
X10660421Y-18134898D02*
X10669944Y-18125374D01*
X10669944Y-18125374D02*
X10688992Y-18115850D01*
X10688992Y-18115850D02*
X10717563Y-18115850D01*
X10717563Y-18115850D02*
X10736611Y-18125374D01*
X10736611Y-18125374D02*
X10746135Y-18144422D01*
X10746135Y-18144422D02*
X10746135Y-18249184D01*
X10746135Y-18144422D02*
X10755659Y-18125374D01*
X10755659Y-18125374D02*
X10774706Y-18115850D01*
X10774706Y-18115850D02*
X10803278Y-18115850D01*
X10803278Y-18115850D02*
X10822325Y-18125374D01*
X10822325Y-18125374D02*
X10831849Y-18144422D01*
X10831849Y-18144422D02*
X10831849Y-18249184D01*
X10927087Y-18249184D02*
X10927087Y-18115850D01*
X10927087Y-18134898D02*
X10936611Y-18125374D01*
X10936611Y-18125374D02*
X10955659Y-18115850D01*
X10955659Y-18115850D02*
X10984230Y-18115850D01*
X10984230Y-18115850D02*
X11003278Y-18125374D01*
X11003278Y-18125374D02*
X11012802Y-18144422D01*
X11012802Y-18144422D02*
X11012802Y-18249184D01*
X11012802Y-18144422D02*
X11022325Y-18125374D01*
X11022325Y-18125374D02*
X11041373Y-18115850D01*
X11041373Y-18115850D02*
X11069944Y-18115850D01*
X11069944Y-18115850D02*
X11088992Y-18125374D01*
X11088992Y-18125374D02*
X11098516Y-18144422D01*
X11098516Y-18144422D02*
X11098516Y-18249184D01*
X11488992Y-18039660D02*
X11317563Y-18296803D01*
X11746135Y-18049184D02*
X11765183Y-18049184D01*
X11765183Y-18049184D02*
X11784230Y-18058708D01*
X11784230Y-18058708D02*
X11793754Y-18068231D01*
X11793754Y-18068231D02*
X11803278Y-18087279D01*
X11803278Y-18087279D02*
X11812802Y-18125374D01*
X11812802Y-18125374D02*
X11812802Y-18172993D01*
X11812802Y-18172993D02*
X11803278Y-18211088D01*
X11803278Y-18211088D02*
X11793754Y-18230136D01*
X11793754Y-18230136D02*
X11784230Y-18239660D01*
X11784230Y-18239660D02*
X11765183Y-18249184D01*
X11765183Y-18249184D02*
X11746135Y-18249184D01*
X11746135Y-18249184D02*
X11727087Y-18239660D01*
X11727087Y-18239660D02*
X11717563Y-18230136D01*
X11717563Y-18230136D02*
X11708040Y-18211088D01*
X11708040Y-18211088D02*
X11698516Y-18172993D01*
X11698516Y-18172993D02*
X11698516Y-18125374D01*
X11698516Y-18125374D02*
X11708040Y-18087279D01*
X11708040Y-18087279D02*
X11717563Y-18068231D01*
X11717563Y-18068231D02*
X11727087Y-18058708D01*
X11727087Y-18058708D02*
X11746135Y-18049184D01*
X11898516Y-18230136D02*
X11908040Y-18239660D01*
X11908040Y-18239660D02*
X11898516Y-18249184D01*
X11898516Y-18249184D02*
X11888992Y-18239660D01*
X11888992Y-18239660D02*
X11898516Y-18230136D01*
X11898516Y-18230136D02*
X11898516Y-18249184D01*
X12031849Y-18049184D02*
X12050897Y-18049184D01*
X12050897Y-18049184D02*
X12069944Y-18058708D01*
X12069944Y-18058708D02*
X12079468Y-18068231D01*
X12079468Y-18068231D02*
X12088992Y-18087279D01*
X12088992Y-18087279D02*
X12098516Y-18125374D01*
X12098516Y-18125374D02*
X12098516Y-18172993D01*
X12098516Y-18172993D02*
X12088992Y-18211088D01*
X12088992Y-18211088D02*
X12079468Y-18230136D01*
X12079468Y-18230136D02*
X12069944Y-18239660D01*
X12069944Y-18239660D02*
X12050897Y-18249184D01*
X12050897Y-18249184D02*
X12031849Y-18249184D01*
X12031849Y-18249184D02*
X12012802Y-18239660D01*
X12012802Y-18239660D02*
X12003278Y-18230136D01*
X12003278Y-18230136D02*
X11993754Y-18211088D01*
X11993754Y-18211088D02*
X11984230Y-18172993D01*
X11984230Y-18172993D02*
X11984230Y-18125374D01*
X11984230Y-18125374D02*
X11993754Y-18087279D01*
X11993754Y-18087279D02*
X12003278Y-18068231D01*
X12003278Y-18068231D02*
X12012802Y-18058708D01*
X12012802Y-18058708D02*
X12031849Y-18049184D01*
X12165183Y-18049184D02*
X12288992Y-18049184D01*
X12288992Y-18049184D02*
X12222325Y-18125374D01*
X12222325Y-18125374D02*
X12250897Y-18125374D01*
X12250897Y-18125374D02*
X12269944Y-18134898D01*
X12269944Y-18134898D02*
X12279468Y-18144422D01*
X12279468Y-18144422D02*
X12288992Y-18163469D01*
X12288992Y-18163469D02*
X12288992Y-18211088D01*
X12288992Y-18211088D02*
X12279468Y-18230136D01*
X12279468Y-18230136D02*
X12269944Y-18239660D01*
X12269944Y-18239660D02*
X12250897Y-18249184D01*
X12250897Y-18249184D02*
X12193754Y-18249184D01*
X12193754Y-18249184D02*
X12174706Y-18239660D01*
X12174706Y-18239660D02*
X12165183Y-18230136D01*
X12384230Y-18249184D02*
X12422325Y-18249184D01*
X12422325Y-18249184D02*
X12441373Y-18239660D01*
X12441373Y-18239660D02*
X12450897Y-18230136D01*
X12450897Y-18230136D02*
X12469944Y-18201565D01*
X12469944Y-18201565D02*
X12479468Y-18163469D01*
X12479468Y-18163469D02*
X12479468Y-18087279D01*
X12479468Y-18087279D02*
X12469944Y-18068231D01*
X12469944Y-18068231D02*
X12460421Y-18058708D01*
X12460421Y-18058708D02*
X12441373Y-18049184D01*
X12441373Y-18049184D02*
X12403278Y-18049184D01*
X12403278Y-18049184D02*
X12384230Y-18058708D01*
X12384230Y-18058708D02*
X12374706Y-18068231D01*
X12374706Y-18068231D02*
X12365183Y-18087279D01*
X12365183Y-18087279D02*
X12365183Y-18134898D01*
X12365183Y-18134898D02*
X12374706Y-18153946D01*
X12374706Y-18153946D02*
X12384230Y-18163469D01*
X12384230Y-18163469D02*
X12403278Y-18172993D01*
X12403278Y-18172993D02*
X12441373Y-18172993D01*
X12441373Y-18172993D02*
X12460421Y-18163469D01*
X12460421Y-18163469D02*
X12469944Y-18153946D01*
X12469944Y-18153946D02*
X12479468Y-18134898D01*
X12650897Y-18115850D02*
X12650897Y-18249184D01*
X12603278Y-18039660D02*
X12555659Y-18182517D01*
X12555659Y-18182517D02*
X12679468Y-18182517D01*
X12746135Y-18049184D02*
X12746135Y-18087279D01*
X12822325Y-18049184D02*
X12822325Y-18087279D01*
X13117564Y-18325374D02*
X13108040Y-18315850D01*
X13108040Y-18315850D02*
X13088992Y-18287279D01*
X13088992Y-18287279D02*
X13079468Y-18268231D01*
X13079468Y-18268231D02*
X13069945Y-18239660D01*
X13069945Y-18239660D02*
X13060421Y-18192041D01*
X13060421Y-18192041D02*
X13060421Y-18153946D01*
X13060421Y-18153946D02*
X13069945Y-18106327D01*
X13069945Y-18106327D02*
X13079468Y-18077755D01*
X13079468Y-18077755D02*
X13088992Y-18058708D01*
X13088992Y-18058708D02*
X13108040Y-18030136D01*
X13108040Y-18030136D02*
X13117564Y-18020612D01*
X13298516Y-18249184D02*
X13184230Y-18249184D01*
X13241373Y-18249184D02*
X13241373Y-18049184D01*
X13241373Y-18049184D02*
X13222325Y-18077755D01*
X13222325Y-18077755D02*
X13203278Y-18096803D01*
X13203278Y-18096803D02*
X13184230Y-18106327D01*
X13536611Y-18249184D02*
X13536611Y-18049184D01*
X13622326Y-18249184D02*
X13622326Y-18144422D01*
X13622326Y-18144422D02*
X13612802Y-18125374D01*
X13612802Y-18125374D02*
X13593754Y-18115850D01*
X13593754Y-18115850D02*
X13565183Y-18115850D01*
X13565183Y-18115850D02*
X13546135Y-18125374D01*
X13546135Y-18125374D02*
X13536611Y-18134898D01*
X13746135Y-18249184D02*
X13727087Y-18239660D01*
X13727087Y-18239660D02*
X13717564Y-18230136D01*
X13717564Y-18230136D02*
X13708040Y-18211088D01*
X13708040Y-18211088D02*
X13708040Y-18153946D01*
X13708040Y-18153946D02*
X13717564Y-18134898D01*
X13717564Y-18134898D02*
X13727087Y-18125374D01*
X13727087Y-18125374D02*
X13746135Y-18115850D01*
X13746135Y-18115850D02*
X13774707Y-18115850D01*
X13774707Y-18115850D02*
X13793754Y-18125374D01*
X13793754Y-18125374D02*
X13803278Y-18134898D01*
X13803278Y-18134898D02*
X13812802Y-18153946D01*
X13812802Y-18153946D02*
X13812802Y-18211088D01*
X13812802Y-18211088D02*
X13803278Y-18230136D01*
X13803278Y-18230136D02*
X13793754Y-18239660D01*
X13793754Y-18239660D02*
X13774707Y-18249184D01*
X13774707Y-18249184D02*
X13746135Y-18249184D01*
X13927087Y-18249184D02*
X13908040Y-18239660D01*
X13908040Y-18239660D02*
X13898516Y-18220612D01*
X13898516Y-18220612D02*
X13898516Y-18049184D01*
X14079468Y-18239660D02*
X14060421Y-18249184D01*
X14060421Y-18249184D02*
X14022326Y-18249184D01*
X14022326Y-18249184D02*
X14003278Y-18239660D01*
X14003278Y-18239660D02*
X13993754Y-18220612D01*
X13993754Y-18220612D02*
X13993754Y-18144422D01*
X13993754Y-18144422D02*
X14003278Y-18125374D01*
X14003278Y-18125374D02*
X14022326Y-18115850D01*
X14022326Y-18115850D02*
X14060421Y-18115850D01*
X14060421Y-18115850D02*
X14079468Y-18125374D01*
X14079468Y-18125374D02*
X14088992Y-18144422D01*
X14088992Y-18144422D02*
X14088992Y-18163469D01*
X14088992Y-18163469D02*
X13993754Y-18182517D01*
X14155659Y-18325374D02*
X14165183Y-18315850D01*
X14165183Y-18315850D02*
X14184230Y-18287279D01*
X14184230Y-18287279D02*
X14193754Y-18268231D01*
X14193754Y-18268231D02*
X14203278Y-18239660D01*
X14203278Y-18239660D02*
X14212802Y-18192041D01*
X14212802Y-18192041D02*
X14212802Y-18153946D01*
X14212802Y-18153946D02*
X14203278Y-18106327D01*
X14203278Y-18106327D02*
X14193754Y-18077755D01*
X14193754Y-18077755D02*
X14184230Y-18058708D01*
X14184230Y-18058708D02*
X14165183Y-18030136D01*
X14165183Y-18030136D02*
X14155659Y-18020612D01*
D12*
X9442501Y-18371700D02*
X9542501Y-18471700D01*
X9542501Y-18371700D02*
X9442501Y-18471700D01*
X9542501Y-18421700D02*
G75*
G02*
X9442501Y-18421700I-50000J0D01*
G01*
X9442501Y-18421700D02*
G75*
G02*
X9542501Y-18421700I50000J0D01*
G01*
D11*
X9908040Y-18513184D02*
X9793754Y-18513184D01*
X9850897Y-18513184D02*
X9850897Y-18313184D01*
X9850897Y-18313184D02*
X9831849Y-18341755D01*
X9831849Y-18341755D02*
X9812801Y-18360803D01*
X9812801Y-18360803D02*
X9793754Y-18370327D01*
X9993754Y-18494136D02*
X10003278Y-18503660D01*
X10003278Y-18503660D02*
X9993754Y-18513184D01*
X9993754Y-18513184D02*
X9984230Y-18503660D01*
X9984230Y-18503660D02*
X9993754Y-18494136D01*
X9993754Y-18494136D02*
X9993754Y-18513184D01*
X10127087Y-18313184D02*
X10146135Y-18313184D01*
X10146135Y-18313184D02*
X10165182Y-18322708D01*
X10165182Y-18322708D02*
X10174706Y-18332231D01*
X10174706Y-18332231D02*
X10184230Y-18351279D01*
X10184230Y-18351279D02*
X10193754Y-18389374D01*
X10193754Y-18389374D02*
X10193754Y-18436993D01*
X10193754Y-18436993D02*
X10184230Y-18475088D01*
X10184230Y-18475088D02*
X10174706Y-18494136D01*
X10174706Y-18494136D02*
X10165182Y-18503660D01*
X10165182Y-18503660D02*
X10146135Y-18513184D01*
X10146135Y-18513184D02*
X10127087Y-18513184D01*
X10127087Y-18513184D02*
X10108040Y-18503660D01*
X10108040Y-18503660D02*
X10098516Y-18494136D01*
X10098516Y-18494136D02*
X10088992Y-18475088D01*
X10088992Y-18475088D02*
X10079468Y-18436993D01*
X10079468Y-18436993D02*
X10079468Y-18389374D01*
X10079468Y-18389374D02*
X10088992Y-18351279D01*
X10088992Y-18351279D02*
X10098516Y-18332231D01*
X10098516Y-18332231D02*
X10108040Y-18322708D01*
X10108040Y-18322708D02*
X10127087Y-18313184D01*
X10317563Y-18313184D02*
X10336611Y-18313184D01*
X10336611Y-18313184D02*
X10355659Y-18322708D01*
X10355659Y-18322708D02*
X10365182Y-18332231D01*
X10365182Y-18332231D02*
X10374706Y-18351279D01*
X10374706Y-18351279D02*
X10384230Y-18389374D01*
X10384230Y-18389374D02*
X10384230Y-18436993D01*
X10384230Y-18436993D02*
X10374706Y-18475088D01*
X10374706Y-18475088D02*
X10365182Y-18494136D01*
X10365182Y-18494136D02*
X10355659Y-18503660D01*
X10355659Y-18503660D02*
X10336611Y-18513184D01*
X10336611Y-18513184D02*
X10317563Y-18513184D01*
X10317563Y-18513184D02*
X10298516Y-18503660D01*
X10298516Y-18503660D02*
X10288992Y-18494136D01*
X10288992Y-18494136D02*
X10279468Y-18475088D01*
X10279468Y-18475088D02*
X10269944Y-18436993D01*
X10269944Y-18436993D02*
X10269944Y-18389374D01*
X10269944Y-18389374D02*
X10279468Y-18351279D01*
X10279468Y-18351279D02*
X10288992Y-18332231D01*
X10288992Y-18332231D02*
X10298516Y-18322708D01*
X10298516Y-18322708D02*
X10317563Y-18313184D01*
X10508040Y-18313184D02*
X10527087Y-18313184D01*
X10527087Y-18313184D02*
X10546135Y-18322708D01*
X10546135Y-18322708D02*
X10555659Y-18332231D01*
X10555659Y-18332231D02*
X10565182Y-18351279D01*
X10565182Y-18351279D02*
X10574706Y-18389374D01*
X10574706Y-18389374D02*
X10574706Y-18436993D01*
X10574706Y-18436993D02*
X10565182Y-18475088D01*
X10565182Y-18475088D02*
X10555659Y-18494136D01*
X10555659Y-18494136D02*
X10546135Y-18503660D01*
X10546135Y-18503660D02*
X10527087Y-18513184D01*
X10527087Y-18513184D02*
X10508040Y-18513184D01*
X10508040Y-18513184D02*
X10488992Y-18503660D01*
X10488992Y-18503660D02*
X10479468Y-18494136D01*
X10479468Y-18494136D02*
X10469944Y-18475088D01*
X10469944Y-18475088D02*
X10460421Y-18436993D01*
X10460421Y-18436993D02*
X10460421Y-18389374D01*
X10460421Y-18389374D02*
X10469944Y-18351279D01*
X10469944Y-18351279D02*
X10479468Y-18332231D01*
X10479468Y-18332231D02*
X10488992Y-18322708D01*
X10488992Y-18322708D02*
X10508040Y-18313184D01*
X10660421Y-18513184D02*
X10660421Y-18379850D01*
X10660421Y-18398898D02*
X10669944Y-18389374D01*
X10669944Y-18389374D02*
X10688992Y-18379850D01*
X10688992Y-18379850D02*
X10717563Y-18379850D01*
X10717563Y-18379850D02*
X10736611Y-18389374D01*
X10736611Y-18389374D02*
X10746135Y-18408422D01*
X10746135Y-18408422D02*
X10746135Y-18513184D01*
X10746135Y-18408422D02*
X10755659Y-18389374D01*
X10755659Y-18389374D02*
X10774706Y-18379850D01*
X10774706Y-18379850D02*
X10803278Y-18379850D01*
X10803278Y-18379850D02*
X10822325Y-18389374D01*
X10822325Y-18389374D02*
X10831849Y-18408422D01*
X10831849Y-18408422D02*
X10831849Y-18513184D01*
X10927087Y-18513184D02*
X10927087Y-18379850D01*
X10927087Y-18398898D02*
X10936611Y-18389374D01*
X10936611Y-18389374D02*
X10955659Y-18379850D01*
X10955659Y-18379850D02*
X10984230Y-18379850D01*
X10984230Y-18379850D02*
X11003278Y-18389374D01*
X11003278Y-18389374D02*
X11012802Y-18408422D01*
X11012802Y-18408422D02*
X11012802Y-18513184D01*
X11012802Y-18408422D02*
X11022325Y-18389374D01*
X11022325Y-18389374D02*
X11041373Y-18379850D01*
X11041373Y-18379850D02*
X11069944Y-18379850D01*
X11069944Y-18379850D02*
X11088992Y-18389374D01*
X11088992Y-18389374D02*
X11098516Y-18408422D01*
X11098516Y-18408422D02*
X11098516Y-18513184D01*
X11488992Y-18303660D02*
X11317563Y-18560803D01*
X11746135Y-18313184D02*
X11765183Y-18313184D01*
X11765183Y-18313184D02*
X11784230Y-18322708D01*
X11784230Y-18322708D02*
X11793754Y-18332231D01*
X11793754Y-18332231D02*
X11803278Y-18351279D01*
X11803278Y-18351279D02*
X11812802Y-18389374D01*
X11812802Y-18389374D02*
X11812802Y-18436993D01*
X11812802Y-18436993D02*
X11803278Y-18475088D01*
X11803278Y-18475088D02*
X11793754Y-18494136D01*
X11793754Y-18494136D02*
X11784230Y-18503660D01*
X11784230Y-18503660D02*
X11765183Y-18513184D01*
X11765183Y-18513184D02*
X11746135Y-18513184D01*
X11746135Y-18513184D02*
X11727087Y-18503660D01*
X11727087Y-18503660D02*
X11717563Y-18494136D01*
X11717563Y-18494136D02*
X11708040Y-18475088D01*
X11708040Y-18475088D02*
X11698516Y-18436993D01*
X11698516Y-18436993D02*
X11698516Y-18389374D01*
X11698516Y-18389374D02*
X11708040Y-18351279D01*
X11708040Y-18351279D02*
X11717563Y-18332231D01*
X11717563Y-18332231D02*
X11727087Y-18322708D01*
X11727087Y-18322708D02*
X11746135Y-18313184D01*
X11898516Y-18494136D02*
X11908040Y-18503660D01*
X11908040Y-18503660D02*
X11898516Y-18513184D01*
X11898516Y-18513184D02*
X11888992Y-18503660D01*
X11888992Y-18503660D02*
X11898516Y-18494136D01*
X11898516Y-18494136D02*
X11898516Y-18513184D01*
X12031849Y-18313184D02*
X12050897Y-18313184D01*
X12050897Y-18313184D02*
X12069944Y-18322708D01*
X12069944Y-18322708D02*
X12079468Y-18332231D01*
X12079468Y-18332231D02*
X12088992Y-18351279D01*
X12088992Y-18351279D02*
X12098516Y-18389374D01*
X12098516Y-18389374D02*
X12098516Y-18436993D01*
X12098516Y-18436993D02*
X12088992Y-18475088D01*
X12088992Y-18475088D02*
X12079468Y-18494136D01*
X12079468Y-18494136D02*
X12069944Y-18503660D01*
X12069944Y-18503660D02*
X12050897Y-18513184D01*
X12050897Y-18513184D02*
X12031849Y-18513184D01*
X12031849Y-18513184D02*
X12012802Y-18503660D01*
X12012802Y-18503660D02*
X12003278Y-18494136D01*
X12003278Y-18494136D02*
X11993754Y-18475088D01*
X11993754Y-18475088D02*
X11984230Y-18436993D01*
X11984230Y-18436993D02*
X11984230Y-18389374D01*
X11984230Y-18389374D02*
X11993754Y-18351279D01*
X11993754Y-18351279D02*
X12003278Y-18332231D01*
X12003278Y-18332231D02*
X12012802Y-18322708D01*
X12012802Y-18322708D02*
X12031849Y-18313184D01*
X12165183Y-18313184D02*
X12288992Y-18313184D01*
X12288992Y-18313184D02*
X12222325Y-18389374D01*
X12222325Y-18389374D02*
X12250897Y-18389374D01*
X12250897Y-18389374D02*
X12269944Y-18398898D01*
X12269944Y-18398898D02*
X12279468Y-18408422D01*
X12279468Y-18408422D02*
X12288992Y-18427469D01*
X12288992Y-18427469D02*
X12288992Y-18475088D01*
X12288992Y-18475088D02*
X12279468Y-18494136D01*
X12279468Y-18494136D02*
X12269944Y-18503660D01*
X12269944Y-18503660D02*
X12250897Y-18513184D01*
X12250897Y-18513184D02*
X12193754Y-18513184D01*
X12193754Y-18513184D02*
X12174706Y-18503660D01*
X12174706Y-18503660D02*
X12165183Y-18494136D01*
X12384230Y-18513184D02*
X12422325Y-18513184D01*
X12422325Y-18513184D02*
X12441373Y-18503660D01*
X12441373Y-18503660D02*
X12450897Y-18494136D01*
X12450897Y-18494136D02*
X12469944Y-18465565D01*
X12469944Y-18465565D02*
X12479468Y-18427469D01*
X12479468Y-18427469D02*
X12479468Y-18351279D01*
X12479468Y-18351279D02*
X12469944Y-18332231D01*
X12469944Y-18332231D02*
X12460421Y-18322708D01*
X12460421Y-18322708D02*
X12441373Y-18313184D01*
X12441373Y-18313184D02*
X12403278Y-18313184D01*
X12403278Y-18313184D02*
X12384230Y-18322708D01*
X12384230Y-18322708D02*
X12374706Y-18332231D01*
X12374706Y-18332231D02*
X12365183Y-18351279D01*
X12365183Y-18351279D02*
X12365183Y-18398898D01*
X12365183Y-18398898D02*
X12374706Y-18417946D01*
X12374706Y-18417946D02*
X12384230Y-18427469D01*
X12384230Y-18427469D02*
X12403278Y-18436993D01*
X12403278Y-18436993D02*
X12441373Y-18436993D01*
X12441373Y-18436993D02*
X12460421Y-18427469D01*
X12460421Y-18427469D02*
X12469944Y-18417946D01*
X12469944Y-18417946D02*
X12479468Y-18398898D01*
X12650897Y-18379850D02*
X12650897Y-18513184D01*
X12603278Y-18303660D02*
X12555659Y-18446517D01*
X12555659Y-18446517D02*
X12679468Y-18446517D01*
X12746135Y-18313184D02*
X12746135Y-18351279D01*
X12822325Y-18313184D02*
X12822325Y-18351279D01*
X13117564Y-18589374D02*
X13108040Y-18579850D01*
X13108040Y-18579850D02*
X13088992Y-18551279D01*
X13088992Y-18551279D02*
X13079468Y-18532231D01*
X13079468Y-18532231D02*
X13069945Y-18503660D01*
X13069945Y-18503660D02*
X13060421Y-18456041D01*
X13060421Y-18456041D02*
X13060421Y-18417946D01*
X13060421Y-18417946D02*
X13069945Y-18370327D01*
X13069945Y-18370327D02*
X13079468Y-18341755D01*
X13079468Y-18341755D02*
X13088992Y-18322708D01*
X13088992Y-18322708D02*
X13108040Y-18294136D01*
X13108040Y-18294136D02*
X13117564Y-18284612D01*
X13279468Y-18379850D02*
X13279468Y-18513184D01*
X13231849Y-18303660D02*
X13184230Y-18446517D01*
X13184230Y-18446517D02*
X13308040Y-18446517D01*
X13469945Y-18379850D02*
X13469945Y-18513184D01*
X13422325Y-18303660D02*
X13374706Y-18446517D01*
X13374706Y-18446517D02*
X13498516Y-18446517D01*
X13727087Y-18513184D02*
X13727087Y-18313184D01*
X13812802Y-18513184D02*
X13812802Y-18408422D01*
X13812802Y-18408422D02*
X13803278Y-18389374D01*
X13803278Y-18389374D02*
X13784230Y-18379850D01*
X13784230Y-18379850D02*
X13755659Y-18379850D01*
X13755659Y-18379850D02*
X13736611Y-18389374D01*
X13736611Y-18389374D02*
X13727087Y-18398898D01*
X13936611Y-18513184D02*
X13917564Y-18503660D01*
X13917564Y-18503660D02*
X13908040Y-18494136D01*
X13908040Y-18494136D02*
X13898516Y-18475088D01*
X13898516Y-18475088D02*
X13898516Y-18417946D01*
X13898516Y-18417946D02*
X13908040Y-18398898D01*
X13908040Y-18398898D02*
X13917564Y-18389374D01*
X13917564Y-18389374D02*
X13936611Y-18379850D01*
X13936611Y-18379850D02*
X13965183Y-18379850D01*
X13965183Y-18379850D02*
X13984230Y-18389374D01*
X13984230Y-18389374D02*
X13993754Y-18398898D01*
X13993754Y-18398898D02*
X14003278Y-18417946D01*
X14003278Y-18417946D02*
X14003278Y-18475088D01*
X14003278Y-18475088D02*
X13993754Y-18494136D01*
X13993754Y-18494136D02*
X13984230Y-18503660D01*
X13984230Y-18503660D02*
X13965183Y-18513184D01*
X13965183Y-18513184D02*
X13936611Y-18513184D01*
X14117564Y-18513184D02*
X14098516Y-18503660D01*
X14098516Y-18503660D02*
X14088992Y-18484612D01*
X14088992Y-18484612D02*
X14088992Y-18313184D01*
X14269945Y-18503660D02*
X14250897Y-18513184D01*
X14250897Y-18513184D02*
X14212802Y-18513184D01*
X14212802Y-18513184D02*
X14193754Y-18503660D01*
X14193754Y-18503660D02*
X14184230Y-18484612D01*
X14184230Y-18484612D02*
X14184230Y-18408422D01*
X14184230Y-18408422D02*
X14193754Y-18389374D01*
X14193754Y-18389374D02*
X14212802Y-18379850D01*
X14212802Y-18379850D02*
X14250897Y-18379850D01*
X14250897Y-18379850D02*
X14269945Y-18389374D01*
X14269945Y-18389374D02*
X14279468Y-18408422D01*
X14279468Y-18408422D02*
X14279468Y-18427469D01*
X14279468Y-18427469D02*
X14184230Y-18446517D01*
X14355659Y-18503660D02*
X14374707Y-18513184D01*
X14374707Y-18513184D02*
X14412802Y-18513184D01*
X14412802Y-18513184D02*
X14431849Y-18503660D01*
X14431849Y-18503660D02*
X14441373Y-18484612D01*
X14441373Y-18484612D02*
X14441373Y-18475088D01*
X14441373Y-18475088D02*
X14431849Y-18456041D01*
X14431849Y-18456041D02*
X14412802Y-18446517D01*
X14412802Y-18446517D02*
X14384230Y-18446517D01*
X14384230Y-18446517D02*
X14365183Y-18436993D01*
X14365183Y-18436993D02*
X14355659Y-18417946D01*
X14355659Y-18417946D02*
X14355659Y-18408422D01*
X14355659Y-18408422D02*
X14365183Y-18389374D01*
X14365183Y-18389374D02*
X14384230Y-18379850D01*
X14384230Y-18379850D02*
X14412802Y-18379850D01*
X14412802Y-18379850D02*
X14431849Y-18389374D01*
X14508040Y-18589374D02*
X14517564Y-18579850D01*
X14517564Y-18579850D02*
X14536611Y-18551279D01*
X14536611Y-18551279D02*
X14546135Y-18532231D01*
X14546135Y-18532231D02*
X14555659Y-18503660D01*
X14555659Y-18503660D02*
X14565183Y-18456041D01*
X14565183Y-18456041D02*
X14565183Y-18417946D01*
X14565183Y-18417946D02*
X14555659Y-18370327D01*
X14555659Y-18370327D02*
X14546135Y-18341755D01*
X14546135Y-18341755D02*
X14536611Y-18322708D01*
X14536611Y-18322708D02*
X14517564Y-18294136D01*
X14517564Y-18294136D02*
X14508040Y-18284612D01*
D13*
X9390501Y-18609700D02*
X9542501Y-18761700D01*
X9542501Y-18609700D02*
X9390501Y-18761700D01*
X9466501Y-18609700D02*
X9466501Y-18761700D01*
X9390501Y-18685700D02*
X9542501Y-18685700D01*
D11*
X9908040Y-18777184D02*
X9793754Y-18777184D01*
X9850897Y-18777184D02*
X9850897Y-18577184D01*
X9850897Y-18577184D02*
X9831849Y-18605755D01*
X9831849Y-18605755D02*
X9812801Y-18624803D01*
X9812801Y-18624803D02*
X9793754Y-18634327D01*
X9993754Y-18758136D02*
X10003278Y-18767660D01*
X10003278Y-18767660D02*
X9993754Y-18777184D01*
X9993754Y-18777184D02*
X9984230Y-18767660D01*
X9984230Y-18767660D02*
X9993754Y-18758136D01*
X9993754Y-18758136D02*
X9993754Y-18777184D01*
X10184230Y-18577184D02*
X10088992Y-18577184D01*
X10088992Y-18577184D02*
X10079468Y-18672422D01*
X10079468Y-18672422D02*
X10088992Y-18662898D01*
X10088992Y-18662898D02*
X10108040Y-18653374D01*
X10108040Y-18653374D02*
X10155659Y-18653374D01*
X10155659Y-18653374D02*
X10174706Y-18662898D01*
X10174706Y-18662898D02*
X10184230Y-18672422D01*
X10184230Y-18672422D02*
X10193754Y-18691469D01*
X10193754Y-18691469D02*
X10193754Y-18739088D01*
X10193754Y-18739088D02*
X10184230Y-18758136D01*
X10184230Y-18758136D02*
X10174706Y-18767660D01*
X10174706Y-18767660D02*
X10155659Y-18777184D01*
X10155659Y-18777184D02*
X10108040Y-18777184D01*
X10108040Y-18777184D02*
X10088992Y-18767660D01*
X10088992Y-18767660D02*
X10079468Y-18758136D01*
X10269944Y-18596231D02*
X10279468Y-18586708D01*
X10279468Y-18586708D02*
X10298516Y-18577184D01*
X10298516Y-18577184D02*
X10346135Y-18577184D01*
X10346135Y-18577184D02*
X10365182Y-18586708D01*
X10365182Y-18586708D02*
X10374706Y-18596231D01*
X10374706Y-18596231D02*
X10384230Y-18615279D01*
X10384230Y-18615279D02*
X10384230Y-18634327D01*
X10384230Y-18634327D02*
X10374706Y-18662898D01*
X10374706Y-18662898D02*
X10260421Y-18777184D01*
X10260421Y-18777184D02*
X10384230Y-18777184D01*
X10508040Y-18577184D02*
X10527087Y-18577184D01*
X10527087Y-18577184D02*
X10546135Y-18586708D01*
X10546135Y-18586708D02*
X10555659Y-18596231D01*
X10555659Y-18596231D02*
X10565182Y-18615279D01*
X10565182Y-18615279D02*
X10574706Y-18653374D01*
X10574706Y-18653374D02*
X10574706Y-18700993D01*
X10574706Y-18700993D02*
X10565182Y-18739088D01*
X10565182Y-18739088D02*
X10555659Y-18758136D01*
X10555659Y-18758136D02*
X10546135Y-18767660D01*
X10546135Y-18767660D02*
X10527087Y-18777184D01*
X10527087Y-18777184D02*
X10508040Y-18777184D01*
X10508040Y-18777184D02*
X10488992Y-18767660D01*
X10488992Y-18767660D02*
X10479468Y-18758136D01*
X10479468Y-18758136D02*
X10469944Y-18739088D01*
X10469944Y-18739088D02*
X10460421Y-18700993D01*
X10460421Y-18700993D02*
X10460421Y-18653374D01*
X10460421Y-18653374D02*
X10469944Y-18615279D01*
X10469944Y-18615279D02*
X10479468Y-18596231D01*
X10479468Y-18596231D02*
X10488992Y-18586708D01*
X10488992Y-18586708D02*
X10508040Y-18577184D01*
X10660421Y-18777184D02*
X10660421Y-18643850D01*
X10660421Y-18662898D02*
X10669944Y-18653374D01*
X10669944Y-18653374D02*
X10688992Y-18643850D01*
X10688992Y-18643850D02*
X10717563Y-18643850D01*
X10717563Y-18643850D02*
X10736611Y-18653374D01*
X10736611Y-18653374D02*
X10746135Y-18672422D01*
X10746135Y-18672422D02*
X10746135Y-18777184D01*
X10746135Y-18672422D02*
X10755659Y-18653374D01*
X10755659Y-18653374D02*
X10774706Y-18643850D01*
X10774706Y-18643850D02*
X10803278Y-18643850D01*
X10803278Y-18643850D02*
X10822325Y-18653374D01*
X10822325Y-18653374D02*
X10831849Y-18672422D01*
X10831849Y-18672422D02*
X10831849Y-18777184D01*
X10927087Y-18777184D02*
X10927087Y-18643850D01*
X10927087Y-18662898D02*
X10936611Y-18653374D01*
X10936611Y-18653374D02*
X10955659Y-18643850D01*
X10955659Y-18643850D02*
X10984230Y-18643850D01*
X10984230Y-18643850D02*
X11003278Y-18653374D01*
X11003278Y-18653374D02*
X11012802Y-18672422D01*
X11012802Y-18672422D02*
X11012802Y-18777184D01*
X11012802Y-18672422D02*
X11022325Y-18653374D01*
X11022325Y-18653374D02*
X11041373Y-18643850D01*
X11041373Y-18643850D02*
X11069944Y-18643850D01*
X11069944Y-18643850D02*
X11088992Y-18653374D01*
X11088992Y-18653374D02*
X11098516Y-18672422D01*
X11098516Y-18672422D02*
X11098516Y-18777184D01*
X11488992Y-18567660D02*
X11317563Y-18824803D01*
X11746135Y-18577184D02*
X11765183Y-18577184D01*
X11765183Y-18577184D02*
X11784230Y-18586708D01*
X11784230Y-18586708D02*
X11793754Y-18596231D01*
X11793754Y-18596231D02*
X11803278Y-18615279D01*
X11803278Y-18615279D02*
X11812802Y-18653374D01*
X11812802Y-18653374D02*
X11812802Y-18700993D01*
X11812802Y-18700993D02*
X11803278Y-18739088D01*
X11803278Y-18739088D02*
X11793754Y-18758136D01*
X11793754Y-18758136D02*
X11784230Y-18767660D01*
X11784230Y-18767660D02*
X11765183Y-18777184D01*
X11765183Y-18777184D02*
X11746135Y-18777184D01*
X11746135Y-18777184D02*
X11727087Y-18767660D01*
X11727087Y-18767660D02*
X11717563Y-18758136D01*
X11717563Y-18758136D02*
X11708040Y-18739088D01*
X11708040Y-18739088D02*
X11698516Y-18700993D01*
X11698516Y-18700993D02*
X11698516Y-18653374D01*
X11698516Y-18653374D02*
X11708040Y-18615279D01*
X11708040Y-18615279D02*
X11717563Y-18596231D01*
X11717563Y-18596231D02*
X11727087Y-18586708D01*
X11727087Y-18586708D02*
X11746135Y-18577184D01*
X11898516Y-18758136D02*
X11908040Y-18767660D01*
X11908040Y-18767660D02*
X11898516Y-18777184D01*
X11898516Y-18777184D02*
X11888992Y-18767660D01*
X11888992Y-18767660D02*
X11898516Y-18758136D01*
X11898516Y-18758136D02*
X11898516Y-18777184D01*
X12031849Y-18577184D02*
X12050897Y-18577184D01*
X12050897Y-18577184D02*
X12069944Y-18586708D01*
X12069944Y-18586708D02*
X12079468Y-18596231D01*
X12079468Y-18596231D02*
X12088992Y-18615279D01*
X12088992Y-18615279D02*
X12098516Y-18653374D01*
X12098516Y-18653374D02*
X12098516Y-18700993D01*
X12098516Y-18700993D02*
X12088992Y-18739088D01*
X12088992Y-18739088D02*
X12079468Y-18758136D01*
X12079468Y-18758136D02*
X12069944Y-18767660D01*
X12069944Y-18767660D02*
X12050897Y-18777184D01*
X12050897Y-18777184D02*
X12031849Y-18777184D01*
X12031849Y-18777184D02*
X12012802Y-18767660D01*
X12012802Y-18767660D02*
X12003278Y-18758136D01*
X12003278Y-18758136D02*
X11993754Y-18739088D01*
X11993754Y-18739088D02*
X11984230Y-18700993D01*
X11984230Y-18700993D02*
X11984230Y-18653374D01*
X11984230Y-18653374D02*
X11993754Y-18615279D01*
X11993754Y-18615279D02*
X12003278Y-18596231D01*
X12003278Y-18596231D02*
X12012802Y-18586708D01*
X12012802Y-18586708D02*
X12031849Y-18577184D01*
X12279468Y-18577184D02*
X12184230Y-18577184D01*
X12184230Y-18577184D02*
X12174706Y-18672422D01*
X12174706Y-18672422D02*
X12184230Y-18662898D01*
X12184230Y-18662898D02*
X12203278Y-18653374D01*
X12203278Y-18653374D02*
X12250897Y-18653374D01*
X12250897Y-18653374D02*
X12269944Y-18662898D01*
X12269944Y-18662898D02*
X12279468Y-18672422D01*
X12279468Y-18672422D02*
X12288992Y-18691469D01*
X12288992Y-18691469D02*
X12288992Y-18739088D01*
X12288992Y-18739088D02*
X12279468Y-18758136D01*
X12279468Y-18758136D02*
X12269944Y-18767660D01*
X12269944Y-18767660D02*
X12250897Y-18777184D01*
X12250897Y-18777184D02*
X12203278Y-18777184D01*
X12203278Y-18777184D02*
X12184230Y-18767660D01*
X12184230Y-18767660D02*
X12174706Y-18758136D01*
X12384230Y-18777184D02*
X12422325Y-18777184D01*
X12422325Y-18777184D02*
X12441373Y-18767660D01*
X12441373Y-18767660D02*
X12450897Y-18758136D01*
X12450897Y-18758136D02*
X12469944Y-18729565D01*
X12469944Y-18729565D02*
X12479468Y-18691469D01*
X12479468Y-18691469D02*
X12479468Y-18615279D01*
X12479468Y-18615279D02*
X12469944Y-18596231D01*
X12469944Y-18596231D02*
X12460421Y-18586708D01*
X12460421Y-18586708D02*
X12441373Y-18577184D01*
X12441373Y-18577184D02*
X12403278Y-18577184D01*
X12403278Y-18577184D02*
X12384230Y-18586708D01*
X12384230Y-18586708D02*
X12374706Y-18596231D01*
X12374706Y-18596231D02*
X12365183Y-18615279D01*
X12365183Y-18615279D02*
X12365183Y-18662898D01*
X12365183Y-18662898D02*
X12374706Y-18681946D01*
X12374706Y-18681946D02*
X12384230Y-18691469D01*
X12384230Y-18691469D02*
X12403278Y-18700993D01*
X12403278Y-18700993D02*
X12441373Y-18700993D01*
X12441373Y-18700993D02*
X12460421Y-18691469D01*
X12460421Y-18691469D02*
X12469944Y-18681946D01*
X12469944Y-18681946D02*
X12479468Y-18662898D01*
X12593754Y-18662898D02*
X12574706Y-18653374D01*
X12574706Y-18653374D02*
X12565183Y-18643850D01*
X12565183Y-18643850D02*
X12555659Y-18624803D01*
X12555659Y-18624803D02*
X12555659Y-18615279D01*
X12555659Y-18615279D02*
X12565183Y-18596231D01*
X12565183Y-18596231D02*
X12574706Y-18586708D01*
X12574706Y-18586708D02*
X12593754Y-18577184D01*
X12593754Y-18577184D02*
X12631849Y-18577184D01*
X12631849Y-18577184D02*
X12650897Y-18586708D01*
X12650897Y-18586708D02*
X12660421Y-18596231D01*
X12660421Y-18596231D02*
X12669944Y-18615279D01*
X12669944Y-18615279D02*
X12669944Y-18624803D01*
X12669944Y-18624803D02*
X12660421Y-18643850D01*
X12660421Y-18643850D02*
X12650897Y-18653374D01*
X12650897Y-18653374D02*
X12631849Y-18662898D01*
X12631849Y-18662898D02*
X12593754Y-18662898D01*
X12593754Y-18662898D02*
X12574706Y-18672422D01*
X12574706Y-18672422D02*
X12565183Y-18681946D01*
X12565183Y-18681946D02*
X12555659Y-18700993D01*
X12555659Y-18700993D02*
X12555659Y-18739088D01*
X12555659Y-18739088D02*
X12565183Y-18758136D01*
X12565183Y-18758136D02*
X12574706Y-18767660D01*
X12574706Y-18767660D02*
X12593754Y-18777184D01*
X12593754Y-18777184D02*
X12631849Y-18777184D01*
X12631849Y-18777184D02*
X12650897Y-18767660D01*
X12650897Y-18767660D02*
X12660421Y-18758136D01*
X12660421Y-18758136D02*
X12669944Y-18739088D01*
X12669944Y-18739088D02*
X12669944Y-18700993D01*
X12669944Y-18700993D02*
X12660421Y-18681946D01*
X12660421Y-18681946D02*
X12650897Y-18672422D01*
X12650897Y-18672422D02*
X12631849Y-18662898D01*
X12746135Y-18577184D02*
X12746135Y-18615279D01*
X12822325Y-18577184D02*
X12822325Y-18615279D01*
X13117564Y-18853374D02*
X13108040Y-18843850D01*
X13108040Y-18843850D02*
X13088992Y-18815279D01*
X13088992Y-18815279D02*
X13079468Y-18796231D01*
X13079468Y-18796231D02*
X13069945Y-18767660D01*
X13069945Y-18767660D02*
X13060421Y-18720041D01*
X13060421Y-18720041D02*
X13060421Y-18681946D01*
X13060421Y-18681946D02*
X13069945Y-18634327D01*
X13069945Y-18634327D02*
X13079468Y-18605755D01*
X13079468Y-18605755D02*
X13088992Y-18586708D01*
X13088992Y-18586708D02*
X13108040Y-18558136D01*
X13108040Y-18558136D02*
X13117564Y-18548612D01*
X13184230Y-18596231D02*
X13193754Y-18586708D01*
X13193754Y-18586708D02*
X13212802Y-18577184D01*
X13212802Y-18577184D02*
X13260421Y-18577184D01*
X13260421Y-18577184D02*
X13279468Y-18586708D01*
X13279468Y-18586708D02*
X13288992Y-18596231D01*
X13288992Y-18596231D02*
X13298516Y-18615279D01*
X13298516Y-18615279D02*
X13298516Y-18634327D01*
X13298516Y-18634327D02*
X13288992Y-18662898D01*
X13288992Y-18662898D02*
X13174706Y-18777184D01*
X13174706Y-18777184D02*
X13298516Y-18777184D01*
X13374706Y-18596231D02*
X13384230Y-18586708D01*
X13384230Y-18586708D02*
X13403278Y-18577184D01*
X13403278Y-18577184D02*
X13450897Y-18577184D01*
X13450897Y-18577184D02*
X13469945Y-18586708D01*
X13469945Y-18586708D02*
X13479468Y-18596231D01*
X13479468Y-18596231D02*
X13488992Y-18615279D01*
X13488992Y-18615279D02*
X13488992Y-18634327D01*
X13488992Y-18634327D02*
X13479468Y-18662898D01*
X13479468Y-18662898D02*
X13365183Y-18777184D01*
X13365183Y-18777184D02*
X13488992Y-18777184D01*
X13727087Y-18777184D02*
X13727087Y-18577184D01*
X13812802Y-18777184D02*
X13812802Y-18672422D01*
X13812802Y-18672422D02*
X13803278Y-18653374D01*
X13803278Y-18653374D02*
X13784230Y-18643850D01*
X13784230Y-18643850D02*
X13755659Y-18643850D01*
X13755659Y-18643850D02*
X13736611Y-18653374D01*
X13736611Y-18653374D02*
X13727087Y-18662898D01*
X13936611Y-18777184D02*
X13917564Y-18767660D01*
X13917564Y-18767660D02*
X13908040Y-18758136D01*
X13908040Y-18758136D02*
X13898516Y-18739088D01*
X13898516Y-18739088D02*
X13898516Y-18681946D01*
X13898516Y-18681946D02*
X13908040Y-18662898D01*
X13908040Y-18662898D02*
X13917564Y-18653374D01*
X13917564Y-18653374D02*
X13936611Y-18643850D01*
X13936611Y-18643850D02*
X13965183Y-18643850D01*
X13965183Y-18643850D02*
X13984230Y-18653374D01*
X13984230Y-18653374D02*
X13993754Y-18662898D01*
X13993754Y-18662898D02*
X14003278Y-18681946D01*
X14003278Y-18681946D02*
X14003278Y-18739088D01*
X14003278Y-18739088D02*
X13993754Y-18758136D01*
X13993754Y-18758136D02*
X13984230Y-18767660D01*
X13984230Y-18767660D02*
X13965183Y-18777184D01*
X13965183Y-18777184D02*
X13936611Y-18777184D01*
X14117564Y-18777184D02*
X14098516Y-18767660D01*
X14098516Y-18767660D02*
X14088992Y-18748612D01*
X14088992Y-18748612D02*
X14088992Y-18577184D01*
X14269945Y-18767660D02*
X14250897Y-18777184D01*
X14250897Y-18777184D02*
X14212802Y-18777184D01*
X14212802Y-18777184D02*
X14193754Y-18767660D01*
X14193754Y-18767660D02*
X14184230Y-18748612D01*
X14184230Y-18748612D02*
X14184230Y-18672422D01*
X14184230Y-18672422D02*
X14193754Y-18653374D01*
X14193754Y-18653374D02*
X14212802Y-18643850D01*
X14212802Y-18643850D02*
X14250897Y-18643850D01*
X14250897Y-18643850D02*
X14269945Y-18653374D01*
X14269945Y-18653374D02*
X14279468Y-18672422D01*
X14279468Y-18672422D02*
X14279468Y-18691469D01*
X14279468Y-18691469D02*
X14184230Y-18710517D01*
X14355659Y-18767660D02*
X14374707Y-18777184D01*
X14374707Y-18777184D02*
X14412802Y-18777184D01*
X14412802Y-18777184D02*
X14431849Y-18767660D01*
X14431849Y-18767660D02*
X14441373Y-18748612D01*
X14441373Y-18748612D02*
X14441373Y-18739088D01*
X14441373Y-18739088D02*
X14431849Y-18720041D01*
X14431849Y-18720041D02*
X14412802Y-18710517D01*
X14412802Y-18710517D02*
X14384230Y-18710517D01*
X14384230Y-18710517D02*
X14365183Y-18700993D01*
X14365183Y-18700993D02*
X14355659Y-18681946D01*
X14355659Y-18681946D02*
X14355659Y-18672422D01*
X14355659Y-18672422D02*
X14365183Y-18653374D01*
X14365183Y-18653374D02*
X14384230Y-18643850D01*
X14384230Y-18643850D02*
X14412802Y-18643850D01*
X14412802Y-18643850D02*
X14431849Y-18653374D01*
X14508040Y-18853374D02*
X14517564Y-18843850D01*
X14517564Y-18843850D02*
X14536611Y-18815279D01*
X14536611Y-18815279D02*
X14546135Y-18796231D01*
X14546135Y-18796231D02*
X14555659Y-18767660D01*
X14555659Y-18767660D02*
X14565183Y-18720041D01*
X14565183Y-18720041D02*
X14565183Y-18681946D01*
X14565183Y-18681946D02*
X14555659Y-18634327D01*
X14555659Y-18634327D02*
X14546135Y-18605755D01*
X14546135Y-18605755D02*
X14536611Y-18586708D01*
X14536611Y-18586708D02*
X14517564Y-18558136D01*
X14517564Y-18558136D02*
X14508040Y-18548612D01*
X9342501Y-18857700D02*
X9542501Y-19057700D01*
X9542501Y-18857700D02*
X9342501Y-19057700D01*
X9513212Y-19028411D02*
X9513212Y-18886989D01*
X9371789Y-18886989D01*
X9371789Y-19028411D01*
X9513212Y-19028411D01*
X9784230Y-18849184D02*
X9908040Y-18849184D01*
X9908040Y-18849184D02*
X9841373Y-18925374D01*
X9841373Y-18925374D02*
X9869944Y-18925374D01*
X9869944Y-18925374D02*
X9888992Y-18934898D01*
X9888992Y-18934898D02*
X9898516Y-18944422D01*
X9898516Y-18944422D02*
X9908040Y-18963469D01*
X9908040Y-18963469D02*
X9908040Y-19011088D01*
X9908040Y-19011088D02*
X9898516Y-19030136D01*
X9898516Y-19030136D02*
X9888992Y-19039660D01*
X9888992Y-19039660D02*
X9869944Y-19049184D01*
X9869944Y-19049184D02*
X9812801Y-19049184D01*
X9812801Y-19049184D02*
X9793754Y-19039660D01*
X9793754Y-19039660D02*
X9784230Y-19030136D01*
X9993754Y-19030136D02*
X10003278Y-19039660D01*
X10003278Y-19039660D02*
X9993754Y-19049184D01*
X9993754Y-19049184D02*
X9984230Y-19039660D01*
X9984230Y-19039660D02*
X9993754Y-19030136D01*
X9993754Y-19030136D02*
X9993754Y-19049184D01*
X10079468Y-18868231D02*
X10088992Y-18858708D01*
X10088992Y-18858708D02*
X10108040Y-18849184D01*
X10108040Y-18849184D02*
X10155659Y-18849184D01*
X10155659Y-18849184D02*
X10174706Y-18858708D01*
X10174706Y-18858708D02*
X10184230Y-18868231D01*
X10184230Y-18868231D02*
X10193754Y-18887279D01*
X10193754Y-18887279D02*
X10193754Y-18906327D01*
X10193754Y-18906327D02*
X10184230Y-18934898D01*
X10184230Y-18934898D02*
X10069944Y-19049184D01*
X10069944Y-19049184D02*
X10193754Y-19049184D01*
X10317563Y-18849184D02*
X10336611Y-18849184D01*
X10336611Y-18849184D02*
X10355659Y-18858708D01*
X10355659Y-18858708D02*
X10365182Y-18868231D01*
X10365182Y-18868231D02*
X10374706Y-18887279D01*
X10374706Y-18887279D02*
X10384230Y-18925374D01*
X10384230Y-18925374D02*
X10384230Y-18972993D01*
X10384230Y-18972993D02*
X10374706Y-19011088D01*
X10374706Y-19011088D02*
X10365182Y-19030136D01*
X10365182Y-19030136D02*
X10355659Y-19039660D01*
X10355659Y-19039660D02*
X10336611Y-19049184D01*
X10336611Y-19049184D02*
X10317563Y-19049184D01*
X10317563Y-19049184D02*
X10298516Y-19039660D01*
X10298516Y-19039660D02*
X10288992Y-19030136D01*
X10288992Y-19030136D02*
X10279468Y-19011088D01*
X10279468Y-19011088D02*
X10269944Y-18972993D01*
X10269944Y-18972993D02*
X10269944Y-18925374D01*
X10269944Y-18925374D02*
X10279468Y-18887279D01*
X10279468Y-18887279D02*
X10288992Y-18868231D01*
X10288992Y-18868231D02*
X10298516Y-18858708D01*
X10298516Y-18858708D02*
X10317563Y-18849184D01*
X10508040Y-18849184D02*
X10527087Y-18849184D01*
X10527087Y-18849184D02*
X10546135Y-18858708D01*
X10546135Y-18858708D02*
X10555659Y-18868231D01*
X10555659Y-18868231D02*
X10565182Y-18887279D01*
X10565182Y-18887279D02*
X10574706Y-18925374D01*
X10574706Y-18925374D02*
X10574706Y-18972993D01*
X10574706Y-18972993D02*
X10565182Y-19011088D01*
X10565182Y-19011088D02*
X10555659Y-19030136D01*
X10555659Y-19030136D02*
X10546135Y-19039660D01*
X10546135Y-19039660D02*
X10527087Y-19049184D01*
X10527087Y-19049184D02*
X10508040Y-19049184D01*
X10508040Y-19049184D02*
X10488992Y-19039660D01*
X10488992Y-19039660D02*
X10479468Y-19030136D01*
X10479468Y-19030136D02*
X10469944Y-19011088D01*
X10469944Y-19011088D02*
X10460421Y-18972993D01*
X10460421Y-18972993D02*
X10460421Y-18925374D01*
X10460421Y-18925374D02*
X10469944Y-18887279D01*
X10469944Y-18887279D02*
X10479468Y-18868231D01*
X10479468Y-18868231D02*
X10488992Y-18858708D01*
X10488992Y-18858708D02*
X10508040Y-18849184D01*
X10660421Y-19049184D02*
X10660421Y-18915850D01*
X10660421Y-18934898D02*
X10669944Y-18925374D01*
X10669944Y-18925374D02*
X10688992Y-18915850D01*
X10688992Y-18915850D02*
X10717563Y-18915850D01*
X10717563Y-18915850D02*
X10736611Y-18925374D01*
X10736611Y-18925374D02*
X10746135Y-18944422D01*
X10746135Y-18944422D02*
X10746135Y-19049184D01*
X10746135Y-18944422D02*
X10755659Y-18925374D01*
X10755659Y-18925374D02*
X10774706Y-18915850D01*
X10774706Y-18915850D02*
X10803278Y-18915850D01*
X10803278Y-18915850D02*
X10822325Y-18925374D01*
X10822325Y-18925374D02*
X10831849Y-18944422D01*
X10831849Y-18944422D02*
X10831849Y-19049184D01*
X10927087Y-19049184D02*
X10927087Y-18915850D01*
X10927087Y-18934898D02*
X10936611Y-18925374D01*
X10936611Y-18925374D02*
X10955659Y-18915850D01*
X10955659Y-18915850D02*
X10984230Y-18915850D01*
X10984230Y-18915850D02*
X11003278Y-18925374D01*
X11003278Y-18925374D02*
X11012802Y-18944422D01*
X11012802Y-18944422D02*
X11012802Y-19049184D01*
X11012802Y-18944422D02*
X11022325Y-18925374D01*
X11022325Y-18925374D02*
X11041373Y-18915850D01*
X11041373Y-18915850D02*
X11069944Y-18915850D01*
X11069944Y-18915850D02*
X11088992Y-18925374D01*
X11088992Y-18925374D02*
X11098516Y-18944422D01*
X11098516Y-18944422D02*
X11098516Y-19049184D01*
X11488992Y-18839660D02*
X11317563Y-19096803D01*
X11746135Y-18849184D02*
X11765183Y-18849184D01*
X11765183Y-18849184D02*
X11784230Y-18858708D01*
X11784230Y-18858708D02*
X11793754Y-18868231D01*
X11793754Y-18868231D02*
X11803278Y-18887279D01*
X11803278Y-18887279D02*
X11812802Y-18925374D01*
X11812802Y-18925374D02*
X11812802Y-18972993D01*
X11812802Y-18972993D02*
X11803278Y-19011088D01*
X11803278Y-19011088D02*
X11793754Y-19030136D01*
X11793754Y-19030136D02*
X11784230Y-19039660D01*
X11784230Y-19039660D02*
X11765183Y-19049184D01*
X11765183Y-19049184D02*
X11746135Y-19049184D01*
X11746135Y-19049184D02*
X11727087Y-19039660D01*
X11727087Y-19039660D02*
X11717563Y-19030136D01*
X11717563Y-19030136D02*
X11708040Y-19011088D01*
X11708040Y-19011088D02*
X11698516Y-18972993D01*
X11698516Y-18972993D02*
X11698516Y-18925374D01*
X11698516Y-18925374D02*
X11708040Y-18887279D01*
X11708040Y-18887279D02*
X11717563Y-18868231D01*
X11717563Y-18868231D02*
X11727087Y-18858708D01*
X11727087Y-18858708D02*
X11746135Y-18849184D01*
X11898516Y-19030136D02*
X11908040Y-19039660D01*
X11908040Y-19039660D02*
X11898516Y-19049184D01*
X11898516Y-19049184D02*
X11888992Y-19039660D01*
X11888992Y-19039660D02*
X11898516Y-19030136D01*
X11898516Y-19030136D02*
X11898516Y-19049184D01*
X12098516Y-19049184D02*
X11984230Y-19049184D01*
X12041373Y-19049184D02*
X12041373Y-18849184D01*
X12041373Y-18849184D02*
X12022325Y-18877755D01*
X12022325Y-18877755D02*
X12003278Y-18896803D01*
X12003278Y-18896803D02*
X11984230Y-18906327D01*
X12174706Y-18868231D02*
X12184230Y-18858708D01*
X12184230Y-18858708D02*
X12203278Y-18849184D01*
X12203278Y-18849184D02*
X12250897Y-18849184D01*
X12250897Y-18849184D02*
X12269944Y-18858708D01*
X12269944Y-18858708D02*
X12279468Y-18868231D01*
X12279468Y-18868231D02*
X12288992Y-18887279D01*
X12288992Y-18887279D02*
X12288992Y-18906327D01*
X12288992Y-18906327D02*
X12279468Y-18934898D01*
X12279468Y-18934898D02*
X12165183Y-19049184D01*
X12165183Y-19049184D02*
X12288992Y-19049184D01*
X12460421Y-18849184D02*
X12422325Y-18849184D01*
X12422325Y-18849184D02*
X12403278Y-18858708D01*
X12403278Y-18858708D02*
X12393754Y-18868231D01*
X12393754Y-18868231D02*
X12374706Y-18896803D01*
X12374706Y-18896803D02*
X12365183Y-18934898D01*
X12365183Y-18934898D02*
X12365183Y-19011088D01*
X12365183Y-19011088D02*
X12374706Y-19030136D01*
X12374706Y-19030136D02*
X12384230Y-19039660D01*
X12384230Y-19039660D02*
X12403278Y-19049184D01*
X12403278Y-19049184D02*
X12441373Y-19049184D01*
X12441373Y-19049184D02*
X12460421Y-19039660D01*
X12460421Y-19039660D02*
X12469944Y-19030136D01*
X12469944Y-19030136D02*
X12479468Y-19011088D01*
X12479468Y-19011088D02*
X12479468Y-18963469D01*
X12479468Y-18963469D02*
X12469944Y-18944422D01*
X12469944Y-18944422D02*
X12460421Y-18934898D01*
X12460421Y-18934898D02*
X12441373Y-18925374D01*
X12441373Y-18925374D02*
X12403278Y-18925374D01*
X12403278Y-18925374D02*
X12384230Y-18934898D01*
X12384230Y-18934898D02*
X12374706Y-18944422D01*
X12374706Y-18944422D02*
X12365183Y-18963469D01*
X12603278Y-18849184D02*
X12622325Y-18849184D01*
X12622325Y-18849184D02*
X12641373Y-18858708D01*
X12641373Y-18858708D02*
X12650897Y-18868231D01*
X12650897Y-18868231D02*
X12660421Y-18887279D01*
X12660421Y-18887279D02*
X12669944Y-18925374D01*
X12669944Y-18925374D02*
X12669944Y-18972993D01*
X12669944Y-18972993D02*
X12660421Y-19011088D01*
X12660421Y-19011088D02*
X12650897Y-19030136D01*
X12650897Y-19030136D02*
X12641373Y-19039660D01*
X12641373Y-19039660D02*
X12622325Y-19049184D01*
X12622325Y-19049184D02*
X12603278Y-19049184D01*
X12603278Y-19049184D02*
X12584230Y-19039660D01*
X12584230Y-19039660D02*
X12574706Y-19030136D01*
X12574706Y-19030136D02*
X12565183Y-19011088D01*
X12565183Y-19011088D02*
X12555659Y-18972993D01*
X12555659Y-18972993D02*
X12555659Y-18925374D01*
X12555659Y-18925374D02*
X12565183Y-18887279D01*
X12565183Y-18887279D02*
X12574706Y-18868231D01*
X12574706Y-18868231D02*
X12584230Y-18858708D01*
X12584230Y-18858708D02*
X12603278Y-18849184D01*
X12746135Y-18849184D02*
X12746135Y-18887279D01*
X12822325Y-18849184D02*
X12822325Y-18887279D01*
X13117564Y-19125374D02*
X13108040Y-19115850D01*
X13108040Y-19115850D02*
X13088992Y-19087279D01*
X13088992Y-19087279D02*
X13079468Y-19068231D01*
X13079468Y-19068231D02*
X13069945Y-19039660D01*
X13069945Y-19039660D02*
X13060421Y-18992041D01*
X13060421Y-18992041D02*
X13060421Y-18953946D01*
X13060421Y-18953946D02*
X13069945Y-18906327D01*
X13069945Y-18906327D02*
X13079468Y-18877755D01*
X13079468Y-18877755D02*
X13088992Y-18858708D01*
X13088992Y-18858708D02*
X13108040Y-18830136D01*
X13108040Y-18830136D02*
X13117564Y-18820612D01*
X13279468Y-18915850D02*
X13279468Y-19049184D01*
X13231849Y-18839660D02*
X13184230Y-18982517D01*
X13184230Y-18982517D02*
X13308040Y-18982517D01*
X13536611Y-19049184D02*
X13536611Y-18849184D01*
X13622326Y-19049184D02*
X13622326Y-18944422D01*
X13622326Y-18944422D02*
X13612802Y-18925374D01*
X13612802Y-18925374D02*
X13593754Y-18915850D01*
X13593754Y-18915850D02*
X13565183Y-18915850D01*
X13565183Y-18915850D02*
X13546135Y-18925374D01*
X13546135Y-18925374D02*
X13536611Y-18934898D01*
X13746135Y-19049184D02*
X13727087Y-19039660D01*
X13727087Y-19039660D02*
X13717564Y-19030136D01*
X13717564Y-19030136D02*
X13708040Y-19011088D01*
X13708040Y-19011088D02*
X13708040Y-18953946D01*
X13708040Y-18953946D02*
X13717564Y-18934898D01*
X13717564Y-18934898D02*
X13727087Y-18925374D01*
X13727087Y-18925374D02*
X13746135Y-18915850D01*
X13746135Y-18915850D02*
X13774707Y-18915850D01*
X13774707Y-18915850D02*
X13793754Y-18925374D01*
X13793754Y-18925374D02*
X13803278Y-18934898D01*
X13803278Y-18934898D02*
X13812802Y-18953946D01*
X13812802Y-18953946D02*
X13812802Y-19011088D01*
X13812802Y-19011088D02*
X13803278Y-19030136D01*
X13803278Y-19030136D02*
X13793754Y-19039660D01*
X13793754Y-19039660D02*
X13774707Y-19049184D01*
X13774707Y-19049184D02*
X13746135Y-19049184D01*
X13927087Y-19049184D02*
X13908040Y-19039660D01*
X13908040Y-19039660D02*
X13898516Y-19020612D01*
X13898516Y-19020612D02*
X13898516Y-18849184D01*
X14079468Y-19039660D02*
X14060421Y-19049184D01*
X14060421Y-19049184D02*
X14022326Y-19049184D01*
X14022326Y-19049184D02*
X14003278Y-19039660D01*
X14003278Y-19039660D02*
X13993754Y-19020612D01*
X13993754Y-19020612D02*
X13993754Y-18944422D01*
X13993754Y-18944422D02*
X14003278Y-18925374D01*
X14003278Y-18925374D02*
X14022326Y-18915850D01*
X14022326Y-18915850D02*
X14060421Y-18915850D01*
X14060421Y-18915850D02*
X14079468Y-18925374D01*
X14079468Y-18925374D02*
X14088992Y-18944422D01*
X14088992Y-18944422D02*
X14088992Y-18963469D01*
X14088992Y-18963469D02*
X13993754Y-18982517D01*
X14165183Y-19039660D02*
X14184230Y-19049184D01*
X14184230Y-19049184D02*
X14222326Y-19049184D01*
X14222326Y-19049184D02*
X14241373Y-19039660D01*
X14241373Y-19039660D02*
X14250897Y-19020612D01*
X14250897Y-19020612D02*
X14250897Y-19011088D01*
X14250897Y-19011088D02*
X14241373Y-18992041D01*
X14241373Y-18992041D02*
X14222326Y-18982517D01*
X14222326Y-18982517D02*
X14193754Y-18982517D01*
X14193754Y-18982517D02*
X14174707Y-18972993D01*
X14174707Y-18972993D02*
X14165183Y-18953946D01*
X14165183Y-18953946D02*
X14165183Y-18944422D01*
X14165183Y-18944422D02*
X14174707Y-18925374D01*
X14174707Y-18925374D02*
X14193754Y-18915850D01*
X14193754Y-18915850D02*
X14222326Y-18915850D01*
X14222326Y-18915850D02*
X14241373Y-18925374D01*
X14317564Y-19125374D02*
X14327088Y-19115850D01*
X14327088Y-19115850D02*
X14346135Y-19087279D01*
X14346135Y-19087279D02*
X14355659Y-19068231D01*
X14355659Y-19068231D02*
X14365183Y-19039660D01*
X14365183Y-19039660D02*
X14374707Y-18992041D01*
X14374707Y-18992041D02*
X14374707Y-18953946D01*
X14374707Y-18953946D02*
X14365183Y-18906327D01*
X14365183Y-18906327D02*
X14355659Y-18877755D01*
X14355659Y-18877755D02*
X14346135Y-18858708D01*
X14346135Y-18858708D02*
X14327088Y-18830136D01*
X14327088Y-18830136D02*
X14317564Y-18820612D01*
M02*
