M48
; DRILL file {KiCad 8.0.3} date 2025-07-22T23:59:44+0100
; FORMAT={-:-/ absolute / metric / decimal}
; #@! TF.CreationDate,2025-07-22T23:59:44+01:00
; #@! TF.GenerationSoftware,Kicad,Pcbnew,8.0.3
; #@! TF.FileFunction,Plated,1,4,PTH
FMAT,2
METRIC
; #@! TA.AperFunction,Plated,PTH,ViaDrill
T1C0.300
; #@! TA.AperFunction,Plated,PTH,ComponentDrill
T2C0.600
; #@! TA.AperFunction,Plated,PTH,ComponentDrill
T3C0.700
; #@! TA.AperFunction,Plated,PTH,ComponentDrill
T4C0.800
; #@! TA.AperFunction,Plated,PTH,ViaDrill
T5C1.000
; #@! TA.AperFunction,Plated,PTH,ComponentDrill
T6C1.000
; #@! TA.AperFunction,Plated,PTH,ComponentDrill
T7C1.520
; #@! TA.AperFunction,Plated,PTH,ComponentDrill
T8C3.200
%
G90
G05
T1
X99.0Y-153.0
X100.7Y-114.05
X102.0Y-153.0
X104.7Y-120.1
X104.95Y-151.375
X105.0Y-79.7
X105.0Y-123.55
X105.0Y-129.5
X105.05Y-121.55
X105.125Y-112.7
X105.2Y-138.0
X105.412Y-105.812
X105.45Y-102.3
X105.727Y-137.398
X105.967Y-119.717
X106.662Y-148.338
X106.925Y-135.375
X107.5Y-109.5
X107.5Y-114.0
X107.5Y-127.0
X108.5Y-88.0
X108.5Y-91.0
X108.5Y-95.0
X108.5Y-116.0
X108.95Y-108.1
X109.0Y-86.0
X109.0Y-138.0
X109.1Y-110.0
X109.125Y-94.0
X109.286Y-131.0
X109.298Y-104.379
X109.9Y-112.25
X109.975Y-107.025
X110.5Y-81.0
X110.5Y-136.5
X111.0Y-108.5
X111.0Y-149.0
X111.05Y-119.5
X111.15Y-126.65
X111.171Y-121.2
X111.2Y-103.35
X111.7Y-110.15
X111.875Y-133.0
X111.9Y-122.3
X111.95Y-155.45
X112.0Y-60.0
X112.0Y-105.5
X112.5Y-130.0
X112.55Y-89.55
X112.55Y-93.0
X112.75Y-94.3
X112.775Y-107.725
X113.0Y-95.5
X113.0Y-97.0
X113.0Y-115.625
X113.31Y-117.24
X113.396Y-148.896
X113.5Y-114.0
X113.5Y-150.0
X113.5Y-151.5
X113.559Y-87.625
X113.881Y-127.119
X114.0Y-83.3
X114.0Y-128.5
X114.0Y-137.0
X114.125Y-91.321
X114.3Y-70.69
X114.5Y-98.5
X114.5Y-100.0
X115.0Y-102.024
X115.033Y-102.875
X115.04Y-119.5
X115.058Y-117.442
X115.075Y-109.175
X115.119Y-125.881
X115.5Y-65.0
X115.991Y-114.2
X115.991Y-115.625
X116.0Y-102.5
X116.13Y-88.375
X116.192Y-104.692
X116.318Y-86.318
X116.375Y-90.975
X116.375Y-93.2
X116.5Y-107.5
X116.774Y-100.774
X117.0Y-73.0
X117.5Y-102.5
X117.5Y-125.0
X117.5Y-139.5
X117.5Y-145.5
X117.7Y-90.3
X117.7Y-141.675
X117.808Y-113.808
X117.841Y-104.371
X117.897Y-119.5
X117.897Y-126.0
X117.975Y-94.375
X118.0Y-74.0
X118.0Y-88.0
X118.0Y-96.0
X118.0Y-155.0
X118.024Y-92.024
X118.096Y-116.98
X118.133Y-109.483
X118.4Y-148.05
X118.434Y-89.625
X118.7Y-105.0
X118.875Y-98.648
X119.0Y-75.0
X119.0Y-89.0
X119.0Y-162.0
X119.0Y-163.0
X119.25Y-87.1
X119.375Y-92.0
X119.375Y-119.5
X119.5Y-93.5
X119.5Y-107.5
X119.6Y-147.15
X119.71Y-116.25
X120.0Y-114.375
X120.0Y-76.0
X120.0Y-117.0
X120.375Y-125.6
X120.418Y-96.832
X120.485Y-95.905
X120.5Y-117.625
X120.5Y-90.384
X120.5Y-93.0
X120.6Y-53.5
X120.8Y-100.774
X120.852Y-93.73
X121.0Y-54.5
X121.1Y-109.975
X121.392Y-119.4
X121.412Y-118.364
X121.428Y-89.428
X121.5Y-91.974
X121.5Y-102.5
X121.816Y-93.432
X121.875Y-116.566
X122.0Y-124.0
X122.191Y-113.925
X122.469Y-103.5
X122.5Y-102.625
X122.821Y-151.2
X122.825Y-93.299
X122.825Y-99.699
X122.875Y-121.65
X122.99Y-116.51
X123.0Y-92.0
X123.0Y-109.5
X123.0Y-120.4
X123.125Y-114.375
X123.125Y-127.475
X123.249Y-89.375
X123.45Y-59.75
X123.468Y-97.87
X123.65Y-145.35
X123.8Y-50.7
X123.8Y-92.0
X123.8Y-104.125
X123.822Y-105.186
X124.0Y-53.5
X124.175Y-54.5
X124.395Y-99.524
X124.75Y-102.875
X124.81Y-106.11
X124.9Y-97.95
X125.0Y-94.5
X125.066Y-93.625
X125.137Y-92.137
X125.62Y-89.886
X125.825Y-76.675
X126.005Y-96.101
X126.125Y-66.025
X126.4Y-126.0
X126.692Y-98.192
X126.7Y-104.634
X126.775Y-106.8
X126.8Y-50.7
X127.2Y-100.774
X127.25Y-93.8
X127.409Y-115.009
X127.625Y-99.1
X128.0Y-59.3
X128.175Y-89.4
X128.209Y-103.376
X128.25Y-100.75
X128.4Y-91.125
X128.5Y-110.0
X128.5Y-110.8
X128.625Y-102.024
X128.7Y-54.5
X128.875Y-98.678
X129.0Y-121.8
X129.0Y-142.425
X129.0Y-144.5
X129.0Y-154.0
X129.032Y-117.856
X129.4Y-120.2
X129.5Y-104.25
X129.95Y-75.45
X130.029Y-107.204
X130.108Y-94.187
X130.5Y-108.5
X130.85Y-112.125
X130.875Y-107.25
X130.875Y-109.5
X130.9Y-90.5
X131.075Y-119.0
X131.491Y-93.58
X131.5Y-108.5
X131.652Y-96.792
X132.0Y-162.0
X132.0Y-163.0
X132.125Y-109.5
X132.24Y-59.64
X132.35Y-105.752
X132.5Y-52.5
X132.5Y-65.0
X133.125Y-97.083
X133.19Y-102.692
X133.35Y-83.5
X133.76Y-59.38
X133.841Y-115.801
X133.843Y-58.413
X134.05Y-98.1
X134.05Y-125.25
X134.116Y-80.0
X134.25Y-109.45
X134.84Y-102.07
X134.915Y-149.45
X134.915Y-151.2
X134.975Y-90.375
X135.112Y-135.65
X135.146Y-80.096
X135.35Y-92.225
X136.0Y-138.5
X136.258Y-107.124
X136.3Y-105.225
X136.5Y-96.0
X136.5Y-110.5
X137.03Y-56.59
X137.5Y-60.5
X137.525Y-78.8
X137.675Y-82.9
X138.0Y-103.125
X138.175Y-137.65
X139.0Y-103.4
X139.0Y-142.0
X139.641Y-116.459
X140.104Y-60.8
X140.2Y-95.8
X140.5Y-115.55
X141.0Y-144.0
X141.0Y-146.5
X141.025Y-65.9
X141.149Y-110.903
X141.175Y-116.225
X141.2Y-84.875
X141.838Y-114.237
X142.675Y-114.125
X142.875Y-135.725
X143.2Y-102.0
X143.344Y-138.772
X143.375Y-67.9
X143.675Y-60.8
X143.675Y-120.5
X143.675Y-123.04
X143.7Y-76.95
X143.75Y-116.95
X144.169Y-138.581
X145.2Y-110.1
X145.95Y-101.5
X147.0Y-96.0
X148.0Y-153.0
X149.325Y-103.375
X150.025Y-56.85
X150.4Y-91.0
X150.85Y-98.9
X151.0Y-153.0
X151.175Y-109.175
X153.6Y-96.2
T4
X152.896Y-104.134
X152.896Y-106.134
X152.896Y-108.134
T5
X99.0Y-56.5
T6
X106.2Y-157.475
X106.2Y-160.015
X106.2Y-162.555
X109.8Y-157.475
X109.8Y-160.015
X109.8Y-162.555
X112.5Y-69.42
X112.5Y-71.96
X112.5Y-74.5
X112.5Y-77.04
X113.4Y-157.475
X113.4Y-160.015
X113.4Y-162.555
X117.0Y-157.475
X117.0Y-160.015
X117.0Y-162.555
X122.2Y-83.35
X122.2Y-87.0
X124.74Y-83.35
X124.74Y-87.0
X127.28Y-83.35
X127.28Y-87.0
X129.82Y-83.35
X129.82Y-87.0
X132.975Y-113.0
X134.0Y-157.46
X134.0Y-160.0
X134.0Y-162.54
X134.55Y-71.725
X135.515Y-113.0
X137.6Y-157.475
X137.6Y-160.015
X137.6Y-162.555
X137.975Y-99.0
X138.055Y-113.0
X139.55Y-71.725
X140.515Y-99.0
X141.2Y-157.46
X141.2Y-160.0
X141.2Y-162.54
X143.055Y-99.0
X144.8Y-157.475
X144.8Y-160.015
X144.8Y-162.555
T7
X100.0Y-62.52
X100.0Y-67.6
X100.0Y-73.0
X100.0Y-78.08
X100.0Y-134.12
X100.0Y-139.2
X100.0Y-144.62
X100.0Y-149.7
X110.05Y-48.95
X115.13Y-48.95
X122.97Y-160.1
X128.05Y-160.1
X135.96Y-49.0
X141.04Y-49.0
X151.0Y-62.52
X151.0Y-67.6
X151.0Y-73.06
X151.0Y-78.14
X151.0Y-134.06
X151.0Y-139.14
X151.0Y-144.58
X151.0Y-149.66
T8
X100.0Y-49.0
X100.0Y-160.0
X151.0Y-49.0
X151.0Y-160.0
T2
X121.23Y-47.475G85X121.23Y-46.675
G05
X121.23Y-51.805G85X121.23Y-50.705
G05
X129.87Y-47.475G85X129.87Y-46.675
G05
X129.87Y-51.805G85X129.87Y-50.705
G05
T3
X152.496Y-101.934G85X153.296Y-101.934
G05
X152.496Y-110.334G85X153.296Y-110.334
G05
M30
