%TF.GenerationSoftware,KiCad,Pcbnew,8.0.3*%
%TF.CreationDate,2025-07-22T23:59:42+01:00*%
%TF.ProjectId,Athena,41746865-6e61-42e6-9b69-6361645f7063,rev?*%
%TF.SameCoordinates,Original*%
%TF.FileFunction,Legend,Bot*%
%TF.FilePolarity,Positive*%
%FSLAX46Y46*%
G04 Gerber Fmt 4.6, Leading zero omitted, Abs format (unit mm)*
G04 Created by KiCad (PCBNEW 8.0.3) date 2025-07-22 23:59:42*
%MOMM*%
%LPD*%
G01*
G04 APERTURE LIST*
G04 Aperture macros list*
%AMRoundRect*
0 Rectangle with rounded corners*
0 $1 Rounding radius*
0 $2 $3 $4 $5 $6 $7 $8 $9 X,Y pos of 4 corners*
0 Add a 4 corners polygon primitive as box body*
4,1,4,$2,$3,$4,$5,$6,$7,$8,$9,$2,$3,0*
0 Add four circle primitives for the rounded corners*
1,1,$1+$1,$2,$3*
1,1,$1+$1,$4,$5*
1,1,$1+$1,$6,$7*
1,1,$1+$1,$8,$9*
0 Add four rect primitives between the rounded corners*
20,1,$1+$1,$2,$3,$4,$5,0*
20,1,$1+$1,$4,$5,$6,$7,0*
20,1,$1+$1,$6,$7,$8,$9,0*
20,1,$1+$1,$8,$9,$2,$3,0*%
G04 Aperture macros list end*
%ADD10C,0.120000*%
%ADD11R,3.000000X3.000000*%
%ADD12C,3.000000*%
%ADD13R,1.700000X1.700000*%
%ADD14O,1.700000X1.700000*%
%ADD15C,0.900000*%
%ADD16C,6.400000*%
%ADD17C,0.650000*%
%ADD18O,1.000000X2.100000*%
%ADD19O,1.000000X1.800000*%
%ADD20RoundRect,0.102000X0.654000X-0.654000X0.654000X0.654000X-0.654000X0.654000X-0.654000X-0.654000X0*%
%ADD21C,1.512000*%
%ADD22O,2.664000X1.434000*%
%ADD23R,2.000000X2.000000*%
%ADD24C,2.000000*%
%ADD25R,1.000000X1.500000*%
%ADD26R,1.500000X1.000000*%
G04 APERTURE END LIST*
D10*
%TO.C,JP5*%
X133060000Y-55840000D02*
X135860000Y-55840000D01*
X133060000Y-57840000D02*
X133060000Y-55840000D01*
X135860000Y-55840000D02*
X135860000Y-57840000D01*
X135860000Y-57840000D02*
X133060000Y-57840000D01*
%TO.C,JP2*%
X135450001Y-142500000D02*
X138250001Y-142500000D01*
X135450001Y-144500000D02*
X135450001Y-142500000D01*
X138250001Y-142500000D02*
X138250001Y-144500000D01*
X138250001Y-144500000D02*
X135450001Y-144500000D01*
%TO.C,JP3*%
X135450001Y-148000000D02*
X138250001Y-148000000D01*
X135450001Y-150000000D02*
X135450001Y-148000000D01*
X138250001Y-148000000D02*
X138250001Y-150000000D01*
X138250001Y-150000000D02*
X135450001Y-150000000D01*
%TO.C,JP4*%
X135450001Y-145146447D02*
X138250001Y-145146447D01*
X135450001Y-147146447D02*
X135450001Y-145146447D01*
X138250001Y-145146447D02*
X138250001Y-147146447D01*
X138250001Y-147146447D02*
X135450001Y-147146447D01*
%TO.C,JP1*%
X114500000Y-143100000D02*
X116500000Y-143100000D01*
X114500000Y-145900000D02*
X114500000Y-143100000D01*
X116500000Y-143100000D02*
X116500000Y-145900000D01*
X116500000Y-145900000D02*
X114500000Y-145900000D01*
%TD*%
%LPC*%
D11*
%TO.C,J11*%
X151000000Y-149660000D03*
D12*
X151000000Y-144580000D03*
%TD*%
D11*
%TO.C,J6*%
X122970000Y-160100000D03*
D12*
X128050000Y-160100000D03*
%TD*%
D13*
%TO.C,U6*%
X134000000Y-157460000D03*
D14*
X134000000Y-160000000D03*
X134000000Y-162540000D03*
%TD*%
D11*
%TO.C,J1*%
X151000000Y-78140000D03*
D12*
X151000000Y-73060000D03*
%TD*%
D13*
%TO.C,U21*%
X122200000Y-87000000D03*
D14*
X124740000Y-87000000D03*
X127280000Y-87000000D03*
X129820000Y-87000000D03*
%TD*%
D11*
%TO.C,J4*%
X100000000Y-144620000D03*
D12*
X100000000Y-149700000D03*
%TD*%
D15*
%TO.C,J12*%
X100500000Y-87500000D03*
X100500000Y-95500000D03*
%TD*%
D13*
%TO.C,U13*%
X117000000Y-157475000D03*
D14*
X117000000Y-160015000D03*
X117000000Y-162555000D03*
%TD*%
D13*
%TO.C,U9*%
X144800000Y-157475000D03*
D14*
X144800000Y-160015000D03*
X144800000Y-162555000D03*
%TD*%
D11*
%TO.C,J5*%
X151000000Y-67600000D03*
D12*
X151000000Y-62520000D03*
%TD*%
D13*
%TO.C,U12*%
X113400000Y-157475000D03*
D14*
X113400000Y-160015000D03*
X113400000Y-162555000D03*
%TD*%
D11*
%TO.C,J3*%
X100000000Y-134120000D03*
D12*
X100000000Y-139200000D03*
%TD*%
D16*
%TO.C,REF\u002A\u002A*%
X151000000Y-160000000D03*
%TD*%
D13*
%TO.C,U7*%
X137600000Y-157475000D03*
D14*
X137600000Y-160015000D03*
X137600000Y-162555000D03*
%TD*%
D13*
%TO.C,U4*%
X112500000Y-69420000D03*
D14*
X112500000Y-71960000D03*
X112500000Y-74500000D03*
X112500000Y-77040000D03*
%TD*%
D11*
%TO.C,J7*%
X100000000Y-73000000D03*
D12*
X100000000Y-78080000D03*
%TD*%
D16*
%TO.C,REF\u002A\u002A*%
X151000000Y-49000000D03*
%TD*%
D13*
%TO.C,U10*%
X106200000Y-157475000D03*
D14*
X106200000Y-160015000D03*
X106200000Y-162555000D03*
%TD*%
D16*
%TO.C,REF\u002A\u002A*%
X100000000Y-49000000D03*
%TD*%
D17*
%TO.C,J13*%
X128440000Y-50755000D03*
X122660000Y-50755000D03*
D18*
X129870000Y-51255000D03*
D19*
X129870000Y-47075000D03*
D18*
X121230000Y-51255000D03*
D19*
X121230000Y-47075000D03*
%TD*%
D11*
%TO.C,J2*%
X141040000Y-49000000D03*
D12*
X135960000Y-49000000D03*
%TD*%
D11*
%TO.C,J10*%
X151000000Y-139140000D03*
D12*
X151000000Y-134060000D03*
%TD*%
D13*
%TO.C,U11*%
X109800000Y-157475000D03*
D14*
X109800000Y-160015000D03*
X109800000Y-162555000D03*
%TD*%
D13*
%TO.C,U19*%
X132975000Y-113000000D03*
D14*
X135515000Y-113000000D03*
X138055000Y-113000000D03*
%TD*%
D13*
%TO.C,U22*%
X122200000Y-83350000D03*
D14*
X124740000Y-83350000D03*
X127280000Y-83350000D03*
X129820000Y-83350000D03*
%TD*%
D16*
%TO.C,REF\u002A\u002A*%
X100000000Y-160000000D03*
%TD*%
D20*
%TO.C,SW1*%
X152896000Y-108134000D03*
D21*
X152896000Y-106134000D03*
X152896000Y-104134000D03*
D22*
X152896000Y-110334000D03*
X152896000Y-101934000D03*
%TD*%
D13*
%TO.C,U8*%
X141200000Y-157460000D03*
D14*
X141200000Y-160000000D03*
X141200000Y-162540000D03*
%TD*%
D13*
%TO.C,U17*%
X137975000Y-99000000D03*
D14*
X140515000Y-99000000D03*
X143055000Y-99000000D03*
%TD*%
D11*
%TO.C,J8*%
X115130000Y-48950000D03*
D12*
X110050000Y-48950000D03*
%TD*%
D23*
%TO.C,BZ1*%
X139550000Y-71725000D03*
D24*
X134550000Y-71725000D03*
%TD*%
D11*
%TO.C,J9*%
X100000000Y-62520000D03*
D12*
X100000000Y-67600000D03*
%TD*%
D25*
%TO.C,JP5*%
X135110000Y-56840000D03*
X133810000Y-56840000D03*
%TD*%
%TO.C,JP2*%
X136200001Y-143500000D03*
X137500001Y-143500000D03*
%TD*%
%TO.C,JP3*%
X136200001Y-149000000D03*
X137500001Y-149000000D03*
%TD*%
%TO.C,JP4*%
X136200001Y-146146447D03*
X137500001Y-146146447D03*
%TD*%
D26*
%TO.C,JP1*%
X115500000Y-145150000D03*
X115500000Y-143850000D03*
%TD*%
%LPD*%
M02*
