%TF.GenerationSoftware,KiCad,Pcbnew,8.0.3*%
%TF.CreationDate,2025-07-22T23:59:46+01:00*%
%TF.ProjectId,Athena,41746865-6e61-42e6-9b69-6361645f7063,rev?*%
%TF.SameCoordinates,Original*%
%TF.FileFunction,Drillmap*%
%TF.FilePolarity,Positive*%
%FSLAX45Y45*%
G04 Gerber Fmt 4.5, Leading zero omitted, Abs format (unit mm)*
G04 Created by KiCad (PCBNEW 8.0.3) date 2025-07-22 23:59:46*
%MOMM*%
%LPD*%
G01*
G04 APERTURE LIST*
%ADD10C,0.050000*%
%ADD11C,0.200000*%
%ADD12C,0.100000*%
G04 APERTURE END LIST*
D10*
X15100300Y-16459200D02*
X10002520Y-16454120D01*
X10002520Y-16454120D02*
G75*
G02*
X9545883Y-15996991I-2520J454120D01*
G01*
X9545001Y-4897299D02*
G75*
G02*
X9997440Y-4445000I454999J-2701D01*
G01*
X15559195Y-16002065D02*
G75*
G02*
X15100300Y-16459200I-459195J2065D01*
G01*
X15554995Y-4902188D02*
X15559195Y-16002065D01*
X9997440Y-4445000D02*
X15100300Y-4445000D01*
X15100300Y-4445000D02*
G75*
G02*
X15554995Y-4902188I-300J-455000D01*
G01*
X9545883Y-15996991D02*
X9545001Y-4897299D01*
D11*
D12*
X12233500Y-5043000D02*
X12298500Y-5108000D01*
X12298500Y-5043000D02*
X12233500Y-5108000D01*
X12811500Y-5043000D02*
X12876500Y-5108000D01*
X12876500Y-5043000D02*
X12811500Y-5108000D01*
X10095000Y-8750000D02*
G75*
G02*
X10005000Y-8750000I-45000J0D01*
G01*
X10005000Y-8750000D02*
G75*
G02*
X10095000Y-8750000I45000J0D01*
G01*
X10095000Y-9550000D02*
G75*
G02*
X10005000Y-9550000I-45000J0D01*
G01*
X10005000Y-9550000D02*
G75*
G02*
X10095000Y-9550000I45000J0D01*
G01*
D11*
X9803278Y-16773184D02*
X9803278Y-16573184D01*
X9803278Y-16573184D02*
X9850897Y-16573184D01*
X9850897Y-16573184D02*
X9879468Y-16582707D01*
X9879468Y-16582707D02*
X9898516Y-16601755D01*
X9898516Y-16601755D02*
X9908040Y-16620803D01*
X9908040Y-16620803D02*
X9917563Y-16658898D01*
X9917563Y-16658898D02*
X9917563Y-16687469D01*
X9917563Y-16687469D02*
X9908040Y-16725565D01*
X9908040Y-16725565D02*
X9898516Y-16744612D01*
X9898516Y-16744612D02*
X9879468Y-16763660D01*
X9879468Y-16763660D02*
X9850897Y-16773184D01*
X9850897Y-16773184D02*
X9803278Y-16773184D01*
X10003278Y-16773184D02*
X10003278Y-16639850D01*
X10003278Y-16677946D02*
X10012801Y-16658898D01*
X10012801Y-16658898D02*
X10022325Y-16649374D01*
X10022325Y-16649374D02*
X10041373Y-16639850D01*
X10041373Y-16639850D02*
X10060421Y-16639850D01*
X10127087Y-16773184D02*
X10127087Y-16639850D01*
X10127087Y-16573184D02*
X10117563Y-16582707D01*
X10117563Y-16582707D02*
X10127087Y-16592231D01*
X10127087Y-16592231D02*
X10136611Y-16582707D01*
X10136611Y-16582707D02*
X10127087Y-16573184D01*
X10127087Y-16573184D02*
X10127087Y-16592231D01*
X10250897Y-16773184D02*
X10231849Y-16763660D01*
X10231849Y-16763660D02*
X10222325Y-16744612D01*
X10222325Y-16744612D02*
X10222325Y-16573184D01*
X10355659Y-16773184D02*
X10336611Y-16763660D01*
X10336611Y-16763660D02*
X10327087Y-16744612D01*
X10327087Y-16744612D02*
X10327087Y-16573184D01*
X10584230Y-16773184D02*
X10584230Y-16573184D01*
X10584230Y-16573184D02*
X10650897Y-16716041D01*
X10650897Y-16716041D02*
X10717563Y-16573184D01*
X10717563Y-16573184D02*
X10717563Y-16773184D01*
X10898516Y-16773184D02*
X10898516Y-16668422D01*
X10898516Y-16668422D02*
X10888992Y-16649374D01*
X10888992Y-16649374D02*
X10869944Y-16639850D01*
X10869944Y-16639850D02*
X10831849Y-16639850D01*
X10831849Y-16639850D02*
X10812801Y-16649374D01*
X10898516Y-16763660D02*
X10879468Y-16773184D01*
X10879468Y-16773184D02*
X10831849Y-16773184D01*
X10831849Y-16773184D02*
X10812801Y-16763660D01*
X10812801Y-16763660D02*
X10803278Y-16744612D01*
X10803278Y-16744612D02*
X10803278Y-16725565D01*
X10803278Y-16725565D02*
X10812801Y-16706517D01*
X10812801Y-16706517D02*
X10831849Y-16696993D01*
X10831849Y-16696993D02*
X10879468Y-16696993D01*
X10879468Y-16696993D02*
X10898516Y-16687469D01*
X10993754Y-16639850D02*
X10993754Y-16839850D01*
X10993754Y-16649374D02*
X11012801Y-16639850D01*
X11012801Y-16639850D02*
X11050897Y-16639850D01*
X11050897Y-16639850D02*
X11069944Y-16649374D01*
X11069944Y-16649374D02*
X11079468Y-16658898D01*
X11079468Y-16658898D02*
X11088992Y-16677946D01*
X11088992Y-16677946D02*
X11088992Y-16735088D01*
X11088992Y-16735088D02*
X11079468Y-16754136D01*
X11079468Y-16754136D02*
X11069944Y-16763660D01*
X11069944Y-16763660D02*
X11050897Y-16773184D01*
X11050897Y-16773184D02*
X11012801Y-16773184D01*
X11012801Y-16773184D02*
X10993754Y-16763660D01*
X11174706Y-16754136D02*
X11184230Y-16763660D01*
X11184230Y-16763660D02*
X11174706Y-16773184D01*
X11174706Y-16773184D02*
X11165182Y-16763660D01*
X11165182Y-16763660D02*
X11174706Y-16754136D01*
X11174706Y-16754136D02*
X11174706Y-16773184D01*
X11174706Y-16649374D02*
X11184230Y-16658898D01*
X11184230Y-16658898D02*
X11174706Y-16668422D01*
X11174706Y-16668422D02*
X11165182Y-16658898D01*
X11165182Y-16658898D02*
X11174706Y-16649374D01*
X11174706Y-16649374D02*
X11174706Y-16668422D01*
D12*
X9477501Y-17069200D02*
X9542501Y-17134200D01*
X9542501Y-17069200D02*
X9477501Y-17134200D01*
D11*
X9841373Y-16993184D02*
X9860421Y-16993184D01*
X9860421Y-16993184D02*
X9879468Y-17002708D01*
X9879468Y-17002708D02*
X9888992Y-17012231D01*
X9888992Y-17012231D02*
X9898516Y-17031279D01*
X9898516Y-17031279D02*
X9908040Y-17069374D01*
X9908040Y-17069374D02*
X9908040Y-17116993D01*
X9908040Y-17116993D02*
X9898516Y-17155088D01*
X9898516Y-17155088D02*
X9888992Y-17174136D01*
X9888992Y-17174136D02*
X9879468Y-17183660D01*
X9879468Y-17183660D02*
X9860421Y-17193184D01*
X9860421Y-17193184D02*
X9841373Y-17193184D01*
X9841373Y-17193184D02*
X9822325Y-17183660D01*
X9822325Y-17183660D02*
X9812801Y-17174136D01*
X9812801Y-17174136D02*
X9803278Y-17155088D01*
X9803278Y-17155088D02*
X9793754Y-17116993D01*
X9793754Y-17116993D02*
X9793754Y-17069374D01*
X9793754Y-17069374D02*
X9803278Y-17031279D01*
X9803278Y-17031279D02*
X9812801Y-17012231D01*
X9812801Y-17012231D02*
X9822325Y-17002708D01*
X9822325Y-17002708D02*
X9841373Y-16993184D01*
X9993754Y-17174136D02*
X10003278Y-17183660D01*
X10003278Y-17183660D02*
X9993754Y-17193184D01*
X9993754Y-17193184D02*
X9984230Y-17183660D01*
X9984230Y-17183660D02*
X9993754Y-17174136D01*
X9993754Y-17174136D02*
X9993754Y-17193184D01*
X10174706Y-16993184D02*
X10136611Y-16993184D01*
X10136611Y-16993184D02*
X10117563Y-17002708D01*
X10117563Y-17002708D02*
X10108040Y-17012231D01*
X10108040Y-17012231D02*
X10088992Y-17040803D01*
X10088992Y-17040803D02*
X10079468Y-17078898D01*
X10079468Y-17078898D02*
X10079468Y-17155088D01*
X10079468Y-17155088D02*
X10088992Y-17174136D01*
X10088992Y-17174136D02*
X10098516Y-17183660D01*
X10098516Y-17183660D02*
X10117563Y-17193184D01*
X10117563Y-17193184D02*
X10155659Y-17193184D01*
X10155659Y-17193184D02*
X10174706Y-17183660D01*
X10174706Y-17183660D02*
X10184230Y-17174136D01*
X10184230Y-17174136D02*
X10193754Y-17155088D01*
X10193754Y-17155088D02*
X10193754Y-17107469D01*
X10193754Y-17107469D02*
X10184230Y-17088422D01*
X10184230Y-17088422D02*
X10174706Y-17078898D01*
X10174706Y-17078898D02*
X10155659Y-17069374D01*
X10155659Y-17069374D02*
X10117563Y-17069374D01*
X10117563Y-17069374D02*
X10098516Y-17078898D01*
X10098516Y-17078898D02*
X10088992Y-17088422D01*
X10088992Y-17088422D02*
X10079468Y-17107469D01*
X10374706Y-16993184D02*
X10279468Y-16993184D01*
X10279468Y-16993184D02*
X10269944Y-17088422D01*
X10269944Y-17088422D02*
X10279468Y-17078898D01*
X10279468Y-17078898D02*
X10298516Y-17069374D01*
X10298516Y-17069374D02*
X10346135Y-17069374D01*
X10346135Y-17069374D02*
X10365182Y-17078898D01*
X10365182Y-17078898D02*
X10374706Y-17088422D01*
X10374706Y-17088422D02*
X10384230Y-17107469D01*
X10384230Y-17107469D02*
X10384230Y-17155088D01*
X10384230Y-17155088D02*
X10374706Y-17174136D01*
X10374706Y-17174136D02*
X10365182Y-17183660D01*
X10365182Y-17183660D02*
X10346135Y-17193184D01*
X10346135Y-17193184D02*
X10298516Y-17193184D01*
X10298516Y-17193184D02*
X10279468Y-17183660D01*
X10279468Y-17183660D02*
X10269944Y-17174136D01*
X10508040Y-16993184D02*
X10527087Y-16993184D01*
X10527087Y-16993184D02*
X10546135Y-17002708D01*
X10546135Y-17002708D02*
X10555659Y-17012231D01*
X10555659Y-17012231D02*
X10565182Y-17031279D01*
X10565182Y-17031279D02*
X10574706Y-17069374D01*
X10574706Y-17069374D02*
X10574706Y-17116993D01*
X10574706Y-17116993D02*
X10565182Y-17155088D01*
X10565182Y-17155088D02*
X10555659Y-17174136D01*
X10555659Y-17174136D02*
X10546135Y-17183660D01*
X10546135Y-17183660D02*
X10527087Y-17193184D01*
X10527087Y-17193184D02*
X10508040Y-17193184D01*
X10508040Y-17193184D02*
X10488992Y-17183660D01*
X10488992Y-17183660D02*
X10479468Y-17174136D01*
X10479468Y-17174136D02*
X10469944Y-17155088D01*
X10469944Y-17155088D02*
X10460421Y-17116993D01*
X10460421Y-17116993D02*
X10460421Y-17069374D01*
X10460421Y-17069374D02*
X10469944Y-17031279D01*
X10469944Y-17031279D02*
X10479468Y-17012231D01*
X10479468Y-17012231D02*
X10488992Y-17002708D01*
X10488992Y-17002708D02*
X10508040Y-16993184D01*
X10660421Y-17193184D02*
X10660421Y-17059850D01*
X10660421Y-17078898D02*
X10669944Y-17069374D01*
X10669944Y-17069374D02*
X10688992Y-17059850D01*
X10688992Y-17059850D02*
X10717563Y-17059850D01*
X10717563Y-17059850D02*
X10736611Y-17069374D01*
X10736611Y-17069374D02*
X10746135Y-17088422D01*
X10746135Y-17088422D02*
X10746135Y-17193184D01*
X10746135Y-17088422D02*
X10755659Y-17069374D01*
X10755659Y-17069374D02*
X10774706Y-17059850D01*
X10774706Y-17059850D02*
X10803278Y-17059850D01*
X10803278Y-17059850D02*
X10822325Y-17069374D01*
X10822325Y-17069374D02*
X10831849Y-17088422D01*
X10831849Y-17088422D02*
X10831849Y-17193184D01*
X10927087Y-17193184D02*
X10927087Y-17059850D01*
X10927087Y-17078898D02*
X10936611Y-17069374D01*
X10936611Y-17069374D02*
X10955659Y-17059850D01*
X10955659Y-17059850D02*
X10984230Y-17059850D01*
X10984230Y-17059850D02*
X11003278Y-17069374D01*
X11003278Y-17069374D02*
X11012802Y-17088422D01*
X11012802Y-17088422D02*
X11012802Y-17193184D01*
X11012802Y-17088422D02*
X11022325Y-17069374D01*
X11022325Y-17069374D02*
X11041373Y-17059850D01*
X11041373Y-17059850D02*
X11069944Y-17059850D01*
X11069944Y-17059850D02*
X11088992Y-17069374D01*
X11088992Y-17069374D02*
X11098516Y-17088422D01*
X11098516Y-17088422D02*
X11098516Y-17193184D01*
X11488992Y-16983660D02*
X11317563Y-17240803D01*
X11746135Y-16993184D02*
X11765183Y-16993184D01*
X11765183Y-16993184D02*
X11784230Y-17002708D01*
X11784230Y-17002708D02*
X11793754Y-17012231D01*
X11793754Y-17012231D02*
X11803278Y-17031279D01*
X11803278Y-17031279D02*
X11812802Y-17069374D01*
X11812802Y-17069374D02*
X11812802Y-17116993D01*
X11812802Y-17116993D02*
X11803278Y-17155088D01*
X11803278Y-17155088D02*
X11793754Y-17174136D01*
X11793754Y-17174136D02*
X11784230Y-17183660D01*
X11784230Y-17183660D02*
X11765183Y-17193184D01*
X11765183Y-17193184D02*
X11746135Y-17193184D01*
X11746135Y-17193184D02*
X11727087Y-17183660D01*
X11727087Y-17183660D02*
X11717563Y-17174136D01*
X11717563Y-17174136D02*
X11708040Y-17155088D01*
X11708040Y-17155088D02*
X11698516Y-17116993D01*
X11698516Y-17116993D02*
X11698516Y-17069374D01*
X11698516Y-17069374D02*
X11708040Y-17031279D01*
X11708040Y-17031279D02*
X11717563Y-17012231D01*
X11717563Y-17012231D02*
X11727087Y-17002708D01*
X11727087Y-17002708D02*
X11746135Y-16993184D01*
X11898516Y-17174136D02*
X11908040Y-17183660D01*
X11908040Y-17183660D02*
X11898516Y-17193184D01*
X11898516Y-17193184D02*
X11888992Y-17183660D01*
X11888992Y-17183660D02*
X11898516Y-17174136D01*
X11898516Y-17174136D02*
X11898516Y-17193184D01*
X12031849Y-16993184D02*
X12050897Y-16993184D01*
X12050897Y-16993184D02*
X12069944Y-17002708D01*
X12069944Y-17002708D02*
X12079468Y-17012231D01*
X12079468Y-17012231D02*
X12088992Y-17031279D01*
X12088992Y-17031279D02*
X12098516Y-17069374D01*
X12098516Y-17069374D02*
X12098516Y-17116993D01*
X12098516Y-17116993D02*
X12088992Y-17155088D01*
X12088992Y-17155088D02*
X12079468Y-17174136D01*
X12079468Y-17174136D02*
X12069944Y-17183660D01*
X12069944Y-17183660D02*
X12050897Y-17193184D01*
X12050897Y-17193184D02*
X12031849Y-17193184D01*
X12031849Y-17193184D02*
X12012802Y-17183660D01*
X12012802Y-17183660D02*
X12003278Y-17174136D01*
X12003278Y-17174136D02*
X11993754Y-17155088D01*
X11993754Y-17155088D02*
X11984230Y-17116993D01*
X11984230Y-17116993D02*
X11984230Y-17069374D01*
X11984230Y-17069374D02*
X11993754Y-17031279D01*
X11993754Y-17031279D02*
X12003278Y-17012231D01*
X12003278Y-17012231D02*
X12012802Y-17002708D01*
X12012802Y-17002708D02*
X12031849Y-16993184D01*
X12174706Y-17012231D02*
X12184230Y-17002708D01*
X12184230Y-17002708D02*
X12203278Y-16993184D01*
X12203278Y-16993184D02*
X12250897Y-16993184D01*
X12250897Y-16993184D02*
X12269944Y-17002708D01*
X12269944Y-17002708D02*
X12279468Y-17012231D01*
X12279468Y-17012231D02*
X12288992Y-17031279D01*
X12288992Y-17031279D02*
X12288992Y-17050327D01*
X12288992Y-17050327D02*
X12279468Y-17078898D01*
X12279468Y-17078898D02*
X12165183Y-17193184D01*
X12165183Y-17193184D02*
X12288992Y-17193184D01*
X12469944Y-16993184D02*
X12374706Y-16993184D01*
X12374706Y-16993184D02*
X12365183Y-17088422D01*
X12365183Y-17088422D02*
X12374706Y-17078898D01*
X12374706Y-17078898D02*
X12393754Y-17069374D01*
X12393754Y-17069374D02*
X12441373Y-17069374D01*
X12441373Y-17069374D02*
X12460421Y-17078898D01*
X12460421Y-17078898D02*
X12469944Y-17088422D01*
X12469944Y-17088422D02*
X12479468Y-17107469D01*
X12479468Y-17107469D02*
X12479468Y-17155088D01*
X12479468Y-17155088D02*
X12469944Y-17174136D01*
X12469944Y-17174136D02*
X12460421Y-17183660D01*
X12460421Y-17183660D02*
X12441373Y-17193184D01*
X12441373Y-17193184D02*
X12393754Y-17193184D01*
X12393754Y-17193184D02*
X12374706Y-17183660D01*
X12374706Y-17183660D02*
X12365183Y-17174136D01*
X12650897Y-16993184D02*
X12612802Y-16993184D01*
X12612802Y-16993184D02*
X12593754Y-17002708D01*
X12593754Y-17002708D02*
X12584230Y-17012231D01*
X12584230Y-17012231D02*
X12565183Y-17040803D01*
X12565183Y-17040803D02*
X12555659Y-17078898D01*
X12555659Y-17078898D02*
X12555659Y-17155088D01*
X12555659Y-17155088D02*
X12565183Y-17174136D01*
X12565183Y-17174136D02*
X12574706Y-17183660D01*
X12574706Y-17183660D02*
X12593754Y-17193184D01*
X12593754Y-17193184D02*
X12631849Y-17193184D01*
X12631849Y-17193184D02*
X12650897Y-17183660D01*
X12650897Y-17183660D02*
X12660421Y-17174136D01*
X12660421Y-17174136D02*
X12669944Y-17155088D01*
X12669944Y-17155088D02*
X12669944Y-17107469D01*
X12669944Y-17107469D02*
X12660421Y-17088422D01*
X12660421Y-17088422D02*
X12650897Y-17078898D01*
X12650897Y-17078898D02*
X12631849Y-17069374D01*
X12631849Y-17069374D02*
X12593754Y-17069374D01*
X12593754Y-17069374D02*
X12574706Y-17078898D01*
X12574706Y-17078898D02*
X12565183Y-17088422D01*
X12565183Y-17088422D02*
X12555659Y-17107469D01*
X12746135Y-16993184D02*
X12746135Y-17031279D01*
X12822325Y-16993184D02*
X12822325Y-17031279D01*
X13117564Y-17269374D02*
X13108040Y-17259850D01*
X13108040Y-17259850D02*
X13088992Y-17231279D01*
X13088992Y-17231279D02*
X13079468Y-17212231D01*
X13079468Y-17212231D02*
X13069945Y-17183660D01*
X13069945Y-17183660D02*
X13060421Y-17136041D01*
X13060421Y-17136041D02*
X13060421Y-17097946D01*
X13060421Y-17097946D02*
X13069945Y-17050327D01*
X13069945Y-17050327D02*
X13079468Y-17021755D01*
X13079468Y-17021755D02*
X13088992Y-17002708D01*
X13088992Y-17002708D02*
X13108040Y-16974136D01*
X13108040Y-16974136D02*
X13117564Y-16964612D01*
X13184230Y-17012231D02*
X13193754Y-17002708D01*
X13193754Y-17002708D02*
X13212802Y-16993184D01*
X13212802Y-16993184D02*
X13260421Y-16993184D01*
X13260421Y-16993184D02*
X13279468Y-17002708D01*
X13279468Y-17002708D02*
X13288992Y-17012231D01*
X13288992Y-17012231D02*
X13298516Y-17031279D01*
X13298516Y-17031279D02*
X13298516Y-17050327D01*
X13298516Y-17050327D02*
X13288992Y-17078898D01*
X13288992Y-17078898D02*
X13174706Y-17193184D01*
X13174706Y-17193184D02*
X13298516Y-17193184D01*
X13536611Y-17193184D02*
X13536611Y-16993184D01*
X13622326Y-17193184D02*
X13622326Y-17088422D01*
X13622326Y-17088422D02*
X13612802Y-17069374D01*
X13612802Y-17069374D02*
X13593754Y-17059850D01*
X13593754Y-17059850D02*
X13565183Y-17059850D01*
X13565183Y-17059850D02*
X13546135Y-17069374D01*
X13546135Y-17069374D02*
X13536611Y-17078898D01*
X13746135Y-17193184D02*
X13727087Y-17183660D01*
X13727087Y-17183660D02*
X13717564Y-17174136D01*
X13717564Y-17174136D02*
X13708040Y-17155088D01*
X13708040Y-17155088D02*
X13708040Y-17097946D01*
X13708040Y-17097946D02*
X13717564Y-17078898D01*
X13717564Y-17078898D02*
X13727087Y-17069374D01*
X13727087Y-17069374D02*
X13746135Y-17059850D01*
X13746135Y-17059850D02*
X13774707Y-17059850D01*
X13774707Y-17059850D02*
X13793754Y-17069374D01*
X13793754Y-17069374D02*
X13803278Y-17078898D01*
X13803278Y-17078898D02*
X13812802Y-17097946D01*
X13812802Y-17097946D02*
X13812802Y-17155088D01*
X13812802Y-17155088D02*
X13803278Y-17174136D01*
X13803278Y-17174136D02*
X13793754Y-17183660D01*
X13793754Y-17183660D02*
X13774707Y-17193184D01*
X13774707Y-17193184D02*
X13746135Y-17193184D01*
X13927087Y-17193184D02*
X13908040Y-17183660D01*
X13908040Y-17183660D02*
X13898516Y-17164612D01*
X13898516Y-17164612D02*
X13898516Y-16993184D01*
X14079468Y-17183660D02*
X14060421Y-17193184D01*
X14060421Y-17193184D02*
X14022326Y-17193184D01*
X14022326Y-17193184D02*
X14003278Y-17183660D01*
X14003278Y-17183660D02*
X13993754Y-17164612D01*
X13993754Y-17164612D02*
X13993754Y-17088422D01*
X13993754Y-17088422D02*
X14003278Y-17069374D01*
X14003278Y-17069374D02*
X14022326Y-17059850D01*
X14022326Y-17059850D02*
X14060421Y-17059850D01*
X14060421Y-17059850D02*
X14079468Y-17069374D01*
X14079468Y-17069374D02*
X14088992Y-17088422D01*
X14088992Y-17088422D02*
X14088992Y-17107469D01*
X14088992Y-17107469D02*
X13993754Y-17126517D01*
X14165183Y-17183660D02*
X14184230Y-17193184D01*
X14184230Y-17193184D02*
X14222326Y-17193184D01*
X14222326Y-17193184D02*
X14241373Y-17183660D01*
X14241373Y-17183660D02*
X14250897Y-17164612D01*
X14250897Y-17164612D02*
X14250897Y-17155088D01*
X14250897Y-17155088D02*
X14241373Y-17136041D01*
X14241373Y-17136041D02*
X14222326Y-17126517D01*
X14222326Y-17126517D02*
X14193754Y-17126517D01*
X14193754Y-17126517D02*
X14174707Y-17116993D01*
X14174707Y-17116993D02*
X14165183Y-17097946D01*
X14165183Y-17097946D02*
X14165183Y-17088422D01*
X14165183Y-17088422D02*
X14174707Y-17069374D01*
X14174707Y-17069374D02*
X14193754Y-17059850D01*
X14193754Y-17059850D02*
X14222326Y-17059850D01*
X14222326Y-17059850D02*
X14241373Y-17069374D01*
X14317564Y-17269374D02*
X14327088Y-17259850D01*
X14327088Y-17259850D02*
X14346135Y-17231279D01*
X14346135Y-17231279D02*
X14355659Y-17212231D01*
X14355659Y-17212231D02*
X14365183Y-17183660D01*
X14365183Y-17183660D02*
X14374707Y-17136041D01*
X14374707Y-17136041D02*
X14374707Y-17097946D01*
X14374707Y-17097946D02*
X14365183Y-17050327D01*
X14365183Y-17050327D02*
X14355659Y-17021755D01*
X14355659Y-17021755D02*
X14346135Y-17002708D01*
X14346135Y-17002708D02*
X14327088Y-16974136D01*
X14327088Y-16974136D02*
X14317564Y-16964612D01*
X14679469Y-17269374D02*
X14669945Y-17259850D01*
X14669945Y-17259850D02*
X14650897Y-17231279D01*
X14650897Y-17231279D02*
X14641373Y-17212231D01*
X14641373Y-17212231D02*
X14631849Y-17183660D01*
X14631849Y-17183660D02*
X14622326Y-17136041D01*
X14622326Y-17136041D02*
X14622326Y-17097946D01*
X14622326Y-17097946D02*
X14631849Y-17050327D01*
X14631849Y-17050327D02*
X14641373Y-17021755D01*
X14641373Y-17021755D02*
X14650897Y-17002708D01*
X14650897Y-17002708D02*
X14669945Y-16974136D01*
X14669945Y-16974136D02*
X14679469Y-16964612D01*
X14755659Y-17059850D02*
X14755659Y-17193184D01*
X14755659Y-17078898D02*
X14765183Y-17069374D01*
X14765183Y-17069374D02*
X14784230Y-17059850D01*
X14784230Y-17059850D02*
X14812802Y-17059850D01*
X14812802Y-17059850D02*
X14831849Y-17069374D01*
X14831849Y-17069374D02*
X14841373Y-17088422D01*
X14841373Y-17088422D02*
X14841373Y-17193184D01*
X14965183Y-17193184D02*
X14946135Y-17183660D01*
X14946135Y-17183660D02*
X14936611Y-17174136D01*
X14936611Y-17174136D02*
X14927088Y-17155088D01*
X14927088Y-17155088D02*
X14927088Y-17097946D01*
X14927088Y-17097946D02*
X14936611Y-17078898D01*
X14936611Y-17078898D02*
X14946135Y-17069374D01*
X14946135Y-17069374D02*
X14965183Y-17059850D01*
X14965183Y-17059850D02*
X14993754Y-17059850D01*
X14993754Y-17059850D02*
X15012802Y-17069374D01*
X15012802Y-17069374D02*
X15022326Y-17078898D01*
X15022326Y-17078898D02*
X15031849Y-17097946D01*
X15031849Y-17097946D02*
X15031849Y-17155088D01*
X15031849Y-17155088D02*
X15022326Y-17174136D01*
X15022326Y-17174136D02*
X15012802Y-17183660D01*
X15012802Y-17183660D02*
X14993754Y-17193184D01*
X14993754Y-17193184D02*
X14965183Y-17193184D01*
X15088992Y-17059850D02*
X15165183Y-17059850D01*
X15117564Y-16993184D02*
X15117564Y-17164612D01*
X15117564Y-17164612D02*
X15127088Y-17183660D01*
X15127088Y-17183660D02*
X15146135Y-17193184D01*
X15146135Y-17193184D02*
X15165183Y-17193184D01*
X15384230Y-17059850D02*
X15384230Y-17259850D01*
X15384230Y-17069374D02*
X15403278Y-17059850D01*
X15403278Y-17059850D02*
X15441373Y-17059850D01*
X15441373Y-17059850D02*
X15460421Y-17069374D01*
X15460421Y-17069374D02*
X15469945Y-17078898D01*
X15469945Y-17078898D02*
X15479469Y-17097946D01*
X15479469Y-17097946D02*
X15479469Y-17155088D01*
X15479469Y-17155088D02*
X15469945Y-17174136D01*
X15469945Y-17174136D02*
X15460421Y-17183660D01*
X15460421Y-17183660D02*
X15441373Y-17193184D01*
X15441373Y-17193184D02*
X15403278Y-17193184D01*
X15403278Y-17193184D02*
X15384230Y-17183660D01*
X15593754Y-17193184D02*
X15574707Y-17183660D01*
X15574707Y-17183660D02*
X15565183Y-17164612D01*
X15565183Y-17164612D02*
X15565183Y-16993184D01*
X15755659Y-17193184D02*
X15755659Y-17088422D01*
X15755659Y-17088422D02*
X15746135Y-17069374D01*
X15746135Y-17069374D02*
X15727088Y-17059850D01*
X15727088Y-17059850D02*
X15688992Y-17059850D01*
X15688992Y-17059850D02*
X15669945Y-17069374D01*
X15755659Y-17183660D02*
X15736611Y-17193184D01*
X15736611Y-17193184D02*
X15688992Y-17193184D01*
X15688992Y-17193184D02*
X15669945Y-17183660D01*
X15669945Y-17183660D02*
X15660421Y-17164612D01*
X15660421Y-17164612D02*
X15660421Y-17145565D01*
X15660421Y-17145565D02*
X15669945Y-17126517D01*
X15669945Y-17126517D02*
X15688992Y-17116993D01*
X15688992Y-17116993D02*
X15736611Y-17116993D01*
X15736611Y-17116993D02*
X15755659Y-17107469D01*
X15822326Y-17059850D02*
X15898516Y-17059850D01*
X15850897Y-16993184D02*
X15850897Y-17164612D01*
X15850897Y-17164612D02*
X15860421Y-17183660D01*
X15860421Y-17183660D02*
X15879469Y-17193184D01*
X15879469Y-17193184D02*
X15898516Y-17193184D01*
X16041373Y-17183660D02*
X16022326Y-17193184D01*
X16022326Y-17193184D02*
X15984230Y-17193184D01*
X15984230Y-17193184D02*
X15965183Y-17183660D01*
X15965183Y-17183660D02*
X15955659Y-17164612D01*
X15955659Y-17164612D02*
X15955659Y-17088422D01*
X15955659Y-17088422D02*
X15965183Y-17069374D01*
X15965183Y-17069374D02*
X15984230Y-17059850D01*
X15984230Y-17059850D02*
X16022326Y-17059850D01*
X16022326Y-17059850D02*
X16041373Y-17069374D01*
X16041373Y-17069374D02*
X16050897Y-17088422D01*
X16050897Y-17088422D02*
X16050897Y-17107469D01*
X16050897Y-17107469D02*
X15955659Y-17126517D01*
X16222326Y-17193184D02*
X16222326Y-16993184D01*
X16222326Y-17183660D02*
X16203278Y-17193184D01*
X16203278Y-17193184D02*
X16165183Y-17193184D01*
X16165183Y-17193184D02*
X16146135Y-17183660D01*
X16146135Y-17183660D02*
X16136611Y-17174136D01*
X16136611Y-17174136D02*
X16127088Y-17155088D01*
X16127088Y-17155088D02*
X16127088Y-17097946D01*
X16127088Y-17097946D02*
X16136611Y-17078898D01*
X16136611Y-17078898D02*
X16146135Y-17069374D01*
X16146135Y-17069374D02*
X16165183Y-17059850D01*
X16165183Y-17059850D02*
X16203278Y-17059850D01*
X16203278Y-17059850D02*
X16222326Y-17069374D01*
X16298516Y-17269374D02*
X16308040Y-17259850D01*
X16308040Y-17259850D02*
X16327088Y-17231279D01*
X16327088Y-17231279D02*
X16336611Y-17212231D01*
X16336611Y-17212231D02*
X16346135Y-17183660D01*
X16346135Y-17183660D02*
X16355659Y-17136041D01*
X16355659Y-17136041D02*
X16355659Y-17097946D01*
X16355659Y-17097946D02*
X16346135Y-17050327D01*
X16346135Y-17050327D02*
X16336611Y-17021755D01*
X16336611Y-17021755D02*
X16327088Y-17002708D01*
X16327088Y-17002708D02*
X16308040Y-16974136D01*
X16308040Y-16974136D02*
X16298516Y-16964612D01*
D12*
X9542501Y-17365700D02*
G75*
G02*
X9452501Y-17365700I-45000J0D01*
G01*
X9452501Y-17365700D02*
G75*
G02*
X9542501Y-17365700I45000J0D01*
G01*
D11*
X9841373Y-17257184D02*
X9860421Y-17257184D01*
X9860421Y-17257184D02*
X9879468Y-17266708D01*
X9879468Y-17266708D02*
X9888992Y-17276231D01*
X9888992Y-17276231D02*
X9898516Y-17295279D01*
X9898516Y-17295279D02*
X9908040Y-17333374D01*
X9908040Y-17333374D02*
X9908040Y-17380993D01*
X9908040Y-17380993D02*
X9898516Y-17419088D01*
X9898516Y-17419088D02*
X9888992Y-17438136D01*
X9888992Y-17438136D02*
X9879468Y-17447660D01*
X9879468Y-17447660D02*
X9860421Y-17457184D01*
X9860421Y-17457184D02*
X9841373Y-17457184D01*
X9841373Y-17457184D02*
X9822325Y-17447660D01*
X9822325Y-17447660D02*
X9812801Y-17438136D01*
X9812801Y-17438136D02*
X9803278Y-17419088D01*
X9803278Y-17419088D02*
X9793754Y-17380993D01*
X9793754Y-17380993D02*
X9793754Y-17333374D01*
X9793754Y-17333374D02*
X9803278Y-17295279D01*
X9803278Y-17295279D02*
X9812801Y-17276231D01*
X9812801Y-17276231D02*
X9822325Y-17266708D01*
X9822325Y-17266708D02*
X9841373Y-17257184D01*
X9993754Y-17438136D02*
X10003278Y-17447660D01*
X10003278Y-17447660D02*
X9993754Y-17457184D01*
X9993754Y-17457184D02*
X9984230Y-17447660D01*
X9984230Y-17447660D02*
X9993754Y-17438136D01*
X9993754Y-17438136D02*
X9993754Y-17457184D01*
X10098516Y-17457184D02*
X10136611Y-17457184D01*
X10136611Y-17457184D02*
X10155659Y-17447660D01*
X10155659Y-17447660D02*
X10165182Y-17438136D01*
X10165182Y-17438136D02*
X10184230Y-17409565D01*
X10184230Y-17409565D02*
X10193754Y-17371469D01*
X10193754Y-17371469D02*
X10193754Y-17295279D01*
X10193754Y-17295279D02*
X10184230Y-17276231D01*
X10184230Y-17276231D02*
X10174706Y-17266708D01*
X10174706Y-17266708D02*
X10155659Y-17257184D01*
X10155659Y-17257184D02*
X10117563Y-17257184D01*
X10117563Y-17257184D02*
X10098516Y-17266708D01*
X10098516Y-17266708D02*
X10088992Y-17276231D01*
X10088992Y-17276231D02*
X10079468Y-17295279D01*
X10079468Y-17295279D02*
X10079468Y-17342898D01*
X10079468Y-17342898D02*
X10088992Y-17361946D01*
X10088992Y-17361946D02*
X10098516Y-17371469D01*
X10098516Y-17371469D02*
X10117563Y-17380993D01*
X10117563Y-17380993D02*
X10155659Y-17380993D01*
X10155659Y-17380993D02*
X10174706Y-17371469D01*
X10174706Y-17371469D02*
X10184230Y-17361946D01*
X10184230Y-17361946D02*
X10193754Y-17342898D01*
X10317563Y-17257184D02*
X10336611Y-17257184D01*
X10336611Y-17257184D02*
X10355659Y-17266708D01*
X10355659Y-17266708D02*
X10365182Y-17276231D01*
X10365182Y-17276231D02*
X10374706Y-17295279D01*
X10374706Y-17295279D02*
X10384230Y-17333374D01*
X10384230Y-17333374D02*
X10384230Y-17380993D01*
X10384230Y-17380993D02*
X10374706Y-17419088D01*
X10374706Y-17419088D02*
X10365182Y-17438136D01*
X10365182Y-17438136D02*
X10355659Y-17447660D01*
X10355659Y-17447660D02*
X10336611Y-17457184D01*
X10336611Y-17457184D02*
X10317563Y-17457184D01*
X10317563Y-17457184D02*
X10298516Y-17447660D01*
X10298516Y-17447660D02*
X10288992Y-17438136D01*
X10288992Y-17438136D02*
X10279468Y-17419088D01*
X10279468Y-17419088D02*
X10269944Y-17380993D01*
X10269944Y-17380993D02*
X10269944Y-17333374D01*
X10269944Y-17333374D02*
X10279468Y-17295279D01*
X10279468Y-17295279D02*
X10288992Y-17276231D01*
X10288992Y-17276231D02*
X10298516Y-17266708D01*
X10298516Y-17266708D02*
X10317563Y-17257184D01*
X10508040Y-17257184D02*
X10527087Y-17257184D01*
X10527087Y-17257184D02*
X10546135Y-17266708D01*
X10546135Y-17266708D02*
X10555659Y-17276231D01*
X10555659Y-17276231D02*
X10565182Y-17295279D01*
X10565182Y-17295279D02*
X10574706Y-17333374D01*
X10574706Y-17333374D02*
X10574706Y-17380993D01*
X10574706Y-17380993D02*
X10565182Y-17419088D01*
X10565182Y-17419088D02*
X10555659Y-17438136D01*
X10555659Y-17438136D02*
X10546135Y-17447660D01*
X10546135Y-17447660D02*
X10527087Y-17457184D01*
X10527087Y-17457184D02*
X10508040Y-17457184D01*
X10508040Y-17457184D02*
X10488992Y-17447660D01*
X10488992Y-17447660D02*
X10479468Y-17438136D01*
X10479468Y-17438136D02*
X10469944Y-17419088D01*
X10469944Y-17419088D02*
X10460421Y-17380993D01*
X10460421Y-17380993D02*
X10460421Y-17333374D01*
X10460421Y-17333374D02*
X10469944Y-17295279D01*
X10469944Y-17295279D02*
X10479468Y-17276231D01*
X10479468Y-17276231D02*
X10488992Y-17266708D01*
X10488992Y-17266708D02*
X10508040Y-17257184D01*
X10660421Y-17457184D02*
X10660421Y-17323850D01*
X10660421Y-17342898D02*
X10669944Y-17333374D01*
X10669944Y-17333374D02*
X10688992Y-17323850D01*
X10688992Y-17323850D02*
X10717563Y-17323850D01*
X10717563Y-17323850D02*
X10736611Y-17333374D01*
X10736611Y-17333374D02*
X10746135Y-17352422D01*
X10746135Y-17352422D02*
X10746135Y-17457184D01*
X10746135Y-17352422D02*
X10755659Y-17333374D01*
X10755659Y-17333374D02*
X10774706Y-17323850D01*
X10774706Y-17323850D02*
X10803278Y-17323850D01*
X10803278Y-17323850D02*
X10822325Y-17333374D01*
X10822325Y-17333374D02*
X10831849Y-17352422D01*
X10831849Y-17352422D02*
X10831849Y-17457184D01*
X10927087Y-17457184D02*
X10927087Y-17323850D01*
X10927087Y-17342898D02*
X10936611Y-17333374D01*
X10936611Y-17333374D02*
X10955659Y-17323850D01*
X10955659Y-17323850D02*
X10984230Y-17323850D01*
X10984230Y-17323850D02*
X11003278Y-17333374D01*
X11003278Y-17333374D02*
X11012802Y-17352422D01*
X11012802Y-17352422D02*
X11012802Y-17457184D01*
X11012802Y-17352422D02*
X11022325Y-17333374D01*
X11022325Y-17333374D02*
X11041373Y-17323850D01*
X11041373Y-17323850D02*
X11069944Y-17323850D01*
X11069944Y-17323850D02*
X11088992Y-17333374D01*
X11088992Y-17333374D02*
X11098516Y-17352422D01*
X11098516Y-17352422D02*
X11098516Y-17457184D01*
X11488992Y-17247660D02*
X11317563Y-17504803D01*
X11746135Y-17257184D02*
X11765183Y-17257184D01*
X11765183Y-17257184D02*
X11784230Y-17266708D01*
X11784230Y-17266708D02*
X11793754Y-17276231D01*
X11793754Y-17276231D02*
X11803278Y-17295279D01*
X11803278Y-17295279D02*
X11812802Y-17333374D01*
X11812802Y-17333374D02*
X11812802Y-17380993D01*
X11812802Y-17380993D02*
X11803278Y-17419088D01*
X11803278Y-17419088D02*
X11793754Y-17438136D01*
X11793754Y-17438136D02*
X11784230Y-17447660D01*
X11784230Y-17447660D02*
X11765183Y-17457184D01*
X11765183Y-17457184D02*
X11746135Y-17457184D01*
X11746135Y-17457184D02*
X11727087Y-17447660D01*
X11727087Y-17447660D02*
X11717563Y-17438136D01*
X11717563Y-17438136D02*
X11708040Y-17419088D01*
X11708040Y-17419088D02*
X11698516Y-17380993D01*
X11698516Y-17380993D02*
X11698516Y-17333374D01*
X11698516Y-17333374D02*
X11708040Y-17295279D01*
X11708040Y-17295279D02*
X11717563Y-17276231D01*
X11717563Y-17276231D02*
X11727087Y-17266708D01*
X11727087Y-17266708D02*
X11746135Y-17257184D01*
X11898516Y-17438136D02*
X11908040Y-17447660D01*
X11908040Y-17447660D02*
X11898516Y-17457184D01*
X11898516Y-17457184D02*
X11888992Y-17447660D01*
X11888992Y-17447660D02*
X11898516Y-17438136D01*
X11898516Y-17438136D02*
X11898516Y-17457184D01*
X12031849Y-17257184D02*
X12050897Y-17257184D01*
X12050897Y-17257184D02*
X12069944Y-17266708D01*
X12069944Y-17266708D02*
X12079468Y-17276231D01*
X12079468Y-17276231D02*
X12088992Y-17295279D01*
X12088992Y-17295279D02*
X12098516Y-17333374D01*
X12098516Y-17333374D02*
X12098516Y-17380993D01*
X12098516Y-17380993D02*
X12088992Y-17419088D01*
X12088992Y-17419088D02*
X12079468Y-17438136D01*
X12079468Y-17438136D02*
X12069944Y-17447660D01*
X12069944Y-17447660D02*
X12050897Y-17457184D01*
X12050897Y-17457184D02*
X12031849Y-17457184D01*
X12031849Y-17457184D02*
X12012802Y-17447660D01*
X12012802Y-17447660D02*
X12003278Y-17438136D01*
X12003278Y-17438136D02*
X11993754Y-17419088D01*
X11993754Y-17419088D02*
X11984230Y-17380993D01*
X11984230Y-17380993D02*
X11984230Y-17333374D01*
X11984230Y-17333374D02*
X11993754Y-17295279D01*
X11993754Y-17295279D02*
X12003278Y-17276231D01*
X12003278Y-17276231D02*
X12012802Y-17266708D01*
X12012802Y-17266708D02*
X12031849Y-17257184D01*
X12165183Y-17257184D02*
X12288992Y-17257184D01*
X12288992Y-17257184D02*
X12222325Y-17333374D01*
X12222325Y-17333374D02*
X12250897Y-17333374D01*
X12250897Y-17333374D02*
X12269944Y-17342898D01*
X12269944Y-17342898D02*
X12279468Y-17352422D01*
X12279468Y-17352422D02*
X12288992Y-17371469D01*
X12288992Y-17371469D02*
X12288992Y-17419088D01*
X12288992Y-17419088D02*
X12279468Y-17438136D01*
X12279468Y-17438136D02*
X12269944Y-17447660D01*
X12269944Y-17447660D02*
X12250897Y-17457184D01*
X12250897Y-17457184D02*
X12193754Y-17457184D01*
X12193754Y-17457184D02*
X12174706Y-17447660D01*
X12174706Y-17447660D02*
X12165183Y-17438136D01*
X12469944Y-17257184D02*
X12374706Y-17257184D01*
X12374706Y-17257184D02*
X12365183Y-17352422D01*
X12365183Y-17352422D02*
X12374706Y-17342898D01*
X12374706Y-17342898D02*
X12393754Y-17333374D01*
X12393754Y-17333374D02*
X12441373Y-17333374D01*
X12441373Y-17333374D02*
X12460421Y-17342898D01*
X12460421Y-17342898D02*
X12469944Y-17352422D01*
X12469944Y-17352422D02*
X12479468Y-17371469D01*
X12479468Y-17371469D02*
X12479468Y-17419088D01*
X12479468Y-17419088D02*
X12469944Y-17438136D01*
X12469944Y-17438136D02*
X12460421Y-17447660D01*
X12460421Y-17447660D02*
X12441373Y-17457184D01*
X12441373Y-17457184D02*
X12393754Y-17457184D01*
X12393754Y-17457184D02*
X12374706Y-17447660D01*
X12374706Y-17447660D02*
X12365183Y-17438136D01*
X12650897Y-17323850D02*
X12650897Y-17457184D01*
X12603278Y-17247660D02*
X12555659Y-17390517D01*
X12555659Y-17390517D02*
X12679468Y-17390517D01*
X12746135Y-17257184D02*
X12746135Y-17295279D01*
X12822325Y-17257184D02*
X12822325Y-17295279D01*
X13117564Y-17533374D02*
X13108040Y-17523850D01*
X13108040Y-17523850D02*
X13088992Y-17495279D01*
X13088992Y-17495279D02*
X13079468Y-17476231D01*
X13079468Y-17476231D02*
X13069945Y-17447660D01*
X13069945Y-17447660D02*
X13060421Y-17400041D01*
X13060421Y-17400041D02*
X13060421Y-17361946D01*
X13060421Y-17361946D02*
X13069945Y-17314327D01*
X13069945Y-17314327D02*
X13079468Y-17285755D01*
X13079468Y-17285755D02*
X13088992Y-17266708D01*
X13088992Y-17266708D02*
X13108040Y-17238136D01*
X13108040Y-17238136D02*
X13117564Y-17228612D01*
X13184230Y-17276231D02*
X13193754Y-17266708D01*
X13193754Y-17266708D02*
X13212802Y-17257184D01*
X13212802Y-17257184D02*
X13260421Y-17257184D01*
X13260421Y-17257184D02*
X13279468Y-17266708D01*
X13279468Y-17266708D02*
X13288992Y-17276231D01*
X13288992Y-17276231D02*
X13298516Y-17295279D01*
X13298516Y-17295279D02*
X13298516Y-17314327D01*
X13298516Y-17314327D02*
X13288992Y-17342898D01*
X13288992Y-17342898D02*
X13174706Y-17457184D01*
X13174706Y-17457184D02*
X13298516Y-17457184D01*
X13536611Y-17457184D02*
X13536611Y-17257184D01*
X13622326Y-17457184D02*
X13622326Y-17352422D01*
X13622326Y-17352422D02*
X13612802Y-17333374D01*
X13612802Y-17333374D02*
X13593754Y-17323850D01*
X13593754Y-17323850D02*
X13565183Y-17323850D01*
X13565183Y-17323850D02*
X13546135Y-17333374D01*
X13546135Y-17333374D02*
X13536611Y-17342898D01*
X13746135Y-17457184D02*
X13727087Y-17447660D01*
X13727087Y-17447660D02*
X13717564Y-17438136D01*
X13717564Y-17438136D02*
X13708040Y-17419088D01*
X13708040Y-17419088D02*
X13708040Y-17361946D01*
X13708040Y-17361946D02*
X13717564Y-17342898D01*
X13717564Y-17342898D02*
X13727087Y-17333374D01*
X13727087Y-17333374D02*
X13746135Y-17323850D01*
X13746135Y-17323850D02*
X13774707Y-17323850D01*
X13774707Y-17323850D02*
X13793754Y-17333374D01*
X13793754Y-17333374D02*
X13803278Y-17342898D01*
X13803278Y-17342898D02*
X13812802Y-17361946D01*
X13812802Y-17361946D02*
X13812802Y-17419088D01*
X13812802Y-17419088D02*
X13803278Y-17438136D01*
X13803278Y-17438136D02*
X13793754Y-17447660D01*
X13793754Y-17447660D02*
X13774707Y-17457184D01*
X13774707Y-17457184D02*
X13746135Y-17457184D01*
X13927087Y-17457184D02*
X13908040Y-17447660D01*
X13908040Y-17447660D02*
X13898516Y-17428612D01*
X13898516Y-17428612D02*
X13898516Y-17257184D01*
X14079468Y-17447660D02*
X14060421Y-17457184D01*
X14060421Y-17457184D02*
X14022326Y-17457184D01*
X14022326Y-17457184D02*
X14003278Y-17447660D01*
X14003278Y-17447660D02*
X13993754Y-17428612D01*
X13993754Y-17428612D02*
X13993754Y-17352422D01*
X13993754Y-17352422D02*
X14003278Y-17333374D01*
X14003278Y-17333374D02*
X14022326Y-17323850D01*
X14022326Y-17323850D02*
X14060421Y-17323850D01*
X14060421Y-17323850D02*
X14079468Y-17333374D01*
X14079468Y-17333374D02*
X14088992Y-17352422D01*
X14088992Y-17352422D02*
X14088992Y-17371469D01*
X14088992Y-17371469D02*
X13993754Y-17390517D01*
X14165183Y-17447660D02*
X14184230Y-17457184D01*
X14184230Y-17457184D02*
X14222326Y-17457184D01*
X14222326Y-17457184D02*
X14241373Y-17447660D01*
X14241373Y-17447660D02*
X14250897Y-17428612D01*
X14250897Y-17428612D02*
X14250897Y-17419088D01*
X14250897Y-17419088D02*
X14241373Y-17400041D01*
X14241373Y-17400041D02*
X14222326Y-17390517D01*
X14222326Y-17390517D02*
X14193754Y-17390517D01*
X14193754Y-17390517D02*
X14174707Y-17380993D01*
X14174707Y-17380993D02*
X14165183Y-17361946D01*
X14165183Y-17361946D02*
X14165183Y-17352422D01*
X14165183Y-17352422D02*
X14174707Y-17333374D01*
X14174707Y-17333374D02*
X14193754Y-17323850D01*
X14193754Y-17323850D02*
X14222326Y-17323850D01*
X14222326Y-17323850D02*
X14241373Y-17333374D01*
X14317564Y-17533374D02*
X14327088Y-17523850D01*
X14327088Y-17523850D02*
X14346135Y-17495279D01*
X14346135Y-17495279D02*
X14355659Y-17476231D01*
X14355659Y-17476231D02*
X14365183Y-17447660D01*
X14365183Y-17447660D02*
X14374707Y-17400041D01*
X14374707Y-17400041D02*
X14374707Y-17361946D01*
X14374707Y-17361946D02*
X14365183Y-17314327D01*
X14365183Y-17314327D02*
X14355659Y-17285755D01*
X14355659Y-17285755D02*
X14346135Y-17266708D01*
X14346135Y-17266708D02*
X14327088Y-17238136D01*
X14327088Y-17238136D02*
X14317564Y-17228612D01*
X14679469Y-17533374D02*
X14669945Y-17523850D01*
X14669945Y-17523850D02*
X14650897Y-17495279D01*
X14650897Y-17495279D02*
X14641373Y-17476231D01*
X14641373Y-17476231D02*
X14631849Y-17447660D01*
X14631849Y-17447660D02*
X14622326Y-17400041D01*
X14622326Y-17400041D02*
X14622326Y-17361946D01*
X14622326Y-17361946D02*
X14631849Y-17314327D01*
X14631849Y-17314327D02*
X14641373Y-17285755D01*
X14641373Y-17285755D02*
X14650897Y-17266708D01*
X14650897Y-17266708D02*
X14669945Y-17238136D01*
X14669945Y-17238136D02*
X14679469Y-17228612D01*
X14755659Y-17323850D02*
X14755659Y-17457184D01*
X14755659Y-17342898D02*
X14765183Y-17333374D01*
X14765183Y-17333374D02*
X14784230Y-17323850D01*
X14784230Y-17323850D02*
X14812802Y-17323850D01*
X14812802Y-17323850D02*
X14831849Y-17333374D01*
X14831849Y-17333374D02*
X14841373Y-17352422D01*
X14841373Y-17352422D02*
X14841373Y-17457184D01*
X14965183Y-17457184D02*
X14946135Y-17447660D01*
X14946135Y-17447660D02*
X14936611Y-17438136D01*
X14936611Y-17438136D02*
X14927088Y-17419088D01*
X14927088Y-17419088D02*
X14927088Y-17361946D01*
X14927088Y-17361946D02*
X14936611Y-17342898D01*
X14936611Y-17342898D02*
X14946135Y-17333374D01*
X14946135Y-17333374D02*
X14965183Y-17323850D01*
X14965183Y-17323850D02*
X14993754Y-17323850D01*
X14993754Y-17323850D02*
X15012802Y-17333374D01*
X15012802Y-17333374D02*
X15022326Y-17342898D01*
X15022326Y-17342898D02*
X15031849Y-17361946D01*
X15031849Y-17361946D02*
X15031849Y-17419088D01*
X15031849Y-17419088D02*
X15022326Y-17438136D01*
X15022326Y-17438136D02*
X15012802Y-17447660D01*
X15012802Y-17447660D02*
X14993754Y-17457184D01*
X14993754Y-17457184D02*
X14965183Y-17457184D01*
X15088992Y-17323850D02*
X15165183Y-17323850D01*
X15117564Y-17257184D02*
X15117564Y-17428612D01*
X15117564Y-17428612D02*
X15127088Y-17447660D01*
X15127088Y-17447660D02*
X15146135Y-17457184D01*
X15146135Y-17457184D02*
X15165183Y-17457184D01*
X15384230Y-17323850D02*
X15384230Y-17523850D01*
X15384230Y-17333374D02*
X15403278Y-17323850D01*
X15403278Y-17323850D02*
X15441373Y-17323850D01*
X15441373Y-17323850D02*
X15460421Y-17333374D01*
X15460421Y-17333374D02*
X15469945Y-17342898D01*
X15469945Y-17342898D02*
X15479469Y-17361946D01*
X15479469Y-17361946D02*
X15479469Y-17419088D01*
X15479469Y-17419088D02*
X15469945Y-17438136D01*
X15469945Y-17438136D02*
X15460421Y-17447660D01*
X15460421Y-17447660D02*
X15441373Y-17457184D01*
X15441373Y-17457184D02*
X15403278Y-17457184D01*
X15403278Y-17457184D02*
X15384230Y-17447660D01*
X15593754Y-17457184D02*
X15574707Y-17447660D01*
X15574707Y-17447660D02*
X15565183Y-17428612D01*
X15565183Y-17428612D02*
X15565183Y-17257184D01*
X15755659Y-17457184D02*
X15755659Y-17352422D01*
X15755659Y-17352422D02*
X15746135Y-17333374D01*
X15746135Y-17333374D02*
X15727088Y-17323850D01*
X15727088Y-17323850D02*
X15688992Y-17323850D01*
X15688992Y-17323850D02*
X15669945Y-17333374D01*
X15755659Y-17447660D02*
X15736611Y-17457184D01*
X15736611Y-17457184D02*
X15688992Y-17457184D01*
X15688992Y-17457184D02*
X15669945Y-17447660D01*
X15669945Y-17447660D02*
X15660421Y-17428612D01*
X15660421Y-17428612D02*
X15660421Y-17409565D01*
X15660421Y-17409565D02*
X15669945Y-17390517D01*
X15669945Y-17390517D02*
X15688992Y-17380993D01*
X15688992Y-17380993D02*
X15736611Y-17380993D01*
X15736611Y-17380993D02*
X15755659Y-17371469D01*
X15822326Y-17323850D02*
X15898516Y-17323850D01*
X15850897Y-17257184D02*
X15850897Y-17428612D01*
X15850897Y-17428612D02*
X15860421Y-17447660D01*
X15860421Y-17447660D02*
X15879469Y-17457184D01*
X15879469Y-17457184D02*
X15898516Y-17457184D01*
X16041373Y-17447660D02*
X16022326Y-17457184D01*
X16022326Y-17457184D02*
X15984230Y-17457184D01*
X15984230Y-17457184D02*
X15965183Y-17447660D01*
X15965183Y-17447660D02*
X15955659Y-17428612D01*
X15955659Y-17428612D02*
X15955659Y-17352422D01*
X15955659Y-17352422D02*
X15965183Y-17333374D01*
X15965183Y-17333374D02*
X15984230Y-17323850D01*
X15984230Y-17323850D02*
X16022326Y-17323850D01*
X16022326Y-17323850D02*
X16041373Y-17333374D01*
X16041373Y-17333374D02*
X16050897Y-17352422D01*
X16050897Y-17352422D02*
X16050897Y-17371469D01*
X16050897Y-17371469D02*
X15955659Y-17390517D01*
X16222326Y-17457184D02*
X16222326Y-17257184D01*
X16222326Y-17447660D02*
X16203278Y-17457184D01*
X16203278Y-17457184D02*
X16165183Y-17457184D01*
X16165183Y-17457184D02*
X16146135Y-17447660D01*
X16146135Y-17447660D02*
X16136611Y-17438136D01*
X16136611Y-17438136D02*
X16127088Y-17419088D01*
X16127088Y-17419088D02*
X16127088Y-17361946D01*
X16127088Y-17361946D02*
X16136611Y-17342898D01*
X16136611Y-17342898D02*
X16146135Y-17333374D01*
X16146135Y-17333374D02*
X16165183Y-17323850D01*
X16165183Y-17323850D02*
X16203278Y-17323850D01*
X16203278Y-17323850D02*
X16222326Y-17333374D01*
X16298516Y-17533374D02*
X16308040Y-17523850D01*
X16308040Y-17523850D02*
X16327088Y-17495279D01*
X16327088Y-17495279D02*
X16336611Y-17476231D01*
X16336611Y-17476231D02*
X16346135Y-17447660D01*
X16346135Y-17447660D02*
X16355659Y-17400041D01*
X16355659Y-17400041D02*
X16355659Y-17361946D01*
X16355659Y-17361946D02*
X16346135Y-17314327D01*
X16346135Y-17314327D02*
X16336611Y-17285755D01*
X16336611Y-17285755D02*
X16327088Y-17266708D01*
X16327088Y-17266708D02*
X16308040Y-17238136D01*
X16308040Y-17238136D02*
X16298516Y-17228612D01*
M02*
