%TF.GenerationSoftware,KiCad,Pcbnew,8.0.3*%
%TF.CreationDate,2025-07-22T23:59:42+01:00*%
%TF.ProjectId,Athena,41746865-6e61-42e6-9b69-6361645f7063,rev?*%
%TF.SameCoordinates,Original*%
%TF.FileFunction,Paste,Top*%
%TF.FilePolarity,Positive*%
%FSLAX46Y46*%
G04 Gerber Fmt 4.6, Leading zero omitted, Abs format (unit mm)*
G04 Created by KiCad (PCBNEW 8.0.3) date 2025-07-22 23:59:42*
%MOMM*%
%LPD*%
G01*
G04 APERTURE LIST*
G04 Aperture macros list*
%AMRoundRect*
0 Rectangle with rounded corners*
0 $1 Rounding radius*
0 $2 $3 $4 $5 $6 $7 $8 $9 X,Y pos of 4 corners*
0 Add a 4 corners polygon primitive as box body*
4,1,4,$2,$3,$4,$5,$6,$7,$8,$9,$2,$3,0*
0 Add four circle primitives for the rounded corners*
1,1,$1+$1,$2,$3*
1,1,$1+$1,$4,$5*
1,1,$1+$1,$6,$7*
1,1,$1+$1,$8,$9*
0 Add four rect primitives between the rounded corners*
20,1,$1+$1,$2,$3,$4,$5,0*
20,1,$1+$1,$4,$5,$6,$7,0*
20,1,$1+$1,$6,$7,$8,$9,0*
20,1,$1+$1,$8,$9,$2,$3,0*%
G04 Aperture macros list end*
%ADD10RoundRect,0.200000X0.200000X0.275000X-0.200000X0.275000X-0.200000X-0.275000X0.200000X-0.275000X0*%
%ADD11RoundRect,0.225000X-0.225000X-0.250000X0.225000X-0.250000X0.225000X0.250000X-0.225000X0.250000X0*%
%ADD12RoundRect,0.147500X-0.172500X0.147500X-0.172500X-0.147500X0.172500X-0.147500X0.172500X0.147500X0*%
%ADD13RoundRect,0.250000X0.425000X-0.450000X0.425000X0.450000X-0.425000X0.450000X-0.425000X-0.450000X0*%
%ADD14RoundRect,0.225000X-0.250000X0.225000X-0.250000X-0.225000X0.250000X-0.225000X0.250000X0.225000X0*%
%ADD15RoundRect,0.200000X0.275000X-0.200000X0.275000X0.200000X-0.275000X0.200000X-0.275000X-0.200000X0*%
%ADD16RoundRect,0.200000X-0.200000X-0.275000X0.200000X-0.275000X0.200000X0.275000X-0.200000X0.275000X0*%
%ADD17RoundRect,0.225000X0.225000X0.250000X-0.225000X0.250000X-0.225000X-0.250000X0.225000X-0.250000X0*%
%ADD18RoundRect,0.225000X0.250000X-0.225000X0.250000X0.225000X-0.250000X0.225000X-0.250000X-0.225000X0*%
%ADD19RoundRect,0.218750X0.218750X0.256250X-0.218750X0.256250X-0.218750X-0.256250X0.218750X-0.256250X0*%
%ADD20RoundRect,0.200000X-0.275000X0.200000X-0.275000X-0.200000X0.275000X-0.200000X0.275000X0.200000X0*%
%ADD21RoundRect,0.150000X-0.700000X0.150000X-0.700000X-0.150000X0.700000X-0.150000X0.700000X0.150000X0*%
%ADD22RoundRect,0.250000X-1.100000X0.250000X-1.100000X-0.250000X1.100000X-0.250000X1.100000X0.250000X0*%
%ADD23RoundRect,0.243750X-0.243750X-0.456250X0.243750X-0.456250X0.243750X0.456250X-0.243750X0.456250X0*%
%ADD24R,1.600000X0.700000*%
%ADD25R,1.600000X1.400000*%
%ADD26R,2.200000X1.400000*%
%ADD27R,1.400000X1.800000*%
%ADD28RoundRect,0.150000X-0.650000X-0.150000X0.650000X-0.150000X0.650000X0.150000X-0.650000X0.150000X0*%
%ADD29RoundRect,0.015750X0.235820X0.010607X0.010607X0.235820X-0.235820X-0.010607X-0.010607X-0.235820X0*%
%ADD30RoundRect,0.150000X0.150000X-0.587500X0.150000X0.587500X-0.150000X0.587500X-0.150000X-0.587500X0*%
%ADD31R,1.400000X1.150000*%
%ADD32RoundRect,0.150000X0.150000X-0.512500X0.150000X0.512500X-0.150000X0.512500X-0.150000X-0.512500X0*%
%ADD33RoundRect,0.250000X-0.925000X0.412500X-0.925000X-0.412500X0.925000X-0.412500X0.925000X0.412500X0*%
%ADD34RoundRect,0.218750X-0.256250X0.218750X-0.256250X-0.218750X0.256250X-0.218750X0.256250X0.218750X0*%
%ADD35R,0.350000X0.590000*%
%ADD36R,0.590000X0.350000*%
%ADD37RoundRect,0.375000X-0.625000X-0.375000X0.625000X-0.375000X0.625000X0.375000X-0.625000X0.375000X0*%
%ADD38RoundRect,0.500000X-0.500000X-1.400000X0.500000X-1.400000X0.500000X1.400000X-0.500000X1.400000X0*%
%ADD39RoundRect,0.150000X0.150000X0.425000X-0.150000X0.425000X-0.150000X-0.425000X0.150000X-0.425000X0*%
%ADD40RoundRect,0.075000X0.075000X0.500000X-0.075000X0.500000X-0.075000X-0.500000X0.075000X-0.500000X0*%
%ADD41O,1.000000X2.100000*%
%ADD42O,1.000000X1.800000*%
%ADD43RoundRect,0.150000X-0.587500X-0.150000X0.587500X-0.150000X0.587500X0.150000X-0.587500X0.150000X0*%
%ADD44RoundRect,0.175000X-0.725000X-0.175000X0.725000X-0.175000X0.725000X0.175000X-0.725000X0.175000X0*%
%ADD45RoundRect,0.200000X-0.700000X-0.200000X0.700000X-0.200000X0.700000X0.200000X-0.700000X0.200000X0*%
%ADD46RoundRect,0.250000X-0.275000X-0.250000X0.275000X-0.250000X0.275000X0.250000X-0.275000X0.250000X0*%
%ADD47RoundRect,0.250000X-0.850000X-0.275000X0.850000X-0.275000X0.850000X0.275000X-0.850000X0.275000X0*%
%ADD48RoundRect,0.075000X-0.441942X-0.548008X0.548008X0.441942X0.441942X0.548008X-0.548008X-0.441942X0*%
%ADD49RoundRect,0.075000X0.441942X-0.548008X0.548008X-0.441942X-0.441942X0.548008X-0.548008X0.441942X0*%
%ADD50RoundRect,0.150000X-0.512500X-0.150000X0.512500X-0.150000X0.512500X0.150000X-0.512500X0.150000X0*%
%ADD51RoundRect,0.150000X0.587500X0.150000X-0.587500X0.150000X-0.587500X-0.150000X0.587500X-0.150000X0*%
%ADD52RoundRect,0.250000X-1.000000X-0.900000X1.000000X-0.900000X1.000000X0.900000X-1.000000X0.900000X0*%
%ADD53R,3.000000X1.800000*%
%ADD54R,3.505200X2.362200*%
G04 APERTURE END LIST*
D10*
%TO.C,R32*%
X152025000Y-87200000D03*
X150375000Y-87200000D03*
%TD*%
D11*
%TO.C,C15*%
X130100000Y-143300000D03*
X131650000Y-143300000D03*
%TD*%
D12*
%TO.C,D3*%
X151900000Y-95615000D03*
X151900000Y-96585000D03*
%TD*%
D13*
%TO.C,C13*%
X115450000Y-70150000D03*
X115450000Y-67450000D03*
%TD*%
D14*
%TO.C,C27*%
X149050000Y-99105000D03*
X149050000Y-100655000D03*
%TD*%
D15*
%TO.C,R21*%
X117000000Y-148825000D03*
X117000000Y-147175000D03*
%TD*%
D16*
%TO.C,R6*%
X129850000Y-141275000D03*
X131500000Y-141275000D03*
%TD*%
D14*
%TO.C,C14*%
X126290000Y-67655000D03*
X126290000Y-69205000D03*
%TD*%
D16*
%TO.C,R29*%
X142175000Y-81500000D03*
X143825000Y-81500000D03*
%TD*%
%TO.C,R20*%
X114175000Y-152500000D03*
X115825000Y-152500000D03*
%TD*%
D15*
%TO.C,R38*%
X135000000Y-63825000D03*
X135000000Y-62175000D03*
%TD*%
D17*
%TO.C,C23*%
X106275000Y-114000000D03*
X104725000Y-114000000D03*
%TD*%
D10*
%TO.C,R27*%
X117150000Y-80010000D03*
X115500000Y-80010000D03*
%TD*%
D18*
%TO.C,C6*%
X116000000Y-98775000D03*
X116000000Y-97225000D03*
%TD*%
D10*
%TO.C,R39*%
X136825000Y-126375000D03*
X135175000Y-126375000D03*
%TD*%
%TO.C,R1*%
X121825000Y-73000000D03*
X120175000Y-73000000D03*
%TD*%
D19*
%TO.C,D4*%
X140787500Y-81500000D03*
X139212500Y-81500000D03*
%TD*%
D14*
%TO.C,C28*%
X135850000Y-93350000D03*
X135850000Y-94900000D03*
%TD*%
D16*
%TO.C,R16*%
X138350000Y-57500000D03*
X140000000Y-57500000D03*
%TD*%
D20*
%TO.C,R12*%
X124500000Y-76675000D03*
X124500000Y-78325000D03*
%TD*%
D21*
%TO.C,J15*%
X100350000Y-117875000D03*
X100350000Y-119125000D03*
X100350000Y-120375000D03*
X100350000Y-121625000D03*
X100350000Y-122875000D03*
X100350000Y-124125000D03*
D22*
X97150000Y-116025000D03*
X97150000Y-125975000D03*
%TD*%
D10*
%TO.C,R25*%
X117150000Y-85030000D03*
X115500000Y-85030000D03*
%TD*%
D14*
%TO.C,C1*%
X117000000Y-103725000D03*
X117000000Y-105275000D03*
%TD*%
%TO.C,C26*%
X134000000Y-105225000D03*
X134000000Y-106775000D03*
%TD*%
D16*
%TO.C,R31*%
X134375000Y-85625000D03*
X136025000Y-85625000D03*
%TD*%
D23*
%TO.C,D1*%
X123350001Y-73000000D03*
X125225001Y-73000000D03*
%TD*%
D24*
%TO.C,J12*%
X111000000Y-94700000D03*
X111000000Y-93600000D03*
X111000000Y-92500000D03*
X111000000Y-91400000D03*
X111000000Y-90300000D03*
X111000000Y-89200000D03*
X111000000Y-88100000D03*
X111000000Y-87000000D03*
X111000000Y-85900000D03*
D25*
X110400000Y-84600000D03*
D26*
X100900000Y-84600000D03*
X100900000Y-100300000D03*
D27*
X110500000Y-99400000D03*
%TD*%
D28*
%TO.C,U20*%
X106900000Y-121095000D03*
X106900000Y-122365000D03*
X106900000Y-123635000D03*
X106900000Y-124905000D03*
X114100000Y-124905000D03*
X114100000Y-123635000D03*
X114100000Y-122365000D03*
X114100000Y-121095000D03*
%TD*%
D10*
%TO.C,R7*%
X134000000Y-148650000D03*
X132350000Y-148650000D03*
%TD*%
D16*
%TO.C,R23*%
X113675000Y-58000000D03*
X115325000Y-58000000D03*
%TD*%
D18*
%TO.C,C17*%
X131000000Y-138275000D03*
X131000000Y-136725000D03*
%TD*%
D19*
%TO.C,D7*%
X139787500Y-123875000D03*
X138212500Y-123875000D03*
%TD*%
D18*
%TO.C,C25*%
X128400000Y-93505000D03*
X128400000Y-91955000D03*
%TD*%
D16*
%TO.C,R22*%
X110675000Y-58000000D03*
X112325000Y-58000000D03*
%TD*%
D10*
%TO.C,R40*%
X136825000Y-123875000D03*
X135175000Y-123875000D03*
%TD*%
D29*
%TO.C,U15*%
X107864160Y-112452713D03*
X108217713Y-112099160D03*
X108394490Y-111547617D03*
X108040937Y-111194063D03*
X107687383Y-110840510D03*
X107135840Y-111017287D03*
X106782287Y-111370840D03*
X106605510Y-111922383D03*
X106959063Y-112275937D03*
X107312617Y-112629490D03*
%TD*%
D30*
%TO.C,Q1*%
X108050000Y-134937500D03*
X109950000Y-134937500D03*
X109000000Y-133062500D03*
%TD*%
D16*
%TO.C,R13*%
X104850000Y-140500000D03*
X106500000Y-140500000D03*
%TD*%
D31*
%TO.C,Y1*%
X141300000Y-105000000D03*
X143500000Y-105000000D03*
X143500000Y-103400000D03*
X141300000Y-103400000D03*
%TD*%
D10*
%TO.C,R35*%
X138512500Y-135650000D03*
X136862500Y-135650000D03*
%TD*%
D11*
%TO.C,C31*%
X112900000Y-90350000D03*
X114450000Y-90350000D03*
%TD*%
D18*
%TO.C,C3*%
X126500000Y-93275000D03*
X126500000Y-91725000D03*
%TD*%
D19*
%TO.C,FB1*%
X121787500Y-112200000D03*
X120212500Y-112200000D03*
%TD*%
D16*
%TO.C,R34*%
X145975000Y-98000000D03*
X147625000Y-98000000D03*
%TD*%
D15*
%TO.C,R3*%
X124050001Y-57287500D03*
X124050001Y-55637500D03*
%TD*%
D17*
%TO.C,C9*%
X118275000Y-112000000D03*
X116725000Y-112000000D03*
%TD*%
D15*
%TO.C,R4*%
X120850001Y-57287500D03*
X120850001Y-55637500D03*
%TD*%
D32*
%TO.C,U2*%
X127050000Y-58137500D03*
X128000000Y-58137500D03*
X128950000Y-58137500D03*
X128950000Y-55862500D03*
X128000000Y-55862500D03*
X127050000Y-55862500D03*
%TD*%
D16*
%TO.C,R17*%
X141350000Y-57500000D03*
X143000000Y-57500000D03*
%TD*%
D17*
%TO.C,C11*%
X139275000Y-105000000D03*
X137725000Y-105000000D03*
%TD*%
D20*
%TO.C,R8*%
X107950000Y-136612500D03*
X107950000Y-138262500D03*
%TD*%
D30*
%TO.C,Q5*%
X137550000Y-63875001D03*
X139450000Y-63875001D03*
X138500000Y-62000001D03*
%TD*%
D14*
%TO.C,C20*%
X130600000Y-148325000D03*
X130600000Y-149875000D03*
%TD*%
%TO.C,C2*%
X129500000Y-109225000D03*
X129500000Y-110775000D03*
%TD*%
D11*
%TO.C,C12*%
X145500000Y-103500000D03*
X147050000Y-103500000D03*
%TD*%
D33*
%TO.C,C19*%
X124750000Y-147187500D03*
X124750000Y-150262500D03*
%TD*%
D16*
%TO.C,R9*%
X106625000Y-129427500D03*
X108275000Y-129427500D03*
%TD*%
D15*
%TO.C,R37*%
X117500000Y-122825000D03*
X117500000Y-121175000D03*
%TD*%
D16*
%TO.C,R30*%
X134375000Y-87125000D03*
X136025000Y-87125000D03*
%TD*%
D19*
%TO.C,D5*%
X141512499Y-135650000D03*
X139937499Y-135650000D03*
%TD*%
D34*
%TO.C,FB2*%
X149300000Y-95212500D03*
X149300000Y-96787500D03*
%TD*%
D16*
%TO.C,R19*%
X111175000Y-152500000D03*
X112825000Y-152500000D03*
%TD*%
D15*
%TO.C,R18*%
X147000000Y-54825000D03*
X147000000Y-53175000D03*
%TD*%
D18*
%TO.C,C30*%
X116010000Y-121235000D03*
X116010000Y-119685000D03*
%TD*%
D11*
%TO.C,C5*%
X134145000Y-103340000D03*
X135695000Y-103340000D03*
%TD*%
D35*
%TO.C,U14*%
X124300000Y-121635000D03*
X124800000Y-121635000D03*
X125300000Y-121635000D03*
X125800000Y-121635000D03*
X126300000Y-121635000D03*
X126800000Y-121635000D03*
X127300000Y-121635000D03*
D36*
X127715000Y-122800000D03*
D35*
X127300000Y-123965000D03*
X126800000Y-123965000D03*
X126300000Y-123965000D03*
X125800000Y-123965000D03*
X125300000Y-123965000D03*
X124800000Y-123965000D03*
X124300000Y-123965000D03*
D36*
X123885000Y-122800000D03*
%TD*%
D10*
%TO.C,R41*%
X137035000Y-59430000D03*
X135385000Y-59430000D03*
%TD*%
D16*
%TO.C,R5*%
X133350001Y-141275000D03*
X135000001Y-141275000D03*
%TD*%
D37*
%TO.C,U3*%
X117850000Y-65700000D03*
X117850000Y-68000000D03*
D38*
X124150000Y-68000000D03*
D37*
X117850000Y-70300000D03*
%TD*%
D39*
%TO.C,J13*%
X128750000Y-51830000D03*
X127950000Y-51830000D03*
D40*
X126800000Y-51830000D03*
X125800000Y-51830000D03*
X125300000Y-51830000D03*
X124300000Y-51830000D03*
D39*
X123150000Y-51830000D03*
X122350000Y-51830000D03*
X122350000Y-51830000D03*
X123150000Y-51830000D03*
D40*
X123800000Y-51830000D03*
X124800000Y-51830000D03*
X126300000Y-51830000D03*
X127300000Y-51830000D03*
D39*
X127950000Y-51830000D03*
X128750000Y-51830000D03*
D41*
X129870000Y-51255000D03*
D42*
X129870000Y-47075000D03*
D41*
X121230000Y-51255000D03*
D42*
X121230000Y-47075000D03*
%TD*%
D43*
%TO.C,Q4*%
X119125000Y-150550000D03*
X119125000Y-152450000D03*
X121000000Y-151500000D03*
%TD*%
D44*
%TO.C,U16*%
X137875000Y-84587500D03*
D45*
X137875000Y-85687500D03*
X137875000Y-86787500D03*
X137875000Y-87887500D03*
X137875000Y-88987500D03*
X137875000Y-90087500D03*
X137875000Y-91187500D03*
X137875000Y-92287500D03*
D44*
X137875000Y-93387500D03*
X147375000Y-93387500D03*
D45*
X147375000Y-92287500D03*
X147375000Y-91187500D03*
X147375000Y-90087500D03*
X147375000Y-88987500D03*
X147375000Y-87887500D03*
X147375000Y-86787500D03*
X147375000Y-85687500D03*
D44*
X147375000Y-84587500D03*
%TD*%
D11*
%TO.C,C22*%
X127425000Y-125400000D03*
X128975000Y-125400000D03*
%TD*%
D14*
%TO.C,C10*%
X118500000Y-106225000D03*
X118500000Y-107775000D03*
%TD*%
D46*
%TO.C,J16*%
X151950000Y-92300000D03*
D47*
X153475000Y-90825000D03*
X153475000Y-93775000D03*
%TD*%
D30*
%TO.C,Q2*%
X107500000Y-147500000D03*
X109400000Y-147500000D03*
X108450000Y-145625000D03*
%TD*%
D14*
%TO.C,C29*%
X134350000Y-93350000D03*
X134350000Y-94900000D03*
%TD*%
D20*
%TO.C,R11*%
X122500000Y-76675000D03*
X122500000Y-78325000D03*
%TD*%
D18*
%TO.C,C16*%
X128490000Y-138275000D03*
X128490000Y-136725000D03*
%TD*%
D16*
%TO.C,R10*%
X109625000Y-129437500D03*
X111275000Y-129437500D03*
%TD*%
D19*
%TO.C,D6*%
X139787500Y-126375000D03*
X138212500Y-126375000D03*
%TD*%
D20*
%TO.C,R36*%
X105000000Y-126350000D03*
X105000000Y-128000000D03*
%TD*%
D48*
%TO.C,U1*%
X119085519Y-103171573D03*
X119439072Y-103525126D03*
X119792625Y-103878679D03*
X120146179Y-104232233D03*
X120499732Y-104585786D03*
X120853286Y-104939340D03*
X121206839Y-105292893D03*
X121560392Y-105646446D03*
X121913946Y-106000000D03*
X122267499Y-106353553D03*
X122621052Y-106707106D03*
X122974606Y-107060660D03*
X123328159Y-107414213D03*
X123681713Y-107767767D03*
X124035266Y-108121320D03*
X124388819Y-108474873D03*
D49*
X127111181Y-108474873D03*
X127464734Y-108121320D03*
X127818287Y-107767767D03*
X128171841Y-107414213D03*
X128525394Y-107060660D03*
X128878948Y-106707106D03*
X129232501Y-106353553D03*
X129586054Y-106000000D03*
X129939608Y-105646446D03*
X130293161Y-105292893D03*
X130646714Y-104939340D03*
X131000268Y-104585786D03*
X131353821Y-104232233D03*
X131707375Y-103878679D03*
X132060928Y-103525126D03*
X132414481Y-103171573D03*
D48*
X132414481Y-100449211D03*
X132060928Y-100095658D03*
X131707375Y-99742105D03*
X131353821Y-99388551D03*
X131000268Y-99034998D03*
X130646714Y-98681444D03*
X130293161Y-98327891D03*
X129939608Y-97974338D03*
X129586054Y-97620784D03*
X129232501Y-97267231D03*
X128878948Y-96913678D03*
X128525394Y-96560124D03*
X128171841Y-96206571D03*
X127818287Y-95853017D03*
X127464734Y-95499464D03*
X127111181Y-95145911D03*
D49*
X124388819Y-95145911D03*
X124035266Y-95499464D03*
X123681713Y-95853017D03*
X123328159Y-96206571D03*
X122974606Y-96560124D03*
X122621052Y-96913678D03*
X122267499Y-97267231D03*
X121913946Y-97620784D03*
X121560392Y-97974338D03*
X121206839Y-98327891D03*
X120853286Y-98681444D03*
X120499732Y-99034998D03*
X120146179Y-99388551D03*
X119792625Y-99742105D03*
X119439072Y-100095658D03*
X119085519Y-100449211D03*
%TD*%
D20*
%TO.C,R15*%
X107500000Y-149175000D03*
X107500000Y-150825000D03*
%TD*%
D16*
%TO.C,R14*%
X107850000Y-140500000D03*
X109500000Y-140500000D03*
%TD*%
D18*
%TO.C,C4*%
X117500000Y-98775000D03*
X117500000Y-97225000D03*
%TD*%
D17*
%TO.C,C8*%
X121775000Y-110700000D03*
X120225000Y-110700000D03*
%TD*%
D11*
%TO.C,C24*%
X109225000Y-113500000D03*
X110775000Y-113500000D03*
%TD*%
D17*
%TO.C,C7*%
X121775000Y-109200000D03*
X120225000Y-109200000D03*
%TD*%
D50*
%TO.C,U5*%
X130725000Y-144875000D03*
X130725000Y-145825000D03*
X130725000Y-146775000D03*
X133000000Y-146775000D03*
X133000000Y-145825000D03*
X133000000Y-144875000D03*
%TD*%
D10*
%TO.C,R28*%
X117150000Y-77500000D03*
X115500000Y-77500000D03*
%TD*%
D51*
%TO.C,Q3*%
X146875001Y-58450000D03*
X146875001Y-56550000D03*
X145000001Y-57500000D03*
%TD*%
D52*
%TO.C,D2*%
X102850000Y-56500000D03*
X107150000Y-56500000D03*
%TD*%
D33*
%TO.C,C18*%
X128100000Y-147150000D03*
X128100000Y-150225000D03*
%TD*%
D53*
%TO.C,U18*%
X146780000Y-115420000D03*
X146780000Y-117960000D03*
X146780000Y-120500000D03*
X146780000Y-123040000D03*
X146780000Y-125580000D03*
%TD*%
D10*
%TO.C,R24*%
X117150000Y-87540000D03*
X115500000Y-87540000D03*
%TD*%
%TO.C,R2*%
X149631000Y-107118000D03*
X147981000Y-107118000D03*
%TD*%
%TO.C,R33*%
X152025000Y-85700000D03*
X150375000Y-85700000D03*
%TD*%
D11*
%TO.C,C21*%
X125425000Y-120275000D03*
X126975000Y-120275000D03*
%TD*%
D54*
%TO.C,L1*%
X123750000Y-137378700D03*
X123750000Y-143021300D03*
%TD*%
D10*
%TO.C,R26*%
X117150000Y-82520000D03*
X115500000Y-82520000D03*
%TD*%
D21*
%TO.C,J14*%
X100350000Y-105875000D03*
X100350000Y-107125000D03*
X100350000Y-108375000D03*
X100350000Y-109625000D03*
X100350000Y-110875000D03*
X100350000Y-112125000D03*
D22*
X97150000Y-104025000D03*
X97150000Y-113975000D03*
%TD*%
M02*
